<svg width="67" height="84" viewBox="0 0 67 84" fill="none" xmlns="http://www.w3.org/2000/svg">
<g clip-path="url(#clip0_379_512)">
<path d="M33.5003 58.24C38.3591 58.24 43.1088 56.7949 47.1488 54.0874C51.1887 51.3799 54.3375 47.5317 56.1969 43.0293C58.0563 38.5269 58.5428 33.5726 57.5949 28.7929C56.647 24.0133 54.3072 19.6228 50.8715 16.1769C47.4358 12.7309 43.0584 10.3842 38.293 9.43342C33.5275 8.48268 28.588 8.97064 24.099 10.8356C19.61 12.7005 15.7732 15.8587 13.0738 19.9107C10.3744 23.9627 8.93359 28.7266 8.93359 33.6C8.94098 40.1326 11.5316 46.3956 16.1372 51.0149C20.7427 55.6342 26.987 58.2326 33.5003 58.24ZM33.5003 11.2C37.3089 11.1927 41.0561 12.1625 44.3858 14.0172C47.7154 15.8719 50.5168 18.5498 52.5238 21.7964C54.5307 25.0431 55.6765 28.7506 55.8522 32.5665C56.0279 36.3825 55.2277 40.1801 53.5277 43.5985C51.8276 47.0168 49.2842 49.9423 46.1392 52.0969C42.9942 54.2515 39.352 55.5636 35.5589 55.9085C31.7658 56.2533 27.9478 55.6195 24.4677 54.0673C20.9877 52.5151 17.9612 50.096 15.676 47.04H45.3213L44.9941 47.3681C44.8875 47.4715 44.8024 47.595 44.7439 47.7317C44.6853 47.8683 44.6545 48.0153 44.6532 48.164C44.652 48.3127 44.6802 48.4602 44.7364 48.5978C44.7925 48.7355 44.8754 48.8605 44.9803 48.9657C45.0851 49.0709 45.2098 49.154 45.347 49.2103C45.4843 49.2666 45.6313 49.295 45.7796 49.2937C45.9278 49.2924 46.0744 49.2615 46.2106 49.2028C46.3469 49.1441 46.4701 49.0588 46.5731 48.9518L48.8064 46.7118C49.0158 46.5018 49.1334 46.217 49.1334 45.92C49.1334 45.623 49.0158 45.3382 48.8064 45.1281L46.5731 42.8881C46.3625 42.6841 46.0804 42.5712 45.7876 42.5738C45.4948 42.5763 45.2147 42.6941 45.0077 42.9018C44.8007 43.1094 44.6832 43.3903 44.6807 43.684C44.6781 43.9777 44.7907 44.2606 44.9941 44.4718L45.3213 44.8H37.5415C39.0284 43.8103 40.3048 42.5347 41.2968 41.0468L41.4085 41.4355C41.4466 41.5803 41.5132 41.7159 41.6044 41.8345C41.6957 41.953 41.8097 42.0519 41.9397 42.1255C42.0698 42.1991 42.2132 42.2457 42.3615 42.2627C42.5098 42.2797 42.6601 42.2667 42.8033 42.2245C42.9465 42.1822 43.0798 42.1116 43.1954 42.0168C43.3109 41.9219 43.4063 41.8049 43.476 41.6724C43.5456 41.54 43.5881 41.3948 43.6008 41.2457C43.6136 41.0965 43.5964 40.9462 43.5503 40.8038L42.7585 38.1024C43.2782 36.6583 43.546 35.1352 43.5503 33.6C43.5503 33.376 43.5279 33.152 43.5168 32.928C45.6052 32.0875 47.2996 30.4862 48.2604 28.4453C49.2212 26.4044 49.3773 24.0746 48.6974 21.9232C48.0174 19.7717 46.5518 17.9575 44.5943 16.8443C42.6368 15.7311 40.3321 15.4012 38.1422 15.9208L38.3566 15.3529C38.4615 15.075 38.452 14.7668 38.3302 14.4959C38.2084 14.2251 37.9844 14.0138 37.7073 13.9087C37.4302 13.8035 37.1229 13.8131 36.8528 13.9352C36.5828 14.0574 36.3722 14.2821 36.2674 14.56L35.1507 17.5224C35.0987 17.66 35.0742 17.8066 35.0787 17.9538C35.0833 18.1009 35.1166 18.2457 35.177 18.3799C35.2374 18.5141 35.3235 18.635 35.4305 18.7358C35.5375 18.8366 35.6633 18.9152 35.8006 18.9672L38.7553 20.0872C38.8817 20.1348 39.0156 20.1594 39.1506 20.16C39.4122 20.1602 39.6656 20.0684 39.8666 19.9004C40.0675 19.7324 40.2033 19.499 40.2503 19.2409C40.2972 18.9827 40.2523 18.7163 40.1233 18.488C39.9944 18.2597 39.7896 18.084 39.5448 17.9917L39.4599 17.9603C41.0216 17.783 42.5956 18.1626 43.9063 19.0325C45.2169 19.9024 46.1806 21.2071 46.6284 22.7181C47.0763 24.229 46.9797 25.8499 46.3557 27.2966C45.7316 28.7434 44.6199 29.9237 43.2153 30.6309C42.6582 28.1462 41.4074 25.8719 39.6092 24.0739C37.811 22.2759 35.5397 21.0284 33.0607 20.4774C30.5817 19.9263 27.9976 20.0945 25.6103 20.9621C23.2231 21.8297 21.1315 23.361 19.5799 25.3769L19.4805 24.9289C19.4488 24.7853 19.3893 24.6493 19.3052 24.5288C19.2211 24.4083 19.1142 24.3055 18.9906 24.2264C18.8669 24.1473 18.729 24.0935 18.5845 24.0678C18.4401 24.0422 18.2921 24.0454 18.1489 24.0772C18.0057 24.1089 17.8701 24.1687 17.75 24.253C17.6298 24.3373 17.5273 24.4445 17.4485 24.5686C17.3696 24.6926 17.3159 24.831 17.2904 24.9758C17.2648 25.1207 17.268 25.2691 17.2997 25.4128L17.9071 28.1736C16.6223 31.0724 16.4048 34.3345 17.2933 37.3792C18.1818 40.4238 20.1186 43.0534 22.759 44.8H14.1886C12.2167 41.3989 11.1744 37.5363 11.167 33.602C11.1596 29.6677 12.1872 25.8011 14.1463 22.3926C16.1053 18.9841 18.9263 16.1544 22.3245 14.1892C25.7227 12.224 29.5777 11.1929 33.5003 11.2ZM19.8691 29.232L22.3905 28.672C22.6799 28.6078 22.932 28.431 23.0913 28.1804C23.2507 27.9298 23.3043 27.626 23.2403 27.3358C23.1764 27.0456 23.0001 26.7928 22.7502 26.6329C22.5004 26.4731 22.1975 26.4193 21.9081 26.4835L21.4615 26.5832C23.1007 24.5295 25.4092 23.1209 27.9812 22.6052C30.5532 22.0895 33.2242 22.4995 35.5247 23.7632C37.8251 25.0269 39.6079 27.0635 40.5596 29.515C41.5113 31.9664 41.5711 34.6759 40.7284 37.1672L38.2472 37.8985C37.9707 37.9886 37.7402 38.1833 37.6046 38.4412C37.469 38.6992 37.439 38.9999 37.521 39.2797C37.603 39.5594 37.7906 39.796 38.0438 39.9393C38.297 40.0825 38.5959 40.121 38.877 40.0467L39.3773 39.8989C37.8144 42.1879 35.4602 43.8137 32.7706 44.4613C30.081 45.1089 27.2474 44.7323 24.8189 43.4044C22.3903 42.0765 20.5395 39.8917 19.6251 37.2734C18.7106 34.6551 18.7976 31.7896 19.8691 29.232Z" fill="#0174F3"/>
<path d="M2.01039 28.2161C1.49957 28.4214 1.05451 28.763 0.723422 29.2038C0.392338 29.6447 0.187862 30.168 0.132154 30.7171C-0.0427492 32.6346 -0.0427492 34.5642 0.132154 36.4817C0.187869 37.0322 0.393074 37.5567 0.72543 37.9983C1.05778 38.4399 1.50455 38.7815 2.01709 38.9861L5.24202 40.2785C5.95728 43.3323 7.16422 46.2486 8.81535 48.9126L7.44967 52.1181C7.22277 52.6265 7.14358 53.1889 7.22122 53.7405C7.29885 54.2921 7.53015 54.8105 7.88852 55.2361C9.11682 56.7006 10.4685 58.0563 11.9286 59.2883C12.3528 59.6473 12.8692 59.879 13.4186 59.9571C13.9681 60.0351 14.5284 59.9563 15.0352 59.7296L18.2333 58.3598C20.8895 60.0159 23.7971 61.2264 26.8417 61.9438L28.1326 65.184C28.3375 65.6967 28.6781 66.1435 29.1178 66.4761C29.5575 66.8087 30.0794 67.0145 30.6272 67.0712C31.6088 67.1585 32.6093 67.2011 33.583 67.2011C34.5568 67.2011 35.5048 67.1585 36.3747 67.0712C36.9231 67.014 37.4455 66.8076 37.8854 66.4742C38.3253 66.1408 38.6659 65.6931 38.8704 65.1795L40.1591 61.9449C43.2037 61.2276 46.1113 60.017 48.7675 58.3609L51.9634 59.7296C52.4703 59.9572 53.031 60.0366 53.581 59.9587C54.1309 59.8809 54.6478 59.6489 55.0722 59.2894C56.5322 58.0581 57.8835 56.7028 59.1111 55.2384C59.4697 54.8131 59.7012 54.295 59.7793 53.7436C59.8573 53.1922 59.7786 52.6299 59.5522 52.1214L58.1865 48.9137C59.8377 46.2497 61.0446 43.3334 61.7599 40.2797L64.9904 38.9838C65.5016 38.7783 65.947 38.4366 66.2787 37.9957C66.6103 37.5547 66.8154 37.0312 66.872 36.4817C67.0458 34.5623 67.0458 32.631 66.872 30.7115C66.8142 30.1625 66.6082 29.6398 66.276 29.1996C65.9438 28.7595 65.4982 28.4187 64.987 28.2139L61.7621 26.9214C61.0468 23.8677 59.8399 20.9514 58.1888 18.2873L59.5533 15.0819C59.7798 14.5733 59.8588 14.0111 59.7812 13.4595C59.7036 12.908 59.4725 12.3896 59.1145 11.9638C57.8866 10.4997 56.5353 9.14436 55.0755 7.91278C54.6518 7.55275 54.1356 7.31976 53.5859 7.24053C53.0362 7.16129 52.4755 7.23901 51.9678 7.46478L48.7675 8.84014C46.1113 7.18408 43.2037 5.97353 40.1591 5.25614L38.8682 2.01598C38.6636 1.50364 38.323 1.05725 37.8835 0.725173C37.4439 0.393101 36.9221 0.188015 36.3747 0.13214C34.4628 -0.0427445 32.5391 -0.0427445 30.6272 0.13214C30.0784 0.188021 29.5554 0.393839 29.1152 0.727186C28.6749 1.06053 28.3343 1.50863 28.1303 2.0227L26.8417 5.25726C23.7971 5.97465 20.8895 7.1852 18.2333 8.84126L15.0374 7.4715C14.53 7.24477 13.9692 7.16591 13.4192 7.24395C12.8693 7.32199 12.3523 7.55378 11.9275 7.91278C10.468 9.14465 9.11672 10.5 7.88852 11.9638C7.53064 12.3892 7.29954 12.9072 7.22172 13.4583C7.14391 14.0094 7.22252 14.5713 7.44855 15.0797L8.81424 18.2873C7.16311 20.9514 5.95616 23.8677 5.2409 26.9214L2.01039 28.2161ZM7.29334 27.9765C7.97206 24.7811 9.2302 21.738 11.0051 18.9985C11.1049 18.8445 11.1653 18.6682 11.181 18.4851C11.1968 18.3021 11.1675 18.118 11.0956 17.9491L9.5021 14.1982C9.44124 14.0706 9.41795 13.9282 9.43496 13.7877C9.45197 13.6473 9.50858 13.5146 9.59814 13.4053C10.7482 12.0352 12.0136 10.7668 13.3803 9.61406C13.4895 9.52767 13.6209 9.47405 13.7592 9.45938C13.8975 9.44471 14.0371 9.46961 14.162 9.53118L17.8994 11.1305C18.0678 11.2032 18.2514 11.233 18.434 11.2171C18.6165 11.2013 18.7924 11.1404 18.9458 11.0398C21.677 9.25958 24.7111 7.99768 27.897 7.31694C28.0763 7.27856 28.2435 7.19646 28.3837 7.07789C28.524 6.95932 28.6329 6.80793 28.701 6.6371L30.2062 2.85822C30.2571 2.72578 30.3429 2.60968 30.4544 2.5223C30.5659 2.43492 30.6989 2.37954 30.8394 2.36206C32.616 2.19954 34.4037 2.19954 36.1804 2.36206C36.3176 2.38149 36.4472 2.43715 36.5559 2.52336C36.6646 2.60956 36.7485 2.72319 36.799 2.85262L38.3021 6.6371C38.3701 6.80793 38.479 6.95932 38.6193 7.07789C38.7595 7.19646 38.9267 7.27856 39.1061 7.31694C42.2919 7.99768 45.326 9.25958 48.0573 11.0398C48.2109 11.1398 48.3867 11.2004 48.5691 11.2163C48.7516 11.2321 48.9351 11.2026 49.1036 11.1305L52.8433 9.53006C52.9706 9.46902 53.1125 9.44566 53.2526 9.46272C53.3926 9.47978 53.5249 9.53656 53.6339 9.62638C55.0002 10.7796 56.2648 12.0488 57.4138 13.4198C57.4999 13.5294 57.5534 13.6611 57.568 13.7998C57.5826 13.9386 57.5578 14.0786 57.4964 14.2038L55.9018 17.9525C55.83 18.1214 55.8006 18.3055 55.8164 18.4885C55.8322 18.6715 55.8926 18.8478 55.9923 19.0019C57.7672 21.7413 59.0254 24.7845 59.7041 27.9798C59.7424 28.1597 59.8242 28.3274 59.9424 28.4681C60.0606 28.6087 60.2116 28.718 60.3819 28.7862L64.1495 30.296C64.2801 30.3461 64.3948 30.4304 64.4818 30.5401C64.5688 30.6499 64.6249 30.781 64.6442 30.9198V30.931C64.8052 32.7127 64.8052 34.5052 64.6442 36.2869C64.6249 36.4248 64.5694 36.5551 64.4832 36.6644C64.397 36.7736 64.2834 36.8579 64.154 36.9085L60.383 38.416C60.2127 38.4842 60.0618 38.5935 59.9435 38.7341C59.8253 38.8748 59.7435 39.0425 59.7052 39.2224C59.0265 42.4177 57.7683 45.4609 55.9934 48.2003C55.8937 48.3544 55.8333 48.5307 55.8175 48.7137C55.8017 48.8967 55.8311 49.0808 55.903 49.2497L57.4987 53.0006C57.5599 53.1282 57.5833 53.2708 57.5661 53.4114C57.5489 53.552 57.4918 53.6846 57.4015 53.7936C56.2521 55.1646 54.9866 56.4334 53.6194 57.5859C53.5106 57.6732 53.3791 57.7274 53.2405 57.7419C53.1019 57.7564 52.9621 57.7306 52.8377 57.6677L49.1002 56.0683C48.9318 55.9962 48.7482 55.9668 48.5658 55.9826C48.3833 55.9984 48.2075 56.059 48.0539 56.159C45.3226 57.9393 42.2886 59.2012 39.1027 59.8819C38.9233 59.9203 38.7561 60.0024 38.6159 60.121C38.4757 60.2395 38.3667 60.3909 38.2987 60.5617L36.7934 64.3406C36.7427 64.4733 36.657 64.5896 36.5455 64.6772C36.434 64.7648 36.3008 64.8203 36.1603 64.8379C34.384 64.9993 32.5967 64.9993 30.8204 64.8379C30.6828 64.8186 30.5529 64.7628 30.444 64.6764C30.3351 64.59 30.2511 64.476 30.2006 64.3462L28.6987 60.5629C28.6307 60.392 28.5217 60.2406 28.3815 60.1221C28.2413 60.0035 28.0741 59.9214 27.8947 59.883C24.7089 59.2023 21.6748 57.9404 18.9435 56.1601C18.7901 56.0596 18.6143 55.9986 18.4317 55.9828C18.2492 55.967 18.0655 55.9967 17.8972 56.0694L14.1575 57.6699C14.0303 57.7311 13.8882 57.7545 13.7482 57.7374C13.6081 57.7204 13.4758 57.6635 13.3669 57.5736C12.0002 56.42 10.7352 55.1504 9.58585 53.779C9.49966 53.6695 9.44624 53.5377 9.43181 53.3989C9.41737 53.2601 9.44253 53.12 9.50434 52.995L11.0989 49.2464C11.1708 49.0774 11.2002 48.8933 11.1844 48.7103C11.1686 48.5273 11.1082 48.351 11.0085 48.1969C9.23355 45.4575 7.97541 42.4144 7.29669 39.219C7.25842 39.0391 7.17656 38.8714 7.05835 38.7308C6.94013 38.5901 6.78919 38.4809 6.61887 38.4126L2.85012 36.9073C2.71808 36.8563 2.60232 36.7703 2.5152 36.6585C2.42808 36.5466 2.37286 36.4132 2.35544 36.2723C2.19285 34.4904 2.19285 32.6973 2.35544 30.9153C2.37481 30.7777 2.43031 30.6477 2.51625 30.5387C2.6022 30.4297 2.71549 30.3455 2.84454 30.2949L6.61775 28.784C6.78821 28.7156 6.93923 28.6062 7.05746 28.4653C7.17569 28.3245 7.25747 28.1566 7.29557 27.9765H7.29334Z" fill="#0174F3"/>
</g>
<defs>
<clipPath id="clip0_379_512">
<rect width="67" height="84" fill="white"/>
</clipPath>
</defs>
</svg>
