<svg width="83" height="103" viewBox="0 0 83 103" fill="none" xmlns="http://www.w3.org/2000/svg">
<path d="M71.0691 36.565C69.0431 36.565 67.3316 37.8603 66.6867 39.655H44.6128V33.475H58.8988C59.7164 33.475 60.514 33.1462 61.0892 32.5744L64.3021 29.3846C64.9097 29.673 65.582 29.8477 66.2991 29.8477C68.8737 29.8477 70.9678 27.7688 70.9678 25.2127C70.9678 22.6567 68.8737 20.5777 66.2991 20.5777C63.7244 20.5777 61.6303 22.6567 61.6303 25.2127C61.6303 25.928 61.808 26.5971 62.1001 27.2027L58.8988 30.3858H44.6128V24.2058H49.7007C51.0636 24.2058 52.2538 23.3439 52.6597 22.0725L53.664 19.0047C56.1731 18.9306 58.195 16.8928 58.195 14.3837C58.195 11.8277 56.1009 9.74873 53.5262 9.74873C50.9516 9.74873 48.8575 11.8277 48.8575 14.3837C48.8575 15.8826 49.5887 17.2026 50.7034 18.0505L49.7007 21.1158H44.6128V16.7717C44.6128 11.9364 41.1094 7.85847 36.4639 7.28414C33.9407 6.96938 31.4532 7.65989 29.4853 9.22549C28.0261 10.3857 26.9529 11.9686 26.4018 13.7278C24.9228 13.3669 23.3756 13.2936 21.8376 13.5202C16.9896 14.2329 12.9957 18.0629 12.1266 22.8363C11.5705 25.9008 12.2495 28.9974 13.9609 31.4941C9.92299 33.3679 7.26367 37.398 7.26367 41.9737C7.26367 46.5181 9.87319 50.5384 13.907 52.4361C13.3526 54.1953 13.3509 56.0287 13.9128 57.8184C14.8142 60.6884 17.1639 63.0343 20.0465 63.9407C21.4824 64.3931 22.9523 64.4879 24.3841 64.2374C24.3617 65.8763 24.7368 67.4839 25.5087 69.0413C27.1306 72.3142 30.3053 74.6321 33.7913 75.0928C34.2835 75.1578 34.7749 75.19 35.2621 75.19C37.5022 75.19 39.6818 74.5159 41.5203 73.2363C43.4567 71.8866 44.6128 69.5818 44.6128 67.0703V61.2858L49.6999 61.2842L50.7042 64.3511C49.5895 65.199 48.8583 66.5199 48.8583 68.0179C48.8583 70.5739 50.9524 72.6529 53.527 72.6529C56.1017 72.6529 58.1958 70.5739 58.1958 68.0179C58.1958 65.5088 56.1739 63.4711 53.6648 63.3969L52.6638 60.3407C52.2547 59.0577 51.0653 58.1958 49.7016 58.1958H44.6137V52.0158L58.8888 52.0117L62.1001 55.2006C61.808 55.8054 61.6303 56.4745 61.6303 57.1897C61.6303 59.7458 63.7244 61.8247 66.2991 61.8247C68.8737 61.8247 70.9678 59.7458 70.9678 57.1897C70.9678 54.6337 68.8737 52.5547 66.2991 52.5547C65.582 52.5547 64.9097 52.7294 64.3021 53.0178L61.0908 49.8297C60.5148 49.2562 59.7172 48.9275 58.8996 48.9275H44.6137V42.7475H66.6884C67.3324 44.5421 69.0439 45.8375 71.0699 45.8375C73.6446 45.8375 75.7387 43.7585 75.7387 41.2025C75.7387 38.6464 73.6446 36.5675 71.0699 36.5675L71.0691 36.565ZM66.2983 23.6669C67.1573 23.6669 67.8545 24.3599 67.8545 25.2119C67.8545 26.0639 67.1573 26.7569 66.2983 26.7569C65.4392 26.7569 64.742 26.0639 64.742 25.2119C64.742 24.3599 65.4392 23.6669 66.2983 23.6669ZM53.5262 12.8379C54.3853 12.8379 55.0825 13.5309 55.0825 14.3829C55.0825 15.2349 54.3853 15.9279 53.5262 15.9279C52.6672 15.9279 51.97 15.2349 51.97 14.3829C51.97 13.5309 52.6672 12.8379 53.5262 12.8379ZM41.5003 67.0695C41.5003 68.5749 40.8388 69.9337 39.7324 70.7058C38.1339 71.819 36.1734 72.2912 34.2005 72.0291C31.7312 71.7028 29.4695 70.0342 28.3009 67.6759C27.4501 65.9595 27.2733 64.2332 27.7614 62.3998C27.9182 61.814 27.714 61.191 27.2401 60.8079C26.9571 60.5788 26.6077 60.4602 26.2566 60.4602C26.0208 60.4602 25.7851 60.5129 25.5652 60.6208C24.0728 61.355 22.5315 61.4803 20.9844 60.9941C19.0571 60.3876 17.486 58.8179 16.8825 56.8964C16.392 55.3349 16.5406 53.7816 17.3266 52.2803C17.5391 51.8741 17.559 51.3945 17.3814 50.9718C17.2038 50.5491 16.8452 50.2261 16.4045 50.0918C12.7981 48.986 10.3753 45.7229 10.3753 41.9721C10.3753 38.021 13.082 34.6253 16.9556 33.7139C17.51 33.5838 17.9483 33.1635 18.0985 32.6172C18.2487 32.0717 18.086 31.4883 17.676 31.0969C15.5695 29.0864 14.664 26.2757 15.1893 23.3851C15.8243 19.8979 18.7459 17.098 22.2925 16.5764C23.8927 16.3424 25.5054 16.5443 26.9579 17.159C27.4152 17.351 27.9348 17.3172 28.3639 17.0658C28.7897 16.8145 29.0703 16.3762 29.1176 15.8859C29.2803 14.2247 30.1219 12.6756 31.4308 11.6365C32.7364 10.5966 34.3806 10.1385 36.0796 10.3494C39.1697 10.7309 41.4995 13.4922 41.4995 16.7709L41.5003 67.0695ZM55.0825 68.0171C55.0825 68.8691 54.3853 69.5621 53.5262 69.5621C52.6672 69.5621 51.97 68.8691 51.97 68.0171C51.97 67.165 52.6672 66.4721 53.5262 66.4721C54.3853 66.4721 55.0825 67.165 55.0825 68.0171ZM67.8545 57.1881C67.8545 58.0401 67.1573 58.7331 66.2983 58.7331C65.4392 58.7331 64.742 58.0401 64.742 57.1881C64.742 56.336 65.4392 55.6431 66.2983 55.6431C67.1573 55.6431 67.8545 56.336 67.8545 57.1881ZM71.0691 42.745C70.21 42.745 69.5129 42.052 69.5129 41.2C69.5129 40.348 70.21 39.655 71.0691 39.655C71.9282 39.655 72.6254 40.348 72.6254 41.2C72.6254 42.052 71.9282 42.745 71.0691 42.745Z" fill="#0174F3"/>
<path d="M29.0503 43.5171C29.9101 43.5171 30.6065 42.8249 30.6065 41.9721C30.6065 39.6047 29.9002 37.3544 28.5888 35.446C29.7823 34.884 30.892 34.1284 31.8573 33.1701C32.4649 32.567 32.4649 31.5889 31.8573 30.9857C31.2498 30.3825 30.2645 30.3825 29.657 30.9857C27.7862 32.8405 25.2148 33.723 22.5746 33.4132C21.7371 33.3102 20.947 33.9158 20.8432 34.7629C20.7411 35.61 21.3495 36.3788 22.2036 36.481C22.6775 36.5386 23.1523 36.5658 23.6229 36.5658C24.213 36.5658 24.7948 36.5081 25.37 36.4216C26.7213 37.9707 27.4932 39.8989 27.4932 41.9721C27.4932 42.8249 28.1904 43.5171 29.0503 43.5171Z" fill="#0174F3"/>
<path d="M35.2749 22.66C33.541 22.66 31.8702 21.9324 30.6941 20.6643C30.1123 20.0372 29.1287 19.9985 28.4946 20.5753C27.8622 21.1529 27.8231 22.131 28.405 22.7589C30.1696 24.6598 32.6728 25.75 35.2741 25.75C36.1339 25.75 36.8303 25.0578 36.8303 24.205C36.8303 23.3522 36.1348 22.66 35.2749 22.66Z" fill="#0174F3"/>
<path d="M35.2748 53.56C34.1908 53.56 33.1268 53.7528 32.1017 54.0635C31.8203 51.5354 30.5222 49.2554 28.4373 47.6972C27.7475 47.1831 26.7731 47.3215 26.2577 48.0021C25.7406 48.6844 25.8775 49.6526 26.5648 50.1659C28.1434 51.3467 29.0498 53.1463 29.0498 55.105C29.0498 55.2525 29.0183 55.4214 29.005 55.5788C28.7842 55.7337 28.5476 55.8631 28.3385 56.0345C27.6761 56.5783 27.5815 57.5523 28.1302 58.2098C28.4373 58.5798 28.8821 58.7701 29.3312 58.7701C29.6789 58.7701 30.03 58.654 30.3205 58.4166C31.7099 57.2771 33.4695 56.6492 35.2748 56.6492C36.1347 56.6492 36.831 55.957 36.831 55.1042C36.831 54.2513 36.1347 53.56 35.2748 53.56Z" fill="#0174F3"/>
</svg>
