<svg width="88" height="110" viewBox="0 0 88 110" fill="none" xmlns="http://www.w3.org/2000/svg">
<path d="M29.0137 85.2501C34.5233 85.2501 39.7015 83.1038 43.5969 79.2084C43.865 78.9403 43.9998 78.5883 43.9998 78.2363C43.9998 77.8843 43.865 77.5323 43.5969 77.2641L16.3733 50.0419C15.8357 49.5043 14.9667 49.5043 14.429 50.0419C10.5337 53.9373 8.38867 59.1155 8.38867 64.6251C8.38867 70.1348 10.535 75.313 14.4304 79.2084C18.3258 83.1038 23.504 85.2501 29.0137 85.2501ZM34.7625 78.9169C33.2583 78.4618 31.7527 77.8499 30.2718 77.0771C31.8778 75.6788 33.4907 74.191 35.0802 72.6373L37.507 75.0641C36.3795 76.325 35.4555 77.6354 34.7625 78.9169ZM27.772 75.6004C26.1495 74.543 24.5862 73.311 23.1177 71.9236C25.0688 70.2709 27.046 68.4696 29.0013 66.5584L33.1345 70.6916C31.3594 72.4269 29.5568 74.0755 27.772 75.6004ZM21.1858 69.9601C19.9043 68.5398 18.7699 67.0355 17.7909 65.4831C19.5427 63.9761 21.3123 62.3481 23.0709 60.6266L27.0584 64.6141C25.1018 66.5254 23.1273 68.3211 21.1858 69.9601ZM16.3967 63.0494C15.6982 61.6703 15.144 60.2719 14.7219 58.8749C16.0034 58.1819 17.3138 57.2579 18.5747 56.1304L21.1267 58.6824C19.5482 60.2238 17.9655 61.6854 16.3967 63.0494ZM11.1387 64.6251C11.1387 63.0631 11.3435 61.5341 11.7299 60.0629C11.8757 60.0299 12.0255 59.9804 12.174 59.9378C12.6952 61.5946 13.3923 63.246 14.2558 64.8658C13.2699 65.6743 12.295 66.436 11.338 67.151C11.2184 66.3191 11.1387 65.479 11.1387 64.6251ZM15.6665 67.2596C16.662 68.7996 17.7895 70.2929 19.0545 71.7064C17.487 72.9494 15.9635 74.0645 14.5047 75.0421C13.406 73.5186 12.5563 71.8508 11.9898 70.077C13.1929 69.2108 14.4194 68.2716 15.6665 67.2596ZM16.2812 77.1638C17.7909 76.1408 19.3667 74.9734 20.9782 73.6864C22.4247 75.0765 23.9578 76.3443 25.5569 77.4443C24.0637 78.6446 22.6062 79.7281 21.2064 80.6948C19.4395 79.8354 17.8019 78.6955 16.3719 77.2655C16.3417 77.2325 16.3142 77.1954 16.2812 77.1638ZM24.3139 81.8608C25.5253 80.9739 26.7669 80.0073 28.0292 78.9719C29.8854 80.0251 31.7898 80.8653 33.701 81.4661C33.6584 81.6146 33.6103 81.7645 33.5759 81.9089C32.1047 82.2953 30.5757 82.5001 29.0137 82.5001C27.4022 82.5001 25.8278 82.2705 24.3139 81.8608ZM36.9612 80.6343C37.5428 79.4655 38.4049 78.2115 39.4568 77.0139L40.6448 78.2019C39.5118 79.1726 38.2729 79.9811 36.9612 80.6343ZM15.4383 52.994L16.6263 54.182C15.4287 55.2325 14.1747 56.096 13.0045 56.6776C13.6563 55.3659 14.4648 54.1256 15.4383 52.994Z" fill="#0174F3"/>
<path d="M58.9861 85.2501C64.4957 85.2501 69.674 83.1038 73.5694 79.2084C77.4648 75.313 79.6111 70.1334 79.6111 64.6251C79.6111 59.1169 77.4648 53.9373 73.5694 50.0419C73.0318 49.5043 72.1628 49.5043 71.6251 50.0419L44.4029 77.2641C44.1347 77.5336 44 77.8856 44 78.2363C44 78.5869 44.1347 78.9403 44.4029 79.2084C48.2982 83.1038 53.4779 85.2501 58.9861 85.2501ZM73.7454 64.8658C74.6089 63.246 75.306 61.5946 75.8271 59.9378C75.9756 59.9804 76.1255 60.0285 76.2713 60.0629C76.6576 61.5341 76.8625 63.0631 76.8625 64.6251C76.8625 65.479 76.7827 66.3191 76.6645 67.151C75.7061 66.436 74.7326 65.6743 73.7454 64.8658ZM76.0086 70.0756C75.4435 71.8494 74.5924 73.5173 73.4938 75.0408C72.0349 74.0631 70.5114 72.948 68.9439 71.705C70.2089 70.2915 71.3377 68.7983 72.3319 67.2583C73.5804 68.2716 74.8069 69.2108 76.0086 70.0756ZM71.6031 63.0494C70.0343 61.6854 68.4516 60.2238 66.8731 58.6824L69.4251 56.1304C70.686 57.2579 71.9964 58.1819 73.2779 58.8749C72.8557 60.2733 72.3016 61.6716 71.6031 63.0494ZM70.2103 65.4831C69.2313 67.0341 68.0969 68.5384 66.8154 69.9601C64.8739 68.3225 62.8994 66.5254 60.9427 64.6141L64.9303 60.6266C66.6889 62.3481 68.4585 63.9761 70.2103 65.4831ZM64.8821 71.925C63.4136 73.311 61.8502 74.5444 60.2277 75.6018C58.443 74.0769 56.6404 72.4269 54.8639 70.693L58.9971 66.5598C60.9538 68.471 62.931 70.2723 64.8821 71.925ZM57.728 77.0771C56.2471 77.8499 54.7415 78.4618 53.2372 78.9169C52.5442 77.6354 51.6203 76.325 50.4928 75.0641L52.9196 72.6373C54.5091 74.1896 56.122 75.6788 57.728 77.0771ZM54.4239 81.9089C54.3909 81.7631 54.3414 81.6133 54.2988 81.4661C56.21 80.8653 58.1144 80.0251 59.9706 78.9719C61.2315 80.0073 62.4745 80.9739 63.6859 81.8608C62.172 82.2705 60.5976 82.5001 58.9861 82.5001C57.4255 82.5001 55.8965 82.2953 54.4239 81.9089ZM66.792 80.6934C65.3923 79.7281 63.9347 78.6433 62.4415 77.4429C64.042 76.3429 65.5738 75.0751 67.0203 73.685C68.6331 74.972 70.2075 76.1408 71.7173 77.1624C71.6856 77.1954 71.6581 77.2311 71.6251 77.2641C70.1965 78.6941 68.5575 79.834 66.792 80.6934ZM72.5615 52.994C73.535 54.1256 74.3421 55.3659 74.9953 56.6776C73.8251 56.0946 72.5711 55.2325 71.3735 54.182L72.5615 52.994ZM48.5444 77.0125C49.5949 78.2101 50.457 79.4641 51.04 80.6329C49.7282 79.9798 48.4894 79.1726 47.3578 78.2005L48.5444 77.0125Z" fill="#0174F3"/>
<path d="M45.375 42.24L52.6845 39.8035C53.2469 39.6165 53.625 39.0926 53.625 38.5V24.112L55.1856 23.0739C56.1852 24.1038 57.5795 24.75 59.125 24.75C62.1582 24.75 64.625 22.2833 64.625 19.25C64.625 16.2168 62.1582 13.75 59.125 13.75C56.0917 13.75 53.625 16.2168 53.625 19.25C53.625 19.7436 53.7116 20.2139 53.834 20.669L51.4882 22.2296C51.1046 22.4854 50.875 22.9144 50.875 23.375V37.5086L45.375 39.3429V13.5547C47.74 12.9401 49.5 10.8061 49.5 8.25C49.5 5.21675 47.0333 2.75 44 2.75C40.9667 2.75 38.5 5.21675 38.5 8.25C38.5 10.8061 40.26 12.9401 42.625 13.5547V31.9467L31.625 25.3468V20.4298C33.99 19.8151 35.75 17.6811 35.75 15.125C35.75 12.0918 33.2832 9.625 30.25 9.625C27.2167 9.625 24.75 12.0918 24.75 15.125C24.75 17.6811 26.51 19.8151 28.875 20.4298V26.125C28.875 26.609 29.128 27.0559 29.5419 27.3034L42.625 35.1533V61.875H45.375V42.24ZM59.125 16.5C60.6416 16.5 61.875 17.7334 61.875 19.25C61.875 20.7666 60.6416 22 59.125 22C57.6084 22 56.375 20.7666 56.375 19.25C56.375 17.7334 57.6084 16.5 59.125 16.5ZM27.5 15.125C27.5 13.6084 28.7334 12.375 30.25 12.375C31.7666 12.375 33 13.6084 33 15.125C33 16.6416 31.7666 17.875 30.25 17.875C28.7334 17.875 27.5 16.6416 27.5 15.125ZM41.25 8.25C41.25 6.73337 42.4834 5.5 44 5.5C45.5166 5.5 46.75 6.73337 46.75 8.25C46.75 9.76662 45.5166 11 44 11C42.4834 11 41.25 9.76662 41.25 8.25Z" fill="#0174F3"/>
<path d="M34.375 60.5V42.625C34.375 42.1905 34.1687 41.7794 33.8181 41.5195L25.553 35.3939C25.9077 34.6679 26.125 33.8621 26.125 33C26.125 29.9667 23.6582 27.5 20.625 27.5C17.5917 27.5 15.125 29.9667 15.125 33C15.125 36.0332 17.5917 38.5 20.625 38.5C21.7965 38.5 22.8786 38.1246 23.7724 37.4976L31.625 43.318V60.5H34.375ZM20.625 35.75C19.1084 35.75 17.875 34.5166 17.875 33C17.875 31.4834 19.1084 30.25 20.625 30.25C22.1416 30.25 23.375 31.4834 23.375 33C23.375 34.5166 22.1416 35.75 20.625 35.75Z" fill="#0174F3"/>
<path d="M56.375 46.1615L66.7549 40.0634C67.6885 40.7949 68.849 41.25 70.125 41.25C73.1583 41.25 75.625 38.7832 75.625 35.75C75.625 32.7167 73.1583 30.25 70.125 30.25C67.0918 30.25 64.625 32.7167 64.625 35.75C64.625 36.5021 64.779 37.2199 65.0526 37.8744L54.3029 44.1898C53.8835 44.4359 53.625 44.8883 53.625 45.375V60.5H56.375V46.1615ZM70.125 33C71.6416 33 72.875 34.2334 72.875 35.75C72.875 37.2666 71.6416 38.5 70.125 38.5C68.6084 38.5 67.375 37.2666 67.375 35.75C67.375 34.2334 68.6084 33 70.125 33Z" fill="#0174F3"/>
<path d="M45.375 64.625H42.625V67.375H45.375V64.625Z" fill="#0174F3"/>
</svg>
