<svg width="35" height="33" viewBox="0 0 35 33" fill="none" xmlns="http://www.w3.org/2000/svg">
<path d="M1 8.15385H34M17.5 17.6923V22.4615M15.1429 15.3077H10.4286C9.12675 15.3077 8.07143 16.3753 8.07143 17.6923V22.4615M19.8571 15.3077H24.5714C25.8732 15.3077 26.9286 16.3753 26.9286 17.6923V22.4615M3.02041 1H31.9796C33.0954 1 34 1.91511 34 3.04396V29.956C34 31.0849 33.0954 32 31.9796 32H3.02041C1.90457 32 1 31.0849 1 29.956V3.04396C1 1.91511 1.90457 1 3.02041 1ZM16.1531 12.9231H18.8469C19.4049 12.9231 19.8571 13.3806 19.8571 13.9451V16.6703C19.8571 17.2348 19.4049 17.6923 18.8469 17.6923H16.1531C15.5951 17.6923 15.1429 17.2348 15.1429 16.6703V13.9451C15.1429 13.3806 15.5951 12.9231 16.1531 12.9231ZM16.1531 22.4615H18.8469C19.4049 22.4615 19.8571 22.9191 19.8571 23.4835V26.2088C19.8571 26.7732 19.4049 27.2308 18.8469 27.2308H16.1531C15.5951 27.2308 15.1429 26.7732 15.1429 26.2088V23.4835C15.1429 22.9191 15.5951 22.4615 16.1531 22.4615ZM6.72449 22.4615H9.41837C9.97629 22.4615 10.4286 22.9191 10.4286 23.4835V26.2088C10.4286 26.7732 9.97629 27.2308 9.41837 27.2308H6.72449C6.16657 27.2308 5.71429 26.7732 5.71429 26.2088V23.4835C5.71429 22.9191 6.16657 22.4615 6.72449 22.4615ZM25.5816 22.4615H28.2755C28.8334 22.4615 29.2857 22.9191 29.2857 23.4835V26.2088C29.2857 26.7732 28.8334 27.2308 28.2755 27.2308H25.5816C25.0237 27.2308 24.5714 26.7732 24.5714 26.2088V23.4835C24.5714 22.9191 25.0237 22.4615 25.5816 22.4615Z" stroke="#0174F3" stroke-width="1.5" stroke-linecap="round" stroke-linejoin="round"/>
</svg>
