<svg width="40" height="25" viewBox="0 0 40 25" fill="none" xmlns="http://www.w3.org/2000/svg">
<g clip-path="url(#clip0_382_709)">
<path d="M11.3114 8.78407C11.3114 9.2811 11.3646 9.68407 11.4572 9.97959C11.5749 10.312 11.7165 10.6352 11.881 10.9466C11.9472 11.054 11.9737 11.1614 11.9737 11.2555C11.9737 11.3898 11.8943 11.5241 11.7221 11.6585L10.8877 12.2226C10.7685 12.3032 10.6492 12.3434 10.5432 12.3434C10.4108 12.3434 10.2783 12.2763 10.1458 12.1553C9.96736 11.9609 9.80772 11.7495 9.66912 11.5241C9.53663 11.2959 9.40409 11.0405 9.25845 10.7317C8.22536 11.9673 6.92724 12.5852 5.36442 12.5852C4.25192 12.5852 3.36442 12.2628 2.71535 11.6182C2.06645 10.9733 1.73535 10.1138 1.73535 9.03934C1.73535 7.89771 2.1327 6.97098 2.94067 6.27256C3.74848 5.5741 4.82145 5.22488 6.18566 5.22488C6.63596 5.22488 7.0996 5.26512 7.5896 5.3323C8.07972 5.39948 8.58299 5.50691 9.11287 5.62781V4.64734C9.11287 3.62646 8.90081 2.91472 8.49021 2.49832C8.06645 2.08192 7.35112 1.88037 6.3313 1.88037C5.8677 1.88037 5.39098 1.93425 4.90082 2.05514C4.41082 2.17588 3.93395 2.32371 3.47035 2.51179C3.25848 2.60574 3.09957 2.65946 3.00676 2.68639C2.9141 2.71333 2.84785 2.72664 2.79488 2.72664C2.60941 2.72664 2.51676 2.59228 2.51676 2.31024V1.65205C2.51676 1.4372 2.54332 1.27606 2.60941 1.1821C2.67567 1.08798 2.79489 0.994023 2.98035 0.90006C3.44395 0.658272 4.00019 0.456726 4.6491 0.295586C5.29832 0.120977 5.98707 0.0404858 6.71554 0.0404858C8.29178 0.0404858 9.44409 0.403013 10.1858 1.12839C10.9143 1.8536 11.2852 2.95496 11.2852 4.43248V8.78407H11.3114ZM5.93395 10.8256C6.37112 10.8256 6.82142 10.7452 7.29815 10.5839C7.77505 10.4227 8.19893 10.1272 8.55645 9.72431C8.76851 9.46922 8.92736 9.18716 9.00675 8.86474C9.08627 8.54244 9.13924 8.1528 9.13924 7.69619V7.13213C8.7376 7.03298 8.33075 6.95674 7.92069 6.90377C7.50772 6.85062 7.0919 6.82365 6.67566 6.82316C5.78816 6.82316 5.13926 6.99777 4.70223 7.36044C4.26504 7.7231 4.05316 8.23347 4.05316 8.90498C4.05316 9.53625 4.21207 10.0063 4.54316 10.3288C4.86113 10.6646 5.32473 10.8256 5.93395 10.8256ZM16.5697 12.2763C16.3313 12.2763 16.1724 12.236 16.0664 12.1419C15.9605 12.0614 15.8677 11.8733 15.7883 11.6182L12.6758 1.23581C12.5961 0.967084 12.5564 0.792478 12.5564 0.698514C12.5564 0.483663 12.6624 0.362609 12.8744 0.362609H14.1724C14.424 0.362609 14.5963 0.403013 14.6889 0.496972C14.7949 0.577622 14.8744 0.765696 14.9538 1.0208L17.1789 9.91238L19.2452 1.0208C19.3115 0.752229 19.391 0.577622 19.4968 0.496972C19.6029 0.416481 19.7883 0.362767 20.0268 0.362767H21.0863C21.3378 0.362767 21.5102 0.403013 21.616 0.496972C21.7221 0.577622 21.8148 0.765696 21.8677 1.0208L23.9605 10.0198L26.2518 1.0208C26.3311 0.752229 26.424 0.577622 26.5166 0.496972C26.6226 0.416481 26.7948 0.362767 27.0332 0.362767H28.2649C28.4769 0.362767 28.5961 0.470195 28.5961 0.698514C28.5961 0.765696 28.5829 0.832878 28.5696 0.913369C28.5563 0.994023 28.5299 1.10145 28.4769 1.24928L25.2848 11.6315C25.2054 11.9003 25.1127 12.0749 25.0066 12.1553C24.9007 12.236 24.7285 12.2897 24.5035 12.2897H23.3644C23.1127 12.2897 22.9405 12.2495 22.8344 12.1553C22.7285 12.0614 22.6358 11.8868 22.5829 11.6182L20.5297 2.95496L18.49 11.6046C18.424 11.8733 18.3444 12.048 18.2385 12.1419C18.1326 12.236 17.9471 12.2763 17.7088 12.2763H16.5697ZM33.5896 12.6389C32.9008 12.6389 32.2121 12.5583 31.5499 12.3972C30.8875 12.236 30.3711 12.0612 30.0268 11.86C29.8148 11.739 29.6689 11.6047 29.6161 11.4838C29.5646 11.3653 29.5375 11.2373 29.5366 11.1077V10.4227C29.5366 10.1407 29.6426 10.0063 29.8413 10.0063C29.9224 10.0066 30.0029 10.0203 30.0797 10.0467C30.1591 10.0736 30.2783 10.1272 30.4108 10.1809C30.8786 10.3896 31.367 10.5472 31.8677 10.651C32.3865 10.7578 32.9146 10.8118 33.444 10.8122C34.2783 10.8122 34.9274 10.6646 35.3777 10.369C35.828 10.0735 36.0664 9.64383 36.0664 9.09304C36.0664 8.71704 35.9472 8.40807 35.7088 8.1528C35.4704 7.89771 35.02 7.6694 34.3711 7.45437L32.4505 6.85007C31.4837 6.5411 30.7685 6.08444 30.3313 5.47997C29.8943 4.88897 29.6691 4.23094 29.6691 3.5325C29.6691 2.96843 29.7883 2.47138 30.0268 2.04151C30.2651 1.61181 30.583 1.23581 30.9804 0.940308C31.3777 0.631332 31.828 0.403013 32.3578 0.241872C32.8875 0.0807317 33.4438 0.0135498 34.0266 0.0135498C34.318 0.0135498 34.6227 0.0270178 34.9141 0.0672632C35.2188 0.107509 35.4969 0.161223 35.7751 0.214936C36.0399 0.282118 36.2916 0.3493 36.53 0.429949C36.7685 0.51044 36.9538 0.59109 37.0863 0.671581C37.2718 0.779169 37.4041 0.886593 37.4837 1.00749C37.5632 1.11491 37.6029 1.26259 37.6029 1.45067V2.08192C37.6029 2.36396 37.4969 2.51179 37.2981 2.51179C37.1923 2.51179 37.02 2.45791 36.7951 2.35049C36.0399 2.00127 35.1922 1.82666 34.2519 1.82666C33.4969 1.82666 32.9008 1.94756 32.4902 2.20282C32.0797 2.45791 31.8677 2.84754 31.8677 3.39814C31.8677 3.7743 32.0002 4.09657 32.2651 4.35184C32.53 4.60693 33.02 4.86219 33.7221 5.09051L35.6029 5.69499C36.5564 6.00396 37.2452 6.43365 37.6558 6.98425C38.0664 7.53504 38.2652 8.16631 38.2652 8.86474C38.2652 9.44225 38.1458 9.96607 37.9207 10.4227C37.6824 10.8794 37.3644 11.2823 36.9538 11.6047C36.5432 11.9405 36.0532 12.1823 35.4837 12.3569C34.8875 12.545 34.2651 12.6389 33.5896 12.6389Z" fill="#17181C"/>
<path d="M36.093 19.1664C31.7355 22.4303 25.4043 24.1629 19.9606 24.1629C12.3314 24.1629 5.45736 21.302 0.265331 16.5473C-0.145293 16.1713 0.225488 15.6609 0.715485 15.9563C6.33141 19.2605 13.2586 21.2617 20.4243 21.2617C25.2586 21.2617 30.5698 20.241 35.4573 18.1457C36.1858 17.8098 36.8083 18.6293 36.093 19.1664ZM37.9076 17.0711C37.3514 16.3459 34.2255 16.7219 32.8083 16.8965C32.3844 16.9503 32.3181 16.5742 32.7024 16.2922C35.1924 14.5191 39.2852 15.0297 39.7619 15.6205C40.2387 16.225 39.6294 20.3752 37.2983 22.3631C36.9408 22.672 36.5964 22.5109 36.7553 22.108C37.285 20.7782 38.464 17.783 37.9076 17.0711Z" fill="#FF9900"/>
</g>
<defs>
<clipPath id="clip0_382_709">
<rect width="40" height="24.2424" fill="white"/>
</clipPath>
</defs>
</svg>
