<svg width="66" height="40" viewBox="0 0 66 40" fill="none" xmlns="http://www.w3.org/2000/svg">
<g clip-path="url(#clip0_247_285)">
<path d="M18.6633 14.4938C18.6633 15.3139 18.751 15.9788 18.9039 16.4664C19.098 17.0149 19.3317 17.5482 19.6031 18.0619C19.7124 18.2392 19.756 18.4164 19.756 18.5717C19.756 18.7932 19.625 19.0149 19.3409 19.2366L17.9642 20.1673C17.7675 20.3003 17.5707 20.3667 17.3957 20.3667C17.1773 20.3667 16.9587 20.2559 16.7401 20.0564C16.4456 19.7355 16.1822 19.3867 15.9535 19.0149C15.7349 18.6384 15.5162 18.2169 15.2759 17.7074C13.5713 19.7461 11.4294 20.7657 8.85075 20.7657C7.01512 20.7657 5.55075 20.2337 4.47979 19.1701C3.4091 18.1061 2.86279 16.6878 2.86279 14.915C2.86279 13.0313 3.51841 11.5022 4.85156 10.3498C6.18445 9.19736 7.95485 8.62115 10.2058 8.62115C10.9488 8.62115 11.7138 8.68755 12.5223 8.7984C13.331 8.90925 14.1614 9.08651 15.0357 9.28599V7.66821C15.0357 5.98376 14.6858 4.80939 14.0083 4.12233C13.3091 3.43527 12.1288 3.10272 10.4461 3.10272C9.68116 3.10272 8.89457 3.19161 8.08582 3.39109C7.27732 3.5903 6.49047 3.83422 5.72554 4.14455C5.37595 4.29958 5.11375 4.38821 4.96061 4.43265C4.80773 4.4771 4.69842 4.49906 4.61102 4.49906C4.30499 4.49906 4.15211 4.27736 4.15211 3.812V2.72599C4.15211 2.37148 4.19594 2.1056 4.30499 1.95056C4.41431 1.79527 4.61102 1.64024 4.91704 1.4852C5.68197 1.08625 6.59978 0.753702 7.67048 0.48782C8.74169 0.199716 9.87813 0.0669053 11.0801 0.0669053C13.6809 0.0669053 15.5822 0.665075 16.8061 1.86194C18.008 3.05854 18.62 4.87579 18.62 7.3137V14.4938H18.6633ZM9.79047 17.8624C10.5118 17.8624 11.2548 17.7296 12.0414 17.4635C12.8283 17.1976 13.5277 16.71 14.1176 16.0452C14.4675 15.6243 14.7296 15.1589 14.8606 14.6269C14.9918 14.0951 15.0792 13.4522 15.0792 12.6988V11.7681C14.4165 11.6045 13.7452 11.4787 13.0686 11.3913C12.3872 11.3036 11.7011 11.2591 11.0143 11.2583C9.54993 11.2583 8.47924 11.5464 7.75814 12.1448C7.03678 12.7432 6.68718 13.5853 6.68718 14.6933C6.68718 15.7349 6.94938 16.5105 7.49568 17.0426C8.02033 17.5966 8.78526 17.8624 9.79047 17.8624ZM27.3395 20.2559C26.9461 20.2559 26.6839 20.1895 26.5091 20.0342C26.3343 19.9014 26.1812 19.5911 26.0502 19.1701L20.9146 2.03919C20.7831 1.59579 20.7176 1.30769 20.7176 1.15265C20.7176 0.798147 20.8924 0.598408 21.2422 0.598408H23.3839C23.799 0.598408 24.0833 0.665075 24.2362 0.820108C24.411 0.95318 24.5423 1.2635 24.6732 1.68442L28.3447 16.3555L31.754 1.68442C31.8634 1.24128 31.9946 0.95318 32.1691 0.820108C32.3442 0.687297 32.6502 0.59867 33.0436 0.59867H34.7918C35.2069 0.59867 35.4913 0.665075 35.6658 0.820108C35.8409 0.95318 35.9938 1.2635 36.0812 1.68442L39.5343 16.5328L43.3149 1.68442C43.4458 1.24128 43.599 0.95318 43.7519 0.820108C43.9267 0.687297 44.2108 0.59867 44.6042 0.59867H46.6365C46.9864 0.59867 47.1831 0.775925 47.1831 1.15265C47.1831 1.2635 47.1612 1.37435 47.1393 1.50716C47.1173 1.64024 47.0738 1.81749 46.9864 2.06141L41.7193 19.1921C41.5883 19.6355 41.4354 19.9236 41.2604 20.0564C41.0856 20.1895 40.8015 20.2781 40.4302 20.2781H38.5508C38.1354 20.2781 37.8513 20.2117 37.6763 20.0564C37.5015 19.9014 37.3486 19.6133 37.2612 19.1701L33.8735 4.87579L30.508 19.1477C30.399 19.5911 30.2678 19.8792 30.093 20.0342C29.9182 20.1895 29.6121 20.2559 29.219 20.2559H27.3395ZM55.4223 20.8543C54.2858 20.8543 53.1494 20.7213 52.0568 20.4554C50.9639 20.1895 50.1118 19.9011 49.5436 19.5691C49.1938 19.3694 48.9532 19.1479 48.8661 18.9484C48.781 18.7528 48.7363 18.5416 48.7349 18.3278V17.1976C48.7349 16.7322 48.9097 16.5105 49.2376 16.5105C49.3714 16.511 49.5043 16.5336 49.631 16.5772C49.762 16.6216 49.9587 16.71 50.1773 16.7986C50.9492 17.1429 51.755 17.403 52.5812 17.5743C53.4372 17.7505 54.3085 17.8396 55.182 17.8402C56.5587 17.8402 57.6297 17.5966 58.3727 17.109C59.1157 16.6214 59.5091 15.9124 59.5091 15.0036C59.5091 14.3832 59.3124 13.8734 58.919 13.4522C58.5256 13.0313 57.7825 12.6546 56.7118 12.2998L53.5428 11.3027C51.9475 10.7929 50.7675 10.0394 50.0461 9.04206C49.325 8.0669 48.9535 6.98115 48.9535 5.82873C48.9535 4.89801 49.1502 4.07788 49.5436 3.3686C49.9368 2.65958 50.4614 2.03919 51.1171 1.55161C51.7727 1.0418 52.5157 0.665075 53.3899 0.399193C54.2639 0.133311 55.1817 0.0224609 56.1434 0.0224609C56.6242 0.0224609 57.1269 0.0446831 57.6077 0.111088C58.1105 0.177494 58.5694 0.266121 59.0283 0.354748C59.4653 0.465598 59.8806 0.576448 60.274 0.709519C60.6675 0.84233 60.9732 0.975402 61.1919 1.10821C61.4979 1.28573 61.7162 1.46298 61.8475 1.66246C61.9787 1.83971 62.0442 2.08337 62.0442 2.3937V3.43527C62.0442 3.90063 61.8694 4.14455 61.5414 4.14455C61.3667 4.14455 61.0825 4.05566 60.7113 3.87841C59.4653 3.3022 58.0666 3.01409 56.5151 3.01409C55.2694 3.01409 54.2858 3.21357 53.6083 3.63475C52.931 4.05566 52.5812 4.69854 52.5812 5.60703C52.5812 6.22769 52.7998 6.75945 53.2368 7.18063C53.674 7.60154 54.4825 8.02272 55.6409 8.39945L58.7442 9.39684C60.3176 9.90664 61.4541 10.6156 62.1316 11.5241C62.8091 12.4329 63.137 13.4745 63.137 14.6269C63.137 15.5798 62.9401 16.4441 62.5686 17.1976C62.1754 17.9511 61.6508 18.6159 60.9732 19.1479C60.2957 19.7019 59.4872 20.1009 58.5475 20.389C57.5639 20.6993 56.5368 20.8543 55.4223 20.8543Z" fill="white"/>
<path d="M59.5528 31.6247C52.3629 37.0101 41.9164 39.8689 32.9344 39.8689C20.3462 39.8689 9.00402 35.1484 0.437162 27.3031C-0.240369 26.6828 0.37142 25.8407 1.17992 26.328C10.4462 31.78 21.8761 35.082 33.6994 35.082C41.6761 35.082 50.4396 33.3978 58.504 29.9405C59.706 29.3863 60.7331 30.7384 59.5528 31.6247ZM62.547 28.1675C61.6292 26.9709 56.4714 27.5912 54.1331 27.8794C53.4336 27.9682 53.3243 27.3476 53.9583 26.8822C58.0668 23.9567 64.8199 24.7991 65.6065 25.774C66.3933 26.7714 65.3879 33.6192 61.5416 36.8992C60.9517 37.409 60.3835 37.1431 60.6457 36.4783C61.5197 34.2841 63.4649 29.3421 62.547 28.1675Z" fill="#FF9900"/>
</g>
<defs>
<clipPath id="clip0_247_285">
<rect width="66" height="40" fill="white"/>
</clipPath>
</defs>
</svg>
