<svg width="36" height="47" viewBox="0 0 36 47" fill="none" xmlns="http://www.w3.org/2000/svg">
<mask id="path-1-inside-1_382_278" fill="white">
<path d="M4.68023 14.1467V18.4587C4.68023 19.469 5.60183 20.073 6.48023 20.073H7.92023C8.01571 20.073 8.10728 20.0344 8.17479 19.9658C8.24231 19.8972 8.28023 19.804 8.28023 19.707C8.28023 19.6099 8.24231 19.5168 8.17479 19.4481C8.10728 19.3795 8.01571 19.3409 7.92023 19.3409H6.48023C5.94383 19.3409 5.40023 19.0115 5.40023 18.4587V14.2162H8.64023V16.7786C8.64023 16.8756 8.67816 16.9688 8.74568 17.0374C8.81319 17.106 8.90476 17.1446 9.00023 17.1446C9.09571 17.1446 9.18728 17.106 9.25479 17.0374C9.32231 16.9688 9.36023 16.8756 9.36023 16.7786V14.2162H11.405C11.8939 14.218 12.3648 14.0293 12.7211 13.6889C13.0773 13.3484 13.2917 12.8822 13.3202 12.386H17.3486C17.5737 12.3884 17.797 12.3457 18.0058 12.2604C18.2146 12.175 18.4048 12.0487 18.5656 11.8886C18.7264 11.7285 18.8546 11.5378 18.9429 11.3273C19.0312 11.1168 19.0779 10.8907 19.0802 10.6619V9.45755C19.0802 9.36047 19.0423 9.26736 18.9748 9.19872C18.9073 9.13007 18.8157 9.0915 18.7202 9.0915C18.6248 9.0915 18.5332 9.13007 18.4657 9.19872C18.3982 9.26736 18.3602 9.36047 18.3602 9.45755V10.6619C18.3579 10.7945 18.3299 10.9255 18.2778 11.0471C18.2256 11.1688 18.1505 11.2788 18.0565 11.3709C17.9626 11.4631 17.8517 11.5355 17.7303 11.584C17.6088 11.6325 17.4791 11.6563 17.3486 11.6539H13.3202V8.3594H15.8402C15.9357 8.3594 16.0273 8.32084 16.0948 8.25219C16.1623 8.18354 16.2002 8.09043 16.2002 7.99335C16.2002 7.89627 16.1623 7.80316 16.0948 7.73451C16.0273 7.66587 15.9357 7.6273 15.8402 7.6273H13.3202V5.91419C13.3193 5.398 13.1172 4.90324 12.7582 4.53824C12.3993 4.17325 11.9127 3.96776 11.405 3.9668H5.15543C4.64778 3.96776 4.1612 4.17325 3.80223 4.53824C3.44327 4.90324 3.24119 5.398 3.24023 5.91419V12.2688C3.24212 12.6997 3.3845 13.1178 3.64508 13.4576C3.90565 13.7974 4.26971 14.0397 4.68023 14.1467ZM3.96023 5.91419C3.96023 5.59187 4.08616 5.28276 4.3103 5.05485C4.53444 4.82694 4.83845 4.6989 5.15543 4.6989H11.405C11.722 4.6989 12.026 4.82694 12.2502 5.05485C12.4743 5.28276 12.6002 5.59187 12.6002 5.91419V12.2688C12.6002 12.5911 12.4743 12.9002 12.2502 13.1282C12.026 13.3561 11.722 13.4841 11.405 13.4841H5.15543C4.83845 13.4841 4.53444 13.3561 4.3103 13.1282C4.08616 12.9002 3.96023 12.5911 3.96023 12.2688V5.91419Z"/>
</mask>
<path d="M4.68023 14.1467V18.4587C4.68023 19.469 5.60183 20.073 6.48023 20.073H7.92023C8.01571 20.073 8.10728 20.0344 8.17479 19.9658C8.24231 19.8972 8.28023 19.804 8.28023 19.707C8.28023 19.6099 8.24231 19.5168 8.17479 19.4481C8.10728 19.3795 8.01571 19.3409 7.92023 19.3409H6.48023C5.94383 19.3409 5.40023 19.0115 5.40023 18.4587V14.2162H8.64023V16.7786C8.64023 16.8756 8.67816 16.9688 8.74568 17.0374C8.81319 17.106 8.90476 17.1446 9.00023 17.1446C9.09571 17.1446 9.18728 17.106 9.25479 17.0374C9.32231 16.9688 9.36023 16.8756 9.36023 16.7786V14.2162H11.405C11.8939 14.218 12.3648 14.0293 12.7211 13.6889C13.0773 13.3484 13.2917 12.8822 13.3202 12.386H17.3486C17.5737 12.3884 17.797 12.3457 18.0058 12.2604C18.2146 12.175 18.4048 12.0487 18.5656 11.8886C18.7264 11.7285 18.8546 11.5378 18.9429 11.3273C19.0312 11.1168 19.0779 10.8907 19.0802 10.6619V9.45755C19.0802 9.36047 19.0423 9.26736 18.9748 9.19872C18.9073 9.13007 18.8157 9.0915 18.7202 9.0915C18.6248 9.0915 18.5332 9.13007 18.4657 9.19872C18.3982 9.26736 18.3602 9.36047 18.3602 9.45755V10.6619C18.3579 10.7945 18.3299 10.9255 18.2778 11.0471C18.2256 11.1688 18.1505 11.2788 18.0565 11.3709C17.9626 11.4631 17.8517 11.5355 17.7303 11.584C17.6088 11.6325 17.4791 11.6563 17.3486 11.6539H13.3202V8.3594H15.8402C15.9357 8.3594 16.0273 8.32084 16.0948 8.25219C16.1623 8.18354 16.2002 8.09043 16.2002 7.99335C16.2002 7.89627 16.1623 7.80316 16.0948 7.73451C16.0273 7.66587 15.9357 7.6273 15.8402 7.6273H13.3202V5.91419C13.3193 5.398 13.1172 4.90324 12.7582 4.53824C12.3993 4.17325 11.9127 3.96776 11.405 3.9668H5.15543C4.64778 3.96776 4.1612 4.17325 3.80223 4.53824C3.44327 4.90324 3.24119 5.398 3.24023 5.91419V12.2688C3.24212 12.6997 3.3845 13.1178 3.64508 13.4576C3.90565 13.7974 4.26971 14.0397 4.68023 14.1467ZM3.96023 5.91419C3.96023 5.59187 4.08616 5.28276 4.3103 5.05485C4.53444 4.82694 4.83845 4.6989 5.15543 4.6989H11.405C11.722 4.6989 12.026 4.82694 12.2502 5.05485C12.4743 5.28276 12.6002 5.59187 12.6002 5.91419V12.2688C12.6002 12.5911 12.4743 12.9002 12.2502 13.1282C12.026 13.3561 11.722 13.4841 11.405 13.4841H5.15543C4.83845 13.4841 4.53444 13.3561 4.3103 13.1282C4.08616 12.9002 3.96023 12.5911 3.96023 12.2688V5.91419Z" fill="#0174F3"/>
<path d="M4.68023 14.1467H6.68023V12.6008L5.18427 12.2112L4.68023 14.1467ZM5.40023 14.2162V12.2162H3.40023V14.2162H5.40023ZM8.64023 14.2162H10.6402V12.2162H8.64023V14.2162ZM9.36023 14.2162V12.2162H7.36023V14.2162H9.36023ZM11.405 14.2162L11.4123 12.2162H11.405V14.2162ZM13.3202 12.386V10.386H11.4319L11.3235 12.2711L13.3202 12.386ZM17.3486 12.386L17.3701 10.3861L17.3594 10.386H17.3486V12.386ZM19.0802 10.6619L21.0801 10.6824L21.0802 10.6721V10.6619H19.0802ZM18.3602 10.6619L20.3599 10.6972L20.3602 10.6795V10.6619H18.3602ZM17.3486 11.6539L17.3858 9.6542L17.3672 9.65386H17.3486V11.6539ZM13.3202 11.6539H11.3202V13.6539H13.3202V11.6539ZM13.3202 8.3594V6.3594H11.3202V8.3594H13.3202ZM13.3202 7.6273H11.3202V9.6273H13.3202V7.6273ZM13.3202 5.91419H15.3202L15.3202 5.9105L13.3202 5.91419ZM11.405 3.9668L11.4088 1.9668H11.405V3.9668ZM5.15543 3.9668V1.96679L5.15162 1.9668L5.15543 3.9668ZM3.24023 5.91419L1.24023 5.9105V5.91419H3.24023ZM3.24023 12.2688H1.24022L1.24025 12.2776L3.24023 12.2688ZM3.96023 12.2688H1.96023H3.96023ZM2.68023 14.1467V18.4587H6.68023V14.1467H2.68023ZM2.68023 18.4587C2.68023 20.9365 4.89897 22.073 6.48023 22.073V18.073C6.48673 18.073 6.48464 18.0736 6.48056 18.0722C6.47651 18.0708 6.48934 18.074 6.51441 18.0945C6.54116 18.1163 6.58593 18.1616 6.62401 18.2372C6.66451 18.3175 6.68023 18.3986 6.68023 18.4587H2.68023ZM6.48023 22.073H7.92023V18.073H6.48023V22.073ZM7.92023 22.073C8.557 22.073 9.16082 21.8155 9.60074 21.3682L6.74884 18.5634C7.05374 18.2534 7.47443 18.073 7.92023 18.073V22.073ZM9.60074 21.3682C10.0396 20.922 10.2802 20.3238 10.2802 19.707H6.28023C6.28023 19.2843 6.44506 18.8723 6.74884 18.5634L9.60074 21.3682ZM10.2802 19.707C10.2802 19.0901 10.0396 18.4919 9.60074 18.0457L6.74884 20.8505C6.44506 20.5416 6.28023 20.1297 6.28023 19.707H10.2802ZM9.60074 18.0457C9.16082 17.5984 8.557 17.3409 7.92023 17.3409V21.3409C7.47443 21.3409 7.05374 21.1605 6.74884 20.8505L9.60074 18.0457ZM7.92023 17.3409H6.48023V21.3409H7.92023V17.3409ZM6.48023 17.3409C6.59269 17.3409 6.75434 17.3692 6.93524 17.5042C7.15105 17.6653 7.40023 18.0026 7.40023 18.4587H3.40023C3.40023 19.4676 3.92122 20.246 4.54293 20.71C5.12973 21.1479 5.83138 21.3409 6.48023 21.3409V17.3409ZM7.40023 18.4587V14.2162H3.40023V18.4587H7.40023ZM5.40023 16.2162H8.64023V12.2162H5.40023V16.2162ZM6.64023 14.2162V16.7786H10.6402V14.2162H6.64023ZM6.64023 16.7786C6.64023 17.3954 6.88091 17.9936 7.31973 18.4398L10.1716 15.635C10.4754 15.9439 10.6402 16.3559 10.6402 16.7786H6.64023ZM7.31973 18.4398C7.75965 18.8871 8.36347 19.1446 9.00023 19.1446V15.1446C9.44604 15.1446 9.86673 15.325 10.1716 15.635L7.31973 18.4398ZM9.00023 19.1446C9.637 19.1446 10.2408 18.8871 10.6807 18.4398L7.82884 15.635C8.13374 15.325 8.55443 15.1446 9.00023 15.1446V19.1446ZM10.6807 18.4398C11.1196 17.9936 11.3602 17.3954 11.3602 16.7786H7.36023C7.36023 16.3559 7.52506 15.9439 7.82884 15.635L10.6807 18.4398ZM11.3602 16.7786V14.2162H7.36023V16.7786H11.3602ZM9.36023 16.2162H11.405V12.2162H9.36023V16.2162ZM11.3977 16.2162C12.4084 16.2199 13.376 15.8294 14.1028 15.1348L11.3393 12.2429C11.3537 12.2292 11.3794 12.2161 11.4123 12.2162L11.3977 16.2162ZM14.1028 15.1348C14.8287 14.4411 15.2596 13.4976 15.3169 12.5008L11.3235 12.2711C11.3238 12.2667 11.3259 12.2558 11.3393 12.2429L14.1028 15.1348ZM13.3202 14.386H17.3486V10.386H13.3202V14.386ZM17.3272 14.3858C17.8195 14.3911 18.3073 14.2977 18.7624 14.1117L17.2492 10.409C17.2866 10.3937 17.3278 10.3856 17.3701 10.3861L17.3272 14.3858ZM18.7624 14.1117C19.2174 13.9258 19.6298 13.6514 19.9768 13.3059L17.1545 10.4713C17.1799 10.446 17.2118 10.4243 17.2492 10.409L18.7624 14.1117ZM19.9768 13.3059C20.3237 12.9604 20.5986 12.5507 20.7872 12.1009L17.0986 10.5536C17.1107 10.5248 17.1292 10.4965 17.1545 10.4713L19.9768 13.3059ZM20.7872 12.1009C20.9759 11.6512 21.0751 11.1693 21.0801 10.6824L17.0803 10.6413C17.0806 10.6121 17.0866 10.5823 17.0986 10.5536L20.7872 12.1009ZM21.0802 10.6619V9.45755H17.0802V10.6619H21.0802ZM21.0802 9.45755C21.0802 8.8407 20.8396 8.24253 20.4007 7.79634L17.5488 10.6011C17.2451 10.2922 17.0802 9.88024 17.0802 9.45755H21.0802ZM20.4007 7.79634C19.9608 7.34902 19.357 7.0915 18.7202 7.0915V11.0915C18.2744 11.0915 17.8537 10.9111 17.5488 10.6011L20.4007 7.79634ZM18.7202 7.0915C18.0835 7.0915 17.4797 7.34902 17.0397 7.79634L19.8916 10.6011C19.5867 10.9111 19.166 11.0915 18.7202 11.0915V7.0915ZM17.0397 7.79634C16.6009 8.24253 16.3602 8.8407 16.3602 9.45755H20.3602C20.3602 9.88024 20.1954 10.2922 19.8916 10.6011L17.0397 7.79634ZM16.3602 9.45755V10.6619H20.3602V9.45755H16.3602ZM16.3605 10.6266C16.3628 10.5012 16.3892 10.3766 16.4393 10.2597L20.1162 11.8345C20.2705 11.4743 20.353 11.0879 20.3599 10.6972L16.3605 10.6266ZM16.4393 10.2597C16.4894 10.1428 16.5625 10.0348 16.6562 9.94296L19.4568 12.7989C19.7384 12.5228 19.9619 12.1948 20.1162 11.8345L16.4393 10.2597ZM16.6562 9.94296C16.75 9.85102 16.8624 9.77702 16.988 9.72683L18.4725 13.4412C18.841 13.2939 19.1752 13.0751 19.4568 12.7989L16.6562 9.94296ZM16.988 9.72683C17.1137 9.67661 17.249 9.65166 17.3858 9.6542L17.3115 13.6535C17.7093 13.6609 18.1039 13.5885 18.4725 13.4412L16.988 9.72683ZM17.3486 9.65386H13.3202V13.6539H17.3486V9.65386ZM15.3202 11.6539V8.3594H11.3202V11.6539H15.3202ZM13.3202 10.3594H15.8402V6.3594H13.3202V10.3594ZM15.8402 10.3594C16.477 10.3594 17.0808 10.1019 17.5207 9.65457L14.6688 6.84981C14.9737 6.53979 15.3944 6.3594 15.8402 6.3594V10.3594ZM17.5207 9.65457C17.9596 9.20838 18.2002 8.61021 18.2002 7.99335H14.2002C14.2002 7.57066 14.3651 7.1587 14.6688 6.84981L17.5207 9.65457ZM18.2002 7.99335C18.2002 7.3765 17.9596 6.77832 17.5207 6.33213L14.6688 9.13689C14.3651 8.828 14.2002 8.41604 14.2002 7.99335H18.2002ZM17.5207 6.33213C17.0808 5.88482 16.477 5.6273 15.8402 5.6273V9.6273C15.3944 9.6273 14.9737 9.44692 14.6688 9.13689L17.5207 6.33213ZM15.8402 5.6273H13.3202V9.6273H15.8402V5.6273ZM15.3202 7.6273V5.91419H11.3202V7.6273H15.3202ZM15.3202 5.9105C15.3183 4.8758 14.9135 3.87748 14.1842 3.13586L11.3323 5.94062C11.3264 5.93459 11.3234 5.92915 11.322 5.92576C11.3206 5.9224 11.3202 5.91972 11.3202 5.91787L15.3202 5.9105ZM14.1842 3.13586C13.4537 2.39313 12.4564 1.9688 11.4088 1.9668L11.4012 5.96679C11.3689 5.96673 11.3448 5.95336 11.3323 5.94062L14.1842 3.13586ZM11.405 1.9668H5.15543V5.9668H11.405V1.9668ZM5.15162 1.9668C4.10402 1.9688 3.10674 2.39313 2.37629 3.13586L5.22818 5.94062C5.21566 5.95336 5.19155 5.96673 5.15925 5.96679L5.15162 1.9668ZM2.37629 3.13586C1.64693 3.87748 1.24215 4.8758 1.24024 5.9105L5.24023 5.91787C5.24023 5.91972 5.23986 5.9224 5.23849 5.92576C5.23711 5.92915 5.23412 5.93459 5.22818 5.94062L2.37629 3.13586ZM1.24023 5.91419V12.2688H5.24023V5.91419H1.24023ZM1.24025 12.2776C1.24404 13.1426 1.52966 13.9857 2.058 14.6746L5.23216 12.2406C5.2359 12.2455 5.23787 12.2497 5.23887 12.2526C5.23987 12.2556 5.24021 12.2581 5.24022 12.2601L1.24025 12.2776ZM2.058 14.6746C2.58677 15.3642 3.33036 15.8618 4.1762 16.0821L5.18427 12.2112C5.20906 12.2177 5.22454 12.2306 5.23216 12.2406L2.058 14.6746ZM5.96023 5.91419C5.96023 6.11165 5.8834 6.3076 5.73625 6.45723L2.88435 3.65247C2.28891 4.25791 1.96023 5.07209 1.96023 5.91419H5.96023ZM5.73625 6.45723C5.58799 6.60798 5.37974 6.6989 5.15543 6.6989V2.6989C4.29716 2.6989 3.4809 3.04589 2.88435 3.65247L5.73625 6.45723ZM5.15543 6.6989H11.405V2.6989H5.15543V6.6989ZM11.405 6.6989C11.1807 6.6989 10.9725 6.60798 10.8242 6.45723L13.6761 3.65247C13.0796 3.04589 12.2633 2.6989 11.405 2.6989V6.6989ZM10.8242 6.45723C10.6771 6.3076 10.6002 6.11165 10.6002 5.91419H14.6002C14.6002 5.0721 14.2716 4.25792 13.6761 3.65247L10.8242 6.45723ZM10.6002 5.91419V12.2688H14.6002V5.91419H10.6002ZM10.6002 12.2688C10.6002 12.0714 10.6771 11.8754 10.8242 11.7258L13.6761 14.5305C14.2716 13.9251 14.6002 13.1109 14.6002 12.2688H10.6002ZM10.8242 11.7258C10.9725 11.575 11.1807 11.4841 11.405 11.4841V15.4841C12.2633 15.4841 13.0796 15.1371 13.6761 14.5305L10.8242 11.7258ZM11.405 11.4841H5.15543V15.4841H11.405V11.4841ZM5.15543 11.4841C5.37974 11.4841 5.58798 11.575 5.73625 11.7258L2.88435 14.5305C3.4809 15.1371 4.29716 15.4841 5.15543 15.4841V11.4841ZM5.73625 11.7258C5.8834 11.8754 5.96023 12.0714 5.96023 12.2688H1.96023C1.96023 13.1109 2.28891 13.9251 2.88435 14.5305L5.73625 11.7258ZM5.96023 12.2688V5.91419H1.96023V12.2688H5.96023Z" fill="#0174F3" mask="url(#path-1-inside-1_382_278)"/>
<mask id="path-3-inside-2_382_278" fill="white">
<path d="M30.8444 3.96681H24.5948C24.1059 3.96503 23.635 4.15374 23.2787 4.49416C22.9225 4.83459 22.7081 5.30084 22.6796 5.79706H18.4388C17.5172 5.79706 16.5596 6.39006 16.5596 7.38206V8.72546C16.5596 8.82255 16.5975 8.91565 16.665 8.9843C16.7325 9.05295 16.8241 9.09152 16.9196 9.09152C17.015 9.09152 17.1066 9.05295 17.1741 8.9843C17.2416 8.91565 17.2796 8.82255 17.2796 8.72546V7.38206C17.2796 6.85495 17.8808 6.52916 18.4388 6.52916H22.6796V9.82362H19.7996C19.7041 9.82362 19.6125 9.86218 19.545 9.93083C19.4775 9.99948 19.4396 10.0926 19.4396 10.1897C19.4396 10.2867 19.4775 10.3799 19.545 10.4485C19.6125 10.5172 19.7041 10.5557 19.7996 10.5557H22.6796V12.2688C22.6778 12.7659 22.8634 13.2448 23.1982 13.607C23.533 13.9692 23.9915 14.1872 24.4796 14.2162V18.499C24.4704 18.712 24.5056 18.9245 24.583 19.1226C24.6603 19.3208 24.7779 19.5 24.9282 19.6487C25.0785 19.7973 25.2579 19.912 25.4548 19.9851C25.6518 20.0582 25.8617 20.0882 26.0708 20.073H27.3596C27.455 20.073 27.5466 20.0345 27.6141 19.9658C27.6816 19.8972 27.7196 19.8041 27.7196 19.707C27.7196 19.6099 27.6816 19.5168 27.6141 19.4481C27.5466 19.3795 27.455 19.3409 27.3596 19.3409H26.0708C25.9566 19.356 25.8405 19.345 25.731 19.3086C25.6216 19.2723 25.5215 19.2116 25.438 19.1309C25.3545 19.0503 25.2898 18.9517 25.2486 18.8424C25.2073 18.733 25.1906 18.6157 25.1996 18.499V14.2162H28.4396V16.7786C28.4396 16.8757 28.4775 16.9688 28.545 17.0374C28.6125 17.1061 28.7041 17.1446 28.7996 17.1446C28.895 17.1446 28.9866 17.1061 29.0541 17.0374C29.1216 16.9688 29.1596 16.8757 29.1596 16.7786V14.2162H30.8444C31.352 14.2153 31.8386 14.0098 32.1976 13.6448C32.5565 13.2798 32.7586 12.785 32.7596 12.2688V5.9142C32.7586 5.39802 32.5565 4.90325 32.1976 4.53825C31.8386 4.17326 31.352 3.96778 30.8444 3.96681ZM32.0396 12.2688C32.0396 12.5911 31.9136 12.9003 31.6895 13.1282C31.4654 13.3561 31.1614 13.4841 30.8444 13.4841H24.5948C24.2778 13.4841 23.9738 13.3561 23.7496 13.1282C23.5255 12.9003 23.3996 12.5911 23.3996 12.2688V5.9142C23.3996 5.59188 23.5255 5.28277 23.7496 5.05486C23.9738 4.82695 24.2778 4.69891 24.5948 4.69891H30.8444C31.1614 4.69891 31.4654 4.82695 31.6895 5.05486C31.9136 5.28277 32.0396 5.59188 32.0396 5.9142V12.2688Z"/>
</mask>
<path d="M30.8444 3.96681H24.5948C24.1059 3.96503 23.635 4.15374 23.2787 4.49416C22.9225 4.83459 22.7081 5.30084 22.6796 5.79706H18.4388C17.5172 5.79706 16.5596 6.39006 16.5596 7.38206V8.72546C16.5596 8.82255 16.5975 8.91565 16.665 8.9843C16.7325 9.05295 16.8241 9.09152 16.9196 9.09152C17.015 9.09152 17.1066 9.05295 17.1741 8.9843C17.2416 8.91565 17.2796 8.82255 17.2796 8.72546V7.38206C17.2796 6.85495 17.8808 6.52916 18.4388 6.52916H22.6796V9.82362H19.7996C19.7041 9.82362 19.6125 9.86218 19.545 9.93083C19.4775 9.99948 19.4396 10.0926 19.4396 10.1897C19.4396 10.2867 19.4775 10.3799 19.545 10.4485C19.6125 10.5172 19.7041 10.5557 19.7996 10.5557H22.6796V12.2688C22.6778 12.7659 22.8634 13.2448 23.1982 13.607C23.533 13.9692 23.9915 14.1872 24.4796 14.2162V18.499C24.4704 18.712 24.5056 18.9245 24.583 19.1226C24.6603 19.3208 24.7779 19.5 24.9282 19.6487C25.0785 19.7973 25.2579 19.912 25.4548 19.9851C25.6518 20.0582 25.8617 20.0882 26.0708 20.073H27.3596C27.455 20.073 27.5466 20.0345 27.6141 19.9658C27.6816 19.8972 27.7196 19.8041 27.7196 19.707C27.7196 19.6099 27.6816 19.5168 27.6141 19.4481C27.5466 19.3795 27.455 19.3409 27.3596 19.3409H26.0708C25.9566 19.356 25.8405 19.345 25.731 19.3086C25.6216 19.2723 25.5215 19.2116 25.438 19.1309C25.3545 19.0503 25.2898 18.9517 25.2486 18.8424C25.2073 18.733 25.1906 18.6157 25.1996 18.499V14.2162H28.4396V16.7786C28.4396 16.8757 28.4775 16.9688 28.545 17.0374C28.6125 17.1061 28.7041 17.1446 28.7996 17.1446C28.895 17.1446 28.9866 17.1061 29.0541 17.0374C29.1216 16.9688 29.1596 16.8757 29.1596 16.7786V14.2162H30.8444C31.352 14.2153 31.8386 14.0098 32.1976 13.6448C32.5565 13.2798 32.7586 12.785 32.7596 12.2688V5.9142C32.7586 5.39802 32.5565 4.90325 32.1976 4.53825C31.8386 4.17326 31.352 3.96778 30.8444 3.96681ZM32.0396 12.2688C32.0396 12.5911 31.9136 12.9003 31.6895 13.1282C31.4654 13.3561 31.1614 13.4841 30.8444 13.4841H24.5948C24.2778 13.4841 23.9738 13.3561 23.7496 13.1282C23.5255 12.9003 23.3996 12.5911 23.3996 12.2688V5.9142C23.3996 5.59188 23.5255 5.28277 23.7496 5.05486C23.9738 4.82695 24.2778 4.69891 24.5948 4.69891H30.8444C31.1614 4.69891 31.4654 4.82695 31.6895 5.05486C31.9136 5.28277 32.0396 5.59188 32.0396 5.9142V12.2688Z" fill="#0174F3"/>
<path d="M30.8444 3.96681L30.8482 1.96681H30.8444V3.96681ZM24.5948 3.96681L24.5875 5.96681H24.5948V3.96681ZM22.6796 5.79706V7.79706H24.5679L24.6763 5.91189L22.6796 5.79706ZM22.6796 6.52916H24.6796V4.52916H22.6796V6.52916ZM22.6796 9.82362V11.8236H24.6796V9.82362H22.6796ZM22.6796 10.5557H24.6796V8.55572H22.6796V10.5557ZM22.6796 12.2688L24.6796 12.2759V12.2688H22.6796ZM24.4796 14.2162H26.4796V12.3316L24.5983 12.2197L24.4796 14.2162ZM24.4796 18.499L26.4777 18.585L26.4796 18.542V18.499H24.4796ZM26.0708 20.073V18.073H25.9983L25.926 18.0783L26.0708 20.073ZM26.0708 19.3409V17.3409H25.9394L25.8093 17.3581L26.0708 19.3409ZM25.1996 18.499L27.1937 18.6526L27.1996 18.5759V18.499H25.1996ZM25.1996 14.2162V12.2162H23.1996V14.2162H25.1996ZM28.4396 14.2162H30.4396V12.2162H28.4396V14.2162ZM29.1596 14.2162V12.2162H27.1596V14.2162H29.1596ZM30.8444 14.2162V16.2162L30.8482 16.2162L30.8444 14.2162ZM32.7596 12.2688L34.7596 12.2725V12.2688H32.7596ZM32.7596 5.9142H34.7596L34.7596 5.91051L32.7596 5.9142ZM23.3996 12.2688H21.3996H23.3996ZM32.0396 5.9142H34.0396H32.0396ZM30.8444 1.96681H24.5948V5.96681H30.8444V1.96681ZM24.6021 1.96682C23.5914 1.96314 22.6238 2.35362 21.897 3.04825L24.6605 5.94008C24.6461 5.95387 24.6204 5.96692 24.5875 5.9668L24.6021 1.96682ZM21.897 3.04825C21.1711 3.74192 20.7402 4.6854 20.6829 5.68224L24.6763 5.91189C24.676 5.91628 24.674 5.92725 24.6605 5.94008L21.897 3.04825ZM22.6796 3.79706H18.4388V7.79706H22.6796V3.79706ZM18.4388 3.79706C17.5777 3.79706 16.6702 4.06721 15.9356 4.63119C15.167 5.22131 14.5596 6.1712 14.5596 7.38206H18.5596C18.5596 7.46655 18.5366 7.56661 18.4878 7.65796C18.4425 7.74293 18.3927 7.78771 18.3715 7.80393C18.3519 7.81904 18.3505 7.81507 18.3729 7.8078C18.3949 7.80068 18.4196 7.79706 18.4388 7.79706V3.79706ZM14.5596 7.38206V8.72546H18.5596V7.38206H14.5596ZM14.5596 8.72546C14.5596 9.34232 14.8002 9.94049 15.2391 10.3867L18.091 7.58192C18.3947 7.89082 18.5596 8.30278 18.5596 8.72546H14.5596ZM15.2391 10.3867C15.679 10.834 16.2828 11.0915 16.9196 11.0915V7.09152C17.3654 7.09152 17.7861 7.2719 18.091 7.58192L15.2391 10.3867ZM16.9196 11.0915C17.5563 11.0915 18.1602 10.834 18.6001 10.3867L15.7482 7.58192C16.0531 7.2719 16.4738 7.09152 16.9196 7.09152V11.0915ZM18.6001 10.3867C19.0389 9.94049 19.2796 9.34232 19.2796 8.72546H15.2796C15.2796 8.30278 15.4444 7.89082 15.7482 7.58192L18.6001 10.3867ZM19.2796 8.72546V7.38206H15.2796V8.72546H19.2796ZM19.2796 7.38206C19.2796 7.97254 18.9215 8.31348 18.7626 8.41983C18.6197 8.51554 18.5133 8.52916 18.4388 8.52916V4.52916C17.8063 4.52916 17.1202 4.70568 16.5372 5.09606C15.9383 5.49708 15.2796 6.26446 15.2796 7.38206H19.2796ZM18.4388 8.52916H22.6796V4.52916H18.4388V8.52916ZM20.6796 6.52916V9.82362H24.6796V6.52916H20.6796ZM22.6796 7.82362H19.7996V11.8236H22.6796V7.82362ZM19.7996 7.82362C19.1628 7.82362 18.559 8.08113 18.1191 8.52845L20.971 11.3332C20.6661 11.6432 20.2454 11.8236 19.7996 11.8236V7.82362ZM18.1191 8.52845C17.6802 8.97464 17.4396 9.57281 17.4396 10.1897H21.4396C21.4396 10.6124 21.2747 11.0243 20.971 11.3332L18.1191 8.52845ZM17.4396 10.1897C17.4396 10.8065 17.6802 11.4047 18.1191 11.8509L20.971 9.04612C21.2747 9.35502 21.4396 9.76698 21.4396 10.1897H17.4396ZM18.1191 11.8509C18.559 12.2982 19.1628 12.5557 19.7996 12.5557V8.55572C20.2454 8.55572 20.6661 8.7361 20.971 9.04612L18.1191 11.8509ZM19.7996 12.5557H22.6796V8.55572H19.7996V12.5557ZM20.6796 10.5557V12.2688H24.6796V10.5557H20.6796ZM20.6796 12.2618C20.6761 13.2601 21.0485 14.2278 21.7295 14.9645L24.6669 12.2494C24.6728 12.2558 24.676 12.2617 24.6775 12.2657C24.6791 12.2697 24.6796 12.2732 24.6796 12.2759L20.6796 12.2618ZM21.7295 14.9645C22.4114 15.7023 23.3521 16.1527 24.3609 16.2127L24.5983 12.2197C24.631 12.2217 24.6546 12.2361 24.6669 12.2494L21.7295 14.9645ZM22.4796 14.2162V18.499H26.4796V14.2162H22.4796ZM22.4814 18.4131C22.4604 18.9028 22.5413 19.3923 22.7198 19.8497L26.4461 18.3956C26.47 18.4567 26.4805 18.5211 26.4777 18.585L22.4814 18.4131ZM22.7198 19.8497C22.8983 20.3072 23.1709 20.7236 23.5217 21.0705L26.3347 18.2268C26.3849 18.2765 26.4222 18.3344 26.4461 18.3956L22.7198 19.8497ZM23.5217 21.0705C23.8725 21.4176 24.2937 21.6873 24.7585 21.86L26.1512 18.1102C26.2222 18.1366 26.2844 18.177 26.3347 18.2268L23.5217 21.0705ZM24.7585 21.86C25.2234 22.0326 25.7201 22.1037 26.2155 22.0678L25.926 18.0783C26.0032 18.0727 26.0801 18.0838 26.1512 18.1102L24.7585 21.86ZM26.0708 22.073H27.3596V18.073H26.0708V22.073ZM27.3596 22.073C27.9963 22.073 28.6002 21.8155 29.0401 21.3682L26.1882 18.5634C26.4931 18.2534 26.9138 18.073 27.3596 18.073V22.073ZM29.0401 21.3682C29.4789 20.922 29.7196 20.3238 29.7196 19.707H25.7196C25.7196 19.2843 25.8844 18.8723 26.1882 18.5634L29.0401 21.3682ZM29.7196 19.707C29.7196 19.0901 29.4789 18.4919 29.0401 18.0458L26.1882 20.8505C25.8844 20.5416 25.7196 20.1297 25.7196 19.707H29.7196ZM29.0401 18.0458C28.6002 17.5984 27.9963 17.3409 27.3596 17.3409V21.3409C26.9138 21.3409 26.4931 21.1605 26.1882 20.8505L29.0401 18.0458ZM27.3596 17.3409H26.0708V21.3409H27.3596V17.3409ZM25.8093 17.3581C25.9952 17.3336 26.1839 17.3517 26.361 17.4104L25.1011 21.2068C25.4971 21.3382 25.9179 21.3784 26.3323 21.3238L25.8093 17.3581ZM26.361 17.4104C26.538 17.4692 26.6971 17.5664 26.8278 17.6927L24.0482 20.5691C24.3458 20.8567 24.7052 21.0754 25.1011 21.2068L26.361 17.4104ZM26.8278 17.6927C26.9584 17.819 27.0574 17.9709 27.1198 18.1363L23.3773 19.5484C23.5222 19.9324 23.7506 20.2816 24.0482 20.5691L26.8278 17.6927ZM27.1198 18.1363C27.1822 18.3017 27.2071 18.4779 27.1937 18.6526L23.2055 18.3454C23.174 18.7536 23.2325 19.1644 23.3773 19.5484L27.1198 18.1363ZM27.1996 18.499V14.2162H23.1996V18.499H27.1996ZM25.1996 16.2162H28.4396V12.2162H25.1996V16.2162ZM26.4396 14.2162V16.7786H30.4396V14.2162H26.4396ZM26.4396 16.7786C26.4396 17.3954 26.6802 17.9936 27.1191 18.4398L29.971 15.635C30.2747 15.9439 30.4396 16.3559 30.4396 16.7786H26.4396ZM27.1191 18.4398C27.559 18.8871 28.1628 19.1446 28.7996 19.1446V15.1446C29.2454 15.1446 29.6661 15.325 29.971 15.635L27.1191 18.4398ZM28.7996 19.1446C29.4363 19.1446 30.0402 18.8871 30.4801 18.4398L27.6282 15.635C27.9331 15.325 28.3538 15.1446 28.7996 15.1446V19.1446ZM30.4801 18.4398C30.9189 17.9936 31.1596 17.3954 31.1596 16.7786H27.1596C27.1596 16.3559 27.3244 15.9439 27.6282 15.635L30.4801 18.4398ZM31.1596 16.7786V14.2162H27.1596V16.7786H31.1596ZM29.1596 16.2162H30.8444V12.2162H29.1596V16.2162ZM30.8482 16.2162C31.8958 16.2142 32.8931 15.7899 33.6235 15.0472L30.7716 12.2424C30.7841 12.2297 30.8083 12.2163 30.8406 12.2162L30.8482 16.2162ZM33.6235 15.0472C34.3529 14.3055 34.7577 13.3072 34.7596 12.2725L30.7596 12.2651C30.7596 12.2633 30.7599 12.2606 30.7613 12.2573C30.7627 12.2539 30.7657 12.2484 30.7716 12.2424L33.6235 15.0472ZM34.7596 12.2688V5.9142H30.7596V12.2688H34.7596ZM34.7596 5.91051C34.7577 4.87581 34.3529 3.87749 33.6235 3.13588L30.7716 5.94063C30.7657 5.9346 30.7627 5.92916 30.7613 5.92578C30.7599 5.92242 30.7596 5.91973 30.7596 5.91788L34.7596 5.91051ZM33.6235 3.13588C32.8931 2.39314 31.8958 1.96881 30.8482 1.96681L30.8406 5.96681C30.8083 5.96674 30.7841 5.95337 30.7716 5.94063L33.6235 3.13588ZM30.0396 12.2688C30.0396 12.0714 30.1164 11.8754 30.2636 11.7258L33.1155 14.5306C33.7109 13.9251 34.0396 13.1109 34.0396 12.2688H30.0396ZM30.2636 11.7258C30.4118 11.575 30.6201 11.4841 30.8444 11.4841V15.4841C31.7026 15.4841 32.5189 15.1371 33.1155 14.5306L30.2636 11.7258ZM30.8444 11.4841H24.5948V15.4841H30.8444V11.4841ZM24.5948 11.4841C24.8191 11.4841 25.0273 11.575 25.1756 11.7258L22.3237 14.5306C22.9202 15.1371 23.7365 15.4841 24.5948 15.4841V11.4841ZM25.1756 11.7258C25.3227 11.8754 25.3996 12.0714 25.3996 12.2688H21.3996C21.3996 13.1109 21.7282 13.9251 22.3237 14.5306L25.1756 11.7258ZM25.3996 12.2688V5.9142H21.3996V12.2688H25.3996ZM25.3996 5.9142C25.3996 6.11166 25.3227 6.30761 25.1756 6.45724L22.3237 3.65248C21.7282 4.25793 21.3996 5.07211 21.3996 5.9142H25.3996ZM25.1756 6.45724C25.0273 6.608 24.8191 6.69891 24.5948 6.69891V2.69891C23.7365 2.69891 22.9202 3.0459 22.3237 3.65248L25.1756 6.45724ZM24.5948 6.69891H30.8444V2.69891H24.5948V6.69891ZM30.8444 6.69891C30.6201 6.69891 30.4118 6.608 30.2636 6.45724L33.1155 3.65248C32.5189 3.0459 31.7026 2.69891 30.8444 2.69891V6.69891ZM30.2636 6.45724C30.1164 6.30761 30.0396 6.11166 30.0396 5.9142H34.0396C34.0396 5.07211 33.7109 4.25793 33.1155 3.65248L30.2636 6.45724ZM30.0396 5.9142V12.2688H34.0396V5.9142H30.0396Z" fill="#0174F3" mask="url(#path-3-inside-2_382_278)"/>
<mask id="path-5-inside-3_382_278" fill="white">
<path d="M30.9596 24.0996V19.6081C30.9644 19.3828 30.9249 19.1588 30.8435 18.9492C30.7621 18.7395 30.6404 18.5485 30.4855 18.3873C30.3307 18.2261 30.1457 18.0979 29.9415 18.0102C29.7374 17.9225 29.518 17.8771 29.2964 17.8767H28.0796C27.9841 17.8767 27.8925 17.9153 27.825 17.9839C27.7575 18.0526 27.7196 18.1457 27.7196 18.2428C27.7196 18.3398 27.7575 18.4329 27.825 18.5016C27.8925 18.5702 27.9841 18.6088 28.0796 18.6088H29.2964C29.4236 18.6087 29.5496 18.6348 29.6667 18.6855C29.7838 18.7362 29.8896 18.8104 29.9777 18.9038C30.0658 18.9972 30.1345 19.1077 30.1795 19.2287C30.2245 19.3498 30.2449 19.4788 30.2396 19.6081V24.0996H26.9996V21.1712C26.9996 21.0741 26.9616 20.981 26.8941 20.9123C26.8266 20.8437 26.735 20.8051 26.6396 20.8051C26.5441 20.8051 26.4525 20.8437 26.385 20.9123C26.3175 20.981 26.2796 21.0741 26.2796 21.1712V24.0996H24.5948C24.1698 24.0999 23.7569 24.2439 23.4213 24.509C23.0856 24.7741 22.8462 25.1451 22.7408 25.5638C22.7204 25.562 22.6999 25.562 22.6796 25.5638H18.4388C17.9601 25.5682 17.5006 25.7561 17.1522 26.09C16.8038 26.4238 16.5922 26.8791 16.5596 27.3647V28.4922C16.5596 28.5893 16.5975 28.6824 16.665 28.751C16.7325 28.8197 16.8241 28.8582 16.9196 28.8582C17.015 28.8582 17.1066 28.8197 17.1741 28.751C17.2416 28.6824 17.2796 28.5893 17.2796 28.4922V27.3647C17.3155 27.0752 17.4522 26.8083 17.6648 26.6123C17.8774 26.4163 18.1519 26.3041 18.4388 26.2959H22.6796V29.5903H19.7996C19.7041 29.5903 19.6125 29.6289 19.545 29.6975C19.4775 29.7662 19.4396 29.8593 19.4396 29.9564C19.4396 30.0535 19.4775 30.1466 19.545 30.2152C19.6125 30.2839 19.7041 30.3224 19.7996 30.3224H22.6796V32.4016C22.6805 32.9178 22.8826 33.4125 23.2416 33.7775C23.6005 34.1425 24.0871 34.348 24.5948 34.349H30.8444C31.352 34.348 31.8386 34.1425 32.1976 33.7775C32.5565 33.4125 32.7586 32.9178 32.7596 32.4016V26.047C32.7613 25.5499 32.5757 25.071 32.2409 24.7088C31.9061 24.3466 31.4476 24.1286 30.9596 24.0996ZM32.0396 32.3906C32.041 32.5511 32.0111 32.7103 31.9517 32.8591C31.8923 33.0078 31.8045 33.143 31.6933 33.2571C31.5822 33.3711 31.45 33.4616 31.3043 33.5233C31.1585 33.5851 31.0022 33.6169 30.8444 33.6169H24.5948C24.2778 33.6169 23.9738 33.4888 23.7496 33.2609C23.5255 33.033 23.3996 32.7239 23.3996 32.4016V26.047C23.3996 25.7246 23.5255 25.4155 23.7496 25.1876C23.9738 24.9597 24.2778 24.8317 24.5948 24.8317H30.8444C31.1614 24.8317 31.4654 24.9597 31.6895 25.1876C31.9136 25.4155 32.0396 25.7246 32.0396 26.047V32.3906Z"/>
</mask>
<path d="M30.9596 24.0996V19.6081C30.9644 19.3828 30.9249 19.1588 30.8435 18.9492C30.7621 18.7395 30.6404 18.5485 30.4855 18.3873C30.3307 18.2261 30.1457 18.0979 29.9415 18.0102C29.7374 17.9225 29.518 17.8771 29.2964 17.8767H28.0796C27.9841 17.8767 27.8925 17.9153 27.825 17.9839C27.7575 18.0526 27.7196 18.1457 27.7196 18.2428C27.7196 18.3398 27.7575 18.4329 27.825 18.5016C27.8925 18.5702 27.9841 18.6088 28.0796 18.6088H29.2964C29.4236 18.6087 29.5496 18.6348 29.6667 18.6855C29.7838 18.7362 29.8896 18.8104 29.9777 18.9038C30.0658 18.9972 30.1345 19.1077 30.1795 19.2287C30.2245 19.3498 30.2449 19.4788 30.2396 19.6081V24.0996H26.9996V21.1712C26.9996 21.0741 26.9616 20.981 26.8941 20.9123C26.8266 20.8437 26.735 20.8051 26.6396 20.8051C26.5441 20.8051 26.4525 20.8437 26.385 20.9123C26.3175 20.981 26.2796 21.0741 26.2796 21.1712V24.0996H24.5948C24.1698 24.0999 23.7569 24.2439 23.4213 24.509C23.0856 24.7741 22.8462 25.1451 22.7408 25.5638C22.7204 25.562 22.6999 25.562 22.6796 25.5638H18.4388C17.9601 25.5682 17.5006 25.7561 17.1522 26.09C16.8038 26.4238 16.5922 26.8791 16.5596 27.3647V28.4922C16.5596 28.5893 16.5975 28.6824 16.665 28.751C16.7325 28.8197 16.8241 28.8582 16.9196 28.8582C17.015 28.8582 17.1066 28.8197 17.1741 28.751C17.2416 28.6824 17.2796 28.5893 17.2796 28.4922V27.3647C17.3155 27.0752 17.4522 26.8083 17.6648 26.6123C17.8774 26.4163 18.1519 26.3041 18.4388 26.2959H22.6796V29.5903H19.7996C19.7041 29.5903 19.6125 29.6289 19.545 29.6975C19.4775 29.7662 19.4396 29.8593 19.4396 29.9564C19.4396 30.0535 19.4775 30.1466 19.545 30.2152C19.6125 30.2839 19.7041 30.3224 19.7996 30.3224H22.6796V32.4016C22.6805 32.9178 22.8826 33.4125 23.2416 33.7775C23.6005 34.1425 24.0871 34.348 24.5948 34.349H30.8444C31.352 34.348 31.8386 34.1425 32.1976 33.7775C32.5565 33.4125 32.7586 32.9178 32.7596 32.4016V26.047C32.7613 25.5499 32.5757 25.071 32.2409 24.7088C31.9061 24.3466 31.4476 24.1286 30.9596 24.0996ZM32.0396 32.3906C32.041 32.5511 32.0111 32.7103 31.9517 32.8591C31.8923 33.0078 31.8045 33.143 31.6933 33.2571C31.5822 33.3711 31.45 33.4616 31.3043 33.5233C31.1585 33.5851 31.0022 33.6169 30.8444 33.6169H24.5948C24.2778 33.6169 23.9738 33.4888 23.7496 33.2609C23.5255 33.033 23.3996 32.7239 23.3996 32.4016V26.047C23.3996 25.7246 23.5255 25.4155 23.7496 25.1876C23.9738 24.9597 24.2778 24.8317 24.5948 24.8317H30.8444C31.1614 24.8317 31.4654 24.9597 31.6895 25.1876C31.9136 25.4155 32.0396 25.7246 32.0396 26.047V32.3906Z" fill="#0174F3"/>
<path d="M30.9596 24.0996H28.9596V25.9842L30.8409 26.096L30.9596 24.0996ZM30.9596 19.6081L28.96 19.5656L28.9596 19.5869V19.6081H30.9596ZM29.2964 17.8767L29.3003 15.8767H29.2964V17.8767ZM29.2964 18.6088V20.6088L29.2982 20.6088L29.2964 18.6088ZM30.2396 19.6081L28.2413 19.5255L28.2396 19.5668V19.6081H30.2396ZM30.2396 24.0996V26.0996H32.2396V24.0996H30.2396ZM26.9996 24.0996H24.9996V26.0996H26.9996V24.0996ZM26.2796 24.0996V26.0996H28.2796V24.0996H26.2796ZM24.5948 24.0996V22.0996L24.5934 22.0996L24.5948 24.0996ZM22.7408 25.5638L22.5679 27.5563L24.2643 27.7034L24.6802 26.0523L22.7408 25.5638ZM22.6796 25.5638V27.5638H22.7661L22.8524 27.5563L22.6796 25.5638ZM18.4388 25.5638V23.5638H18.4296L18.4204 23.5639L18.4388 25.5638ZM16.5596 27.3647L14.5641 27.2307L14.5596 27.2976V27.3647H16.5596ZM17.2796 27.3647L15.2948 27.1181L15.2796 27.2409V27.3647H17.2796ZM18.4388 26.2959V24.2959H18.4103L18.3817 24.2967L18.4388 26.2959ZM22.6796 26.2959H24.6796V24.2959H22.6796V26.2959ZM22.6796 29.5903V31.5903H24.6796V29.5903H22.6796ZM22.6796 30.3224H24.6796V28.3224H22.6796V30.3224ZM22.6796 32.4016H20.6796L20.6796 32.4053L22.6796 32.4016ZM23.2416 33.7775L21.8156 35.1799L23.2416 33.7775ZM24.5948 34.349L24.591 36.349H24.5948V34.349ZM30.8444 34.349V36.349L30.8482 36.349L30.8444 34.349ZM32.1976 33.7775L33.6235 35.1799L32.1976 33.7775ZM32.7596 32.4016L34.7596 32.4053V32.4016H32.7596ZM32.7596 26.047L30.7596 26.0399V26.047H32.7596ZM32.0396 32.3906H30.0396V32.3995L30.0396 32.4084L32.0396 32.3906ZM30.8444 33.6169L30.8445 31.6169H30.8444V33.6169ZM24.5948 33.6169V35.6169V33.6169ZM23.3996 32.4016H21.3996H23.3996ZM32.0396 26.047H34.0396H32.0396ZM32.9596 24.0996V19.6081H28.9596V24.0996H32.9596ZM32.9591 19.6506C32.9695 19.164 32.8843 18.6796 32.7079 18.2253L28.9791 19.6731C28.9655 19.638 28.9593 19.6016 28.96 19.5656L32.9591 19.6506ZM32.7079 18.2253C32.5315 17.7709 32.2669 17.3546 31.9279 17.0018L29.0432 19.7728C29.014 19.7424 28.9928 19.7082 28.9791 19.6731L32.7079 18.2253ZM31.9279 17.0018C31.5888 16.6488 31.1821 16.3663 30.7306 16.1724L29.1525 19.848C29.1093 19.8294 29.0725 19.8033 29.0432 19.7728L31.9279 17.0018ZM30.7306 16.1724C30.279 15.9785 29.7926 15.8777 29.3003 15.8767L29.2925 19.8767C29.2434 19.8766 29.1957 19.8665 29.1525 19.848L30.7306 16.1724ZM29.2964 15.8767H28.0796V19.8767H29.2964V15.8767ZM28.0796 15.8767C27.4428 15.8767 26.839 16.1342 26.3991 16.5815L29.251 19.3863C28.9461 19.6963 28.5254 19.8767 28.0796 19.8767V15.8767ZM26.3991 16.5815C25.9602 17.0277 25.7196 17.6259 25.7196 18.2428H29.7196C29.7196 18.6654 29.5547 19.0774 29.251 19.3863L26.3991 16.5815ZM25.7196 18.2428C25.7196 18.8596 25.9602 19.4578 26.3991 19.904L29.251 17.0992C29.5547 17.4081 29.7196 17.8201 29.7196 18.2428H25.7196ZM26.3991 19.904C26.839 20.3513 27.4428 20.6088 28.0796 20.6088V16.6088C28.5254 16.6088 28.9461 16.7892 29.251 17.0992L26.3991 19.904ZM28.0796 20.6088H29.2964V16.6088H28.0796V20.6088ZM29.2982 20.6088C29.1508 20.6089 29.0057 20.5787 28.8721 20.5208L30.4613 16.8501C30.0935 16.6909 29.6965 16.6085 29.2946 16.6088L29.2982 20.6088ZM28.8721 20.5208C28.7385 20.463 28.6202 20.3793 28.5233 20.2766L31.4322 17.531C31.159 17.2415 30.8291 17.0093 30.4613 16.8501L28.8721 20.5208ZM28.5233 20.2766C28.4263 20.1739 28.3526 20.0543 28.3048 19.9257L32.0541 18.5318C31.9163 18.1611 31.7053 17.8204 31.4322 17.531L28.5233 20.2766ZM28.3048 19.9257C28.257 19.7972 28.2357 19.6612 28.2413 19.5255L32.2379 19.6907C32.2542 19.2965 32.1919 18.9024 32.0541 18.5318L28.3048 19.9257ZM28.2396 19.6081V24.0996H32.2396V19.6081H28.2396ZM30.2396 22.0996H26.9996V26.0996H30.2396V22.0996ZM28.9996 24.0996V21.1712H24.9996V24.0996H28.9996ZM28.9996 21.1712C28.9996 20.5543 28.7589 19.9561 28.3201 19.5099L25.4682 22.3147C25.1644 22.0058 24.9996 21.5939 24.9996 21.1712H28.9996ZM28.3201 19.5099C27.8802 19.0626 27.2763 18.8051 26.6396 18.8051V22.8051C26.1938 22.8051 25.7731 22.6247 25.4682 22.3147L28.3201 19.5099ZM26.6396 18.8051C26.0028 18.8051 25.399 19.0626 24.9591 19.5099L27.811 22.3147C27.5061 22.6247 27.0854 22.8051 26.6396 22.8051V18.8051ZM24.9591 19.5099C24.5202 19.9561 24.2796 20.5543 24.2796 21.1712H28.2796C28.2796 21.5939 28.1147 22.0058 27.811 22.3147L24.9591 19.5099ZM24.2796 21.1712V24.0996H28.2796V21.1712H24.2796ZM26.2796 22.0996H24.5948V26.0996H26.2796V22.0996ZM24.5934 22.0996C23.7159 22.1002 22.8676 22.3978 22.1817 22.9394L24.6608 26.0785C24.6463 26.09 24.6236 26.0995 24.5962 26.0996L24.5934 22.0996ZM22.1817 22.9394C21.4965 23.4806 21.0134 24.2333 20.8014 25.0752L24.6802 26.0523C24.679 26.057 24.6748 26.0675 24.6608 26.0785L22.1817 22.9394ZM22.9136 23.5712C22.7782 23.5595 22.6421 23.5595 22.5067 23.5712L22.8524 27.5563C22.7578 27.5645 22.6626 27.5645 22.5679 27.5563L22.9136 23.5712ZM22.6796 23.5638H18.4388V27.5638H22.6796V23.5638ZM18.4204 23.5639C17.4278 23.573 16.4813 23.9628 15.7684 24.646L18.5361 27.5339C18.5199 27.5494 18.4923 27.5634 18.4572 27.5637L18.4204 23.5639ZM15.7684 24.646C15.0565 25.3283 14.6298 26.2522 14.5641 27.2307L18.5551 27.4988C18.5546 27.5059 18.5512 27.5194 18.5361 27.5339L15.7684 24.646ZM14.5596 27.3647V28.4922H18.5596V27.3647H14.5596ZM14.5596 28.4922C14.5596 29.109 14.8002 29.7072 15.2391 30.1534L18.091 27.3486C18.3947 27.6575 18.5596 28.0695 18.5596 28.4922H14.5596ZM15.2391 30.1534C15.679 30.6007 16.2828 30.8582 16.9196 30.8582V26.8582C17.3654 26.8582 17.7861 27.0386 18.091 27.3486L15.2391 30.1534ZM16.9196 30.8582C17.5563 30.8582 18.1602 30.6007 18.6001 30.1534L15.7482 27.3486C16.0531 27.0386 16.4738 26.8582 16.9196 26.8582V30.8582ZM18.6001 30.1534C19.0389 29.7072 19.2796 29.109 19.2796 28.4922H15.2796C15.2796 28.0695 15.4444 27.6575 15.7482 27.3486L18.6001 30.1534ZM19.2796 28.4922V27.3647H15.2796V28.4922H19.2796ZM19.2643 27.6114C19.2425 27.7867 19.1591 27.9549 19.0205 28.0827L16.309 25.142C15.7453 25.6618 15.3886 26.3637 15.2948 27.1181L19.2643 27.6114ZM19.0205 28.0827C18.8812 28.2111 18.6955 28.2894 18.4958 28.2951L18.3817 24.2967C17.6083 24.3187 16.8735 24.6215 16.309 25.142L19.0205 28.0827ZM18.4388 28.2959H22.6796V24.2959H18.4388V28.2959ZM20.6796 26.2959V29.5903H24.6796V26.2959H20.6796ZM22.6796 27.5903H19.7996V31.5903H22.6796V27.5903ZM19.7996 27.5903C19.1628 27.5903 18.559 27.8478 18.1191 28.2952L20.971 31.0999C20.6661 31.4099 20.2454 31.5903 19.7996 31.5903V27.5903ZM18.1191 28.2952C17.6802 28.7413 17.4396 29.3395 17.4396 29.9564H21.4396C21.4396 30.3791 21.2747 30.791 20.971 31.0999L18.1191 28.2952ZM17.4396 29.9564C17.4396 30.5732 17.6802 31.1714 18.1191 31.6176L20.971 28.8128C21.2747 29.1217 21.4396 29.5337 21.4396 29.9564H17.4396ZM18.1191 31.6176C18.559 32.0649 19.1628 32.3224 19.7996 32.3224V28.3224C20.2454 28.3224 20.6661 28.5028 20.971 28.8128L18.1191 31.6176ZM19.7996 32.3224H22.6796V28.3224H19.7996V32.3224ZM20.6796 30.3224V32.4016H24.6796V30.3224H20.6796ZM20.6796 32.4053C20.6815 33.44 21.0863 34.4383 21.8156 35.1799L24.6675 32.3752C24.6735 32.3812 24.6764 32.3866 24.6778 32.39C24.6792 32.3934 24.6796 32.3961 24.6796 32.3979L20.6796 32.4053ZM21.8156 35.1799C22.5461 35.9226 23.5434 36.347 24.591 36.349L24.5986 32.349C24.6309 32.349 24.655 32.3624 24.6675 32.3752L21.8156 35.1799ZM24.5948 36.349H30.8444V32.349H24.5948V36.349ZM30.8482 36.349C31.8958 36.347 32.8931 35.9226 33.6235 35.1799L30.7716 32.3752C30.7841 32.3624 30.8083 32.349 30.8406 32.349L30.8482 36.349ZM33.6235 35.1799C34.3529 34.4383 34.7577 33.44 34.7596 32.4053L30.7596 32.3979C30.7596 32.3961 30.7599 32.3934 30.7613 32.39C30.7627 32.3866 30.7657 32.3812 30.7716 32.3752L33.6235 35.1799ZM34.7596 32.4016V26.047H30.7596V32.4016H34.7596ZM34.7596 26.054C34.7631 25.0556 34.3906 24.088 33.7096 23.3513L30.7722 26.0664C30.7663 26.06 30.7632 26.0541 30.7616 26.0501C30.7601 26.0461 30.7596 26.0426 30.7596 26.0399L34.7596 26.054ZM33.7096 23.3513C33.0277 22.6135 32.087 22.1631 31.0783 22.1031L30.8409 26.096C30.8082 26.0941 30.7846 26.0797 30.7722 26.0664L33.7096 23.3513ZM30.0396 32.4084C30.0388 32.3094 30.0571 32.2104 30.0945 32.1169L33.8089 33.6012C33.9651 33.2103 34.0432 32.7929 34.0395 32.3728L30.0396 32.4084ZM30.0945 32.1169C30.1319 32.0234 30.1879 31.9362 30.2611 31.8611L33.1256 34.653C33.421 34.3499 33.6527 33.9921 33.8089 33.6012L30.0945 32.1169ZM30.2611 31.8611C30.3343 31.786 30.4233 31.7245 30.5238 31.6819L32.0847 35.3648C32.4766 35.1987 32.8301 34.9562 33.1256 34.653L30.2611 31.8611ZM30.5238 31.6819C30.6244 31.6393 30.7334 31.6169 30.8445 31.6169L30.8443 35.6169C31.271 35.6169 31.6927 35.5309 32.0847 35.3648L30.5238 31.6819ZM30.8444 31.6169H24.5948V35.6169H30.8444V31.6169ZM24.5948 31.6169C24.8191 31.6169 25.0273 31.7078 25.1756 31.8585L22.3237 34.6633C22.9202 35.2699 23.7365 35.6169 24.5948 35.6169V31.6169ZM25.1756 31.8585C25.3227 32.0082 25.3996 32.2041 25.3996 32.4016H21.3996C21.3996 33.2437 21.7282 34.0579 22.3237 34.6633L25.1756 31.8585ZM25.3996 32.4016V26.047H21.3996V32.4016H25.3996ZM25.3996 26.047C25.3996 26.2444 25.3227 26.4404 25.1756 26.59L22.3237 23.7852C21.7282 24.3907 21.3996 25.2049 21.3996 26.047H25.3996ZM25.1756 26.59C25.0273 26.7408 24.8191 26.8317 24.5948 26.8317V22.8317C23.7365 22.8317 22.9202 23.1787 22.3237 23.7852L25.1756 26.59ZM24.5948 26.8317H30.8444V22.8317H24.5948V26.8317ZM30.8444 26.8317C30.6201 26.8317 30.4118 26.7408 30.2636 26.59L33.1155 23.7852C32.5189 23.1787 31.7026 22.8317 30.8444 22.8317V26.8317ZM30.2636 26.59C30.1164 26.4404 30.0396 26.2444 30.0396 26.047H34.0396C34.0396 25.2049 33.7109 24.3907 33.1155 23.7852L30.2636 26.59ZM30.0396 26.047V32.3906H34.0396V26.047H30.0396Z" fill="#0174F3" mask="url(#path-5-inside-3_382_278)"/>
<mask id="path-7-inside-4_382_278" fill="white">
<path d="M18.7202 28.8582C18.6248 28.8582 18.5332 28.8967 18.4657 28.9654C18.3982 29.034 18.3602 29.1271 18.3602 29.2242V30.6445C18.36 30.9282 18.2565 31.2019 18.0698 31.4127C17.883 31.6236 17.6262 31.7567 17.3486 31.7866H13.3202V28.4921H15.8402C15.9357 28.4921 16.0273 28.4535 16.0948 28.3849C16.1623 28.3162 16.2002 28.2231 16.2002 28.1261C16.2002 28.029 16.1623 27.9359 16.0948 27.8672C16.0273 27.7986 15.9357 27.76 15.8402 27.76H13.3202V26.0469C13.322 25.5498 13.1364 25.071 12.8016 24.7087C12.4668 24.3465 12.0083 24.1285 11.5202 24.0995V19.5678C11.5006 19.1014 11.3003 18.6618 10.9631 18.345C10.6258 18.0281 10.1791 17.8598 9.72023 17.8766H8.64023C8.54476 17.8766 8.45319 17.9152 8.38568 17.9839C8.31816 18.0525 8.28023 18.1456 8.28023 18.2427C8.28023 18.3398 8.31816 18.4329 8.38568 18.5015C8.45319 18.5702 8.54476 18.6087 8.64023 18.6087H9.72023C9.98709 18.5963 10.2484 18.6892 10.4496 18.8678C10.6508 19.0465 10.7764 19.2973 10.8002 19.5678V24.0995H7.56023V21.1711C7.56023 21.074 7.52231 20.9809 7.45479 20.9123C7.38728 20.8436 7.29571 20.805 7.20023 20.805C7.10476 20.805 7.01319 20.8436 6.94568 20.9123C6.87816 20.9809 6.84023 21.074 6.84023 21.1711V24.0995H5.15543C4.64778 24.1005 4.1612 24.3059 3.80223 24.6709C3.44327 25.0359 3.24119 25.5307 3.24023 26.0469V32.4015C3.24119 32.9177 3.44327 33.4125 3.80223 33.7775C4.1612 34.1425 4.64778 34.3479 5.15543 34.3489H11.405C11.8939 34.3507 12.3648 34.162 12.7211 33.8216C13.0773 33.4811 13.2917 33.0149 13.3202 32.5187H17.3486C17.8185 32.4915 18.2601 32.2818 18.5824 31.9331C18.9046 31.5843 19.0828 31.123 19.0802 30.6445V29.2242C19.0802 29.1271 19.0423 29.034 18.9748 28.9654C18.9073 28.8967 18.8157 28.8582 18.7202 28.8582ZM12.6002 32.4015C12.6002 32.7238 12.4743 33.033 12.2502 33.2609C12.026 33.4888 11.722 33.6168 11.405 33.6168H5.15543C4.83845 33.6168 4.53444 33.4888 4.3103 33.2609C4.08616 33.033 3.96023 32.7238 3.96023 32.4015V26.0469C3.96023 25.7246 4.08616 25.4155 4.3103 25.1875C4.53444 24.9596 4.83845 24.8316 5.15543 24.8316H11.405C11.722 24.8316 12.026 24.9596 12.2502 25.1875C12.4743 25.4155 12.6002 25.7246 12.6002 26.0469V32.4015Z"/>
</mask>
<path d="M18.7202 28.8582C18.6248 28.8582 18.5332 28.8967 18.4657 28.9654C18.3982 29.034 18.3602 29.1271 18.3602 29.2242V30.6445C18.36 30.9282 18.2565 31.2019 18.0698 31.4127C17.883 31.6236 17.6262 31.7567 17.3486 31.7866H13.3202V28.4921H15.8402C15.9357 28.4921 16.0273 28.4535 16.0948 28.3849C16.1623 28.3162 16.2002 28.2231 16.2002 28.1261C16.2002 28.029 16.1623 27.9359 16.0948 27.8672C16.0273 27.7986 15.9357 27.76 15.8402 27.76H13.3202V26.0469C13.322 25.5498 13.1364 25.071 12.8016 24.7087C12.4668 24.3465 12.0083 24.1285 11.5202 24.0995V19.5678C11.5006 19.1014 11.3003 18.6618 10.9631 18.345C10.6258 18.0281 10.1791 17.8598 9.72023 17.8766H8.64023C8.54476 17.8766 8.45319 17.9152 8.38568 17.9839C8.31816 18.0525 8.28023 18.1456 8.28023 18.2427C8.28023 18.3398 8.31816 18.4329 8.38568 18.5015C8.45319 18.5702 8.54476 18.6087 8.64023 18.6087H9.72023C9.98709 18.5963 10.2484 18.6892 10.4496 18.8678C10.6508 19.0465 10.7764 19.2973 10.8002 19.5678V24.0995H7.56023V21.1711C7.56023 21.074 7.52231 20.9809 7.45479 20.9123C7.38728 20.8436 7.29571 20.805 7.20023 20.805C7.10476 20.805 7.01319 20.8436 6.94568 20.9123C6.87816 20.9809 6.84023 21.074 6.84023 21.1711V24.0995H5.15543C4.64778 24.1005 4.1612 24.3059 3.80223 24.6709C3.44327 25.0359 3.24119 25.5307 3.24023 26.0469V32.4015C3.24119 32.9177 3.44327 33.4125 3.80223 33.7775C4.1612 34.1425 4.64778 34.3479 5.15543 34.3489H11.405C11.8939 34.3507 12.3648 34.162 12.7211 33.8216C13.0773 33.4811 13.2917 33.0149 13.3202 32.5187H17.3486C17.8185 32.4915 18.2601 32.2818 18.5824 31.9331C18.9046 31.5843 19.0828 31.123 19.0802 30.6445V29.2242C19.0802 29.1271 19.0423 29.034 18.9748 28.9654C18.9073 28.8967 18.8157 28.8582 18.7202 28.8582ZM12.6002 32.4015C12.6002 32.7238 12.4743 33.033 12.2502 33.2609C12.026 33.4888 11.722 33.6168 11.405 33.6168H5.15543C4.83845 33.6168 4.53444 33.4888 4.3103 33.2609C4.08616 33.033 3.96023 32.7238 3.96023 32.4015V26.0469C3.96023 25.7246 4.08616 25.4155 4.3103 25.1875C4.53444 24.9596 4.83845 24.8316 5.15543 24.8316H11.405C11.722 24.8316 12.026 24.9596 12.2502 25.1875C12.4743 25.4155 12.6002 25.7246 12.6002 26.0469V32.4015Z" fill="#0174F3"/>
<path d="M18.3602 30.6445L20.3602 30.6461V30.6445H18.3602ZM17.3486 31.7866V33.7866H17.4558L17.5623 33.7751L17.3486 31.7866ZM13.3202 31.7866H11.3202V33.7866H13.3202V31.7866ZM13.3202 28.4921V26.4921H11.3202V28.4921H13.3202ZM13.3202 27.76H11.3202V29.76H13.3202V27.76ZM13.3202 26.0469L11.3202 26.0398V26.0469H13.3202ZM11.5202 24.0995H9.52023V25.9841L11.4015 26.096L11.5202 24.0995ZM11.5202 19.5678H13.5202V19.5257L13.5185 19.4836L11.5202 19.5678ZM9.72023 17.8766V19.8766H9.75697L9.79367 19.8753L9.72023 17.8766ZM9.72023 18.6087V20.6087H9.76668L9.81308 20.6066L9.72023 18.6087ZM10.8002 19.5678H12.8002V19.4799L12.7925 19.3923L10.8002 19.5678ZM10.8002 24.0995V26.0995H12.8002V24.0995H10.8002ZM7.56023 24.0995H5.56023V26.0995H7.56023V24.0995ZM6.84023 24.0995V26.0995H8.84023V24.0995H6.84023ZM5.15543 24.0995V22.0995L5.15162 22.0995L5.15543 24.0995ZM3.24023 26.0469L1.24023 26.0432V26.0469H3.24023ZM3.24023 32.4015H1.24023L1.24024 32.4052L3.24023 32.4015ZM3.80223 33.7775L2.37629 35.1798L3.80223 33.7775ZM5.15543 34.3489L5.15162 36.3489H5.15543V34.3489ZM11.405 34.3489L11.4123 32.3489H11.405V34.3489ZM13.3202 32.5187V30.5187H11.4319L11.3235 32.4038L13.3202 32.5187ZM17.3486 32.5187V34.5187H17.4065L17.4642 34.5153L17.3486 32.5187ZM19.0802 30.6445H17.0802L17.0803 30.6554L19.0802 30.6445ZM11.405 33.6168V35.6168V33.6168ZM5.15543 33.6168V35.6168V33.6168ZM3.96023 32.4015H1.96023H3.96023ZM3.96023 26.0469H1.96023H3.96023ZM12.6002 26.0469H14.6002H12.6002ZM18.7202 26.8582C18.0835 26.8582 17.4797 27.1157 17.0397 27.563L19.8916 30.3677C19.5867 30.6778 19.166 30.8582 18.7202 30.8582V26.8582ZM17.0397 27.563C16.6009 28.0092 16.3602 28.6074 16.3602 29.2242H20.3602C20.3602 29.6469 20.1954 30.0589 19.8916 30.3677L17.0397 27.563ZM16.3602 29.2242V30.6445H20.3602V29.2242H16.3602ZM16.3602 30.6428C16.3604 30.4425 16.4331 30.2441 16.5726 30.0866L19.5669 32.7388C20.0799 32.1597 20.3596 31.4139 20.3602 30.6461L16.3602 30.6428ZM16.5726 30.0866C16.7129 29.9283 16.9121 29.822 17.135 29.798L17.5623 33.7751C18.3402 33.6915 19.0531 33.3189 19.5669 32.7388L16.5726 30.0866ZM17.3486 29.7866H13.3202V33.7866H17.3486V29.7866ZM15.3202 31.7866V28.4921H11.3202V31.7866H15.3202ZM13.3202 30.4921H15.8402V26.4921H13.3202V30.4921ZM15.8402 30.4921C16.477 30.4921 17.0808 30.2346 17.5207 29.7873L14.6688 26.9825C14.9737 26.6725 15.3944 26.4921 15.8402 26.4921V30.4921ZM17.5207 29.7873C17.9596 29.3411 18.2002 28.7429 18.2002 28.1261H14.2002C14.2002 27.7034 14.3651 27.2914 14.6688 26.9825L17.5207 29.7873ZM18.2002 28.1261C18.2002 27.5092 17.9596 26.911 17.5207 26.4648L14.6688 29.2696C14.3651 28.9607 14.2002 28.5487 14.2002 28.1261H18.2002ZM17.5207 26.4648C17.0808 26.0175 16.477 25.76 15.8402 25.76V29.76C15.3944 29.76 14.9737 29.5796 14.6688 29.2696L17.5207 26.4648ZM15.8402 25.76H13.3202V29.76H15.8402V25.76ZM15.3202 27.76V26.0469H11.3202V27.76H15.3202ZM15.3202 26.0539C15.3237 25.0556 14.9513 24.088 14.2703 23.3512L11.3329 26.0663C11.327 26.0599 11.3238 26.054 11.3223 26.05C11.3207 26.046 11.3202 26.0426 11.3202 26.0398L15.3202 26.0539ZM14.2703 23.3512C13.5884 22.6135 12.6477 22.163 11.6389 22.103L11.4015 26.096C11.3688 26.094 11.3452 26.0796 11.3329 26.0663L14.2703 23.3512ZM13.5202 24.0995V19.5678H9.52023V24.0995H13.5202ZM13.5185 19.4836C13.477 18.5 13.0546 17.5658 12.3325 16.8874L9.5936 19.8026C9.54598 19.7578 9.52415 19.7028 9.52201 19.652L13.5185 19.4836ZM12.3325 16.8874C11.6093 16.2079 10.6442 15.8413 9.64679 15.878L9.79367 19.8753C9.71394 19.8782 9.64237 19.8484 9.5936 19.8026L12.3325 16.8874ZM9.72023 15.8766H8.64023V19.8766H9.72023V15.8766ZM8.64023 15.8766C8.00347 15.8766 7.39965 16.1342 6.95973 16.5815L9.81162 19.3862C9.50673 19.6963 9.08604 19.8766 8.64023 19.8766V15.8766ZM6.95973 16.5815C6.52091 17.0277 6.28023 17.6258 6.28023 18.2427H10.2802C10.2802 18.6654 10.1154 19.0773 9.81162 19.3862L6.95973 16.5815ZM6.28023 18.2427C6.28023 18.8595 6.52091 19.4577 6.95973 19.9039L9.81162 17.0992C10.1154 17.408 10.2802 17.82 10.2802 18.2427H6.28023ZM6.95973 19.9039C7.39965 20.3512 8.00347 20.6087 8.64023 20.6087V16.6087C9.08604 16.6087 9.50673 16.7891 9.81162 17.0992L6.95973 19.9039ZM8.64023 20.6087H9.72023V16.6087H8.64023V20.6087ZM9.81308 20.6066C9.55471 20.6186 9.30718 20.5281 9.12158 20.3633L11.7776 17.3724C11.1895 16.8502 10.4195 16.5741 9.62739 16.6109L9.81308 20.6066ZM9.12158 20.3633C8.93704 20.1994 8.82847 19.9762 8.80795 19.7433L12.7925 19.3923C12.7243 18.6183 12.3645 17.8936 11.7776 17.3724L9.12158 20.3633ZM8.80023 19.5678V24.0995H12.8002V19.5678H8.80023ZM10.8002 22.0995H7.56023V26.0995H10.8002V22.0995ZM9.56023 24.0995V21.1711H5.56023V24.0995H9.56023ZM9.56023 21.1711C9.56023 20.5542 9.31956 19.9561 8.88074 19.5099L6.02884 22.3146C5.72506 22.0057 5.56023 21.5938 5.56023 21.1711H9.56023ZM8.88074 19.5099C8.44082 19.0626 7.837 18.805 7.20023 18.805V22.805C6.75443 22.805 6.33374 22.6247 6.02884 22.3146L8.88074 19.5099ZM7.20023 18.805C6.56347 18.805 5.95965 19.0626 5.51973 19.5099L8.37162 22.3146C8.06673 22.6247 7.64604 22.805 7.20023 22.805V18.805ZM5.51973 19.5099C5.08091 19.9561 4.84023 20.5542 4.84023 21.1711H8.84023C8.84023 21.5938 8.67541 22.0057 8.37162 22.3146L5.51973 19.5099ZM4.84023 21.1711V24.0995H8.84023V21.1711H4.84023ZM6.84023 22.0995H5.15543V26.0995H6.84023V22.0995ZM5.15162 22.0995C4.10402 22.1015 3.10674 22.5258 2.37629 23.2686L5.22818 26.0733C5.21566 26.0861 5.19155 26.0994 5.15925 26.0995L5.15162 22.0995ZM2.37629 23.2686C1.64693 24.0102 1.24215 25.0085 1.24024 26.0432L5.24023 26.0506C5.24023 26.0524 5.23986 26.0551 5.23849 26.0585C5.23711 26.0619 5.23412 26.0673 5.22818 26.0733L2.37629 23.2686ZM1.24023 26.0469V32.4015H5.24023V26.0469H1.24023ZM1.24024 32.4052C1.24215 33.4399 1.64693 34.4382 2.37629 35.1798L5.22818 32.3751C5.23412 32.3811 5.23711 32.3866 5.23849 32.3899C5.23986 32.3933 5.24023 32.396 5.24023 32.3978L1.24024 32.4052ZM2.37629 35.1798C3.10674 35.9226 4.10402 36.3469 5.15162 36.3489L5.15925 32.3489C5.19155 32.349 5.21566 32.3623 5.22818 32.3751L2.37629 35.1798ZM5.15543 36.3489H11.405V32.3489H5.15543V36.3489ZM11.3977 36.3489C12.4084 36.3526 13.376 35.9621 14.1028 35.2675L11.3393 32.3756C11.3537 32.3619 11.3794 32.3488 11.4123 32.3489L11.3977 36.3489ZM14.1028 35.2675C14.8287 34.5738 15.2596 33.6303 15.3169 32.6335L11.3235 32.4038C11.3238 32.3994 11.3259 32.3885 11.3393 32.3756L14.1028 35.2675ZM13.3202 34.5187H17.3486V30.5187H13.3202V34.5187ZM17.4642 34.5153C18.4561 34.4579 19.3813 34.0156 20.0514 33.2903L17.1134 30.5758C17.139 30.5481 17.1809 30.525 17.233 30.522L17.4642 34.5153ZM20.0514 33.2903C20.7205 32.566 21.0855 31.6146 21.0802 30.6336L17.0803 30.6554C17.0801 30.6314 17.0887 30.6025 17.1134 30.5758L20.0514 33.2903ZM21.0802 30.6445V29.2242H17.0802V30.6445H21.0802ZM21.0802 29.2242C21.0802 28.6074 20.8396 28.0092 20.4007 27.563L17.5488 30.3677C17.2451 30.0589 17.0802 29.6469 17.0802 29.2242H21.0802ZM20.4007 27.563C19.9608 27.1157 19.357 26.8582 18.7202 26.8582V30.8582C18.2744 30.8582 17.8537 30.6778 17.5488 30.3677L20.4007 27.563ZM10.6002 32.4015C10.6002 32.2041 10.6771 32.0081 10.8242 31.8585L13.6761 34.6632C14.2716 34.0578 14.6002 33.2436 14.6002 32.4015H10.6002ZM10.8242 31.8585C10.9725 31.7077 11.1807 31.6168 11.405 31.6168V35.6168C12.2633 35.6168 13.0796 35.2698 13.6761 34.6632L10.8242 31.8585ZM11.405 31.6168H5.15543V35.6168H11.405V31.6168ZM5.15543 31.6168C5.37974 31.6168 5.58798 31.7077 5.73625 31.8585L2.88435 34.6632C3.4809 35.2698 4.29716 35.6168 5.15543 35.6168V31.6168ZM5.73625 31.8585C5.8834 32.0081 5.96023 32.2041 5.96023 32.4015H1.96023C1.96023 33.2436 2.28891 34.0578 2.88435 34.6632L5.73625 31.8585ZM5.96023 32.4015V26.0469H1.96023V32.4015H5.96023ZM5.96023 26.0469C5.96023 26.2443 5.8834 26.4403 5.73625 26.5899L2.88435 23.7852C2.28891 24.3906 1.96023 25.2048 1.96023 26.0469H5.96023ZM5.73625 26.5899C5.58798 26.7407 5.37974 26.8316 5.15543 26.8316V22.8316C4.29716 22.8316 3.4809 23.1786 2.88435 23.7852L5.73625 26.5899ZM5.15543 26.8316H11.405V22.8316H5.15543V26.8316ZM11.405 26.8316C11.1807 26.8316 10.9725 26.7407 10.8242 26.5899L13.6761 23.7852C13.0796 23.1786 12.2633 22.8316 11.405 22.8316V26.8316ZM10.8242 26.5899C10.6771 26.4403 10.6002 26.2443 10.6002 26.0469H14.6002C14.6002 25.2048 14.2716 24.3906 13.6761 23.7852L10.8242 26.5899ZM10.6002 26.0469V32.4015H14.6002V26.0469H10.6002Z" fill="#0174F3" mask="url(#path-7-inside-4_382_278)"/>
<mask id="path-9-inside-5_382_278" fill="white">
<path d="M15.1204 17.1445H14.7604C14.6649 17.1445 14.5733 17.1831 14.5058 17.2518C14.4383 17.3204 14.4004 17.4135 14.4004 17.5106V23.3674C14.4004 23.4645 14.4383 23.5576 14.5058 23.6262C14.5733 23.6949 14.6649 23.7335 14.7604 23.7335H20.8804C20.9759 23.7335 21.0674 23.6949 21.1349 23.6262C21.2025 23.5576 21.2404 23.4645 21.2404 23.3674V17.5106C21.2404 17.4135 21.2025 17.3204 21.1349 17.2518C21.0674 17.1831 20.9759 17.1445 20.8804 17.1445H20.5204C20.5204 16.4164 20.2359 15.7181 19.7296 15.2033C19.2232 14.6884 18.5365 14.3992 17.8204 14.3992C17.1043 14.3992 16.4175 14.6884 15.9112 15.2033C15.4049 15.7181 15.1204 16.4164 15.1204 17.1445ZM20.5204 23.0014H15.1204V17.8766H20.5204V23.0014ZM19.8004 17.1445H15.8404C15.8404 16.6106 16.049 16.0985 16.4203 15.7209C16.7916 15.3434 17.2953 15.1313 17.8204 15.1313C18.3455 15.1313 18.8491 15.3434 19.2205 15.7209C19.5918 16.0985 19.8004 16.6106 19.8004 17.1445Z"/>
</mask>
<path d="M15.1204 17.1445H14.7604C14.6649 17.1445 14.5733 17.1831 14.5058 17.2518C14.4383 17.3204 14.4004 17.4135 14.4004 17.5106V23.3674C14.4004 23.4645 14.4383 23.5576 14.5058 23.6262C14.5733 23.6949 14.6649 23.7335 14.7604 23.7335H20.8804C20.9759 23.7335 21.0674 23.6949 21.1349 23.6262C21.2025 23.5576 21.2404 23.4645 21.2404 23.3674V17.5106C21.2404 17.4135 21.2025 17.3204 21.1349 17.2518C21.0674 17.1831 20.9759 17.1445 20.8804 17.1445H20.5204C20.5204 16.4164 20.2359 15.7181 19.7296 15.2033C19.2232 14.6884 18.5365 14.3992 17.8204 14.3992C17.1043 14.3992 16.4175 14.6884 15.9112 15.2033C15.4049 15.7181 15.1204 16.4164 15.1204 17.1445ZM20.5204 23.0014H15.1204V17.8766H20.5204V23.0014ZM19.8004 17.1445H15.8404C15.8404 16.6106 16.049 16.0985 16.4203 15.7209C16.7916 15.3434 17.2953 15.1313 17.8204 15.1313C18.3455 15.1313 18.8491 15.3434 19.2205 15.7209C19.5918 16.0985 19.8004 16.6106 19.8004 17.1445Z" fill="#0174F3"/>
<path d="M15.1204 17.1445V19.1445H17.1204V17.1445H15.1204ZM20.5204 17.1445H18.5204V19.1445H20.5204V17.1445ZM20.5204 23.0014V25.0014H22.5204V23.0014H20.5204ZM15.1204 23.0014H13.1204V25.0014H15.1204V23.0014ZM15.1204 17.8766V15.8766H13.1204V17.8766H15.1204ZM20.5204 17.8766H22.5204V15.8766H20.5204V17.8766ZM19.8004 17.1445V19.1445H21.8004V17.1445H19.8004ZM15.8404 17.1445H13.8404V19.1445H15.8404V17.1445ZM15.1204 15.1445H14.7604V19.1445H15.1204V15.1445ZM14.7604 15.1445C14.1236 15.1445 13.5198 15.4021 13.0799 15.8494L15.9318 18.6541C15.6269 18.9642 15.2062 19.1445 14.7604 19.1445V15.1445ZM13.0799 15.8494C12.6411 16.2956 12.4004 16.8937 12.4004 17.5106H16.4004C16.4004 17.9333 16.2356 18.3452 15.9318 18.6541L13.0799 15.8494ZM12.4004 17.5106V23.3674H16.4004V17.5106H12.4004ZM12.4004 23.3674C12.4004 23.9843 12.6411 24.5824 13.0799 25.0286L15.9318 22.2239C16.2356 22.5328 16.4004 22.9447 16.4004 23.3674H12.4004ZM13.0799 25.0286C13.5198 25.4759 14.1236 25.7335 14.7604 25.7335V21.7335C15.2062 21.7335 15.6269 21.9138 15.9318 22.2239L13.0799 25.0286ZM14.7604 25.7335H20.8804V21.7335H14.7604V25.7335ZM20.8804 25.7335C21.5172 25.7335 22.121 25.4759 22.5609 25.0286L19.709 22.2239C20.0139 21.9138 20.4346 21.7335 20.8804 21.7335V25.7335ZM22.5609 25.0286C22.9997 24.5824 23.2404 23.9843 23.2404 23.3674H19.2404C19.2404 22.9447 19.4052 22.5328 19.709 22.2239L22.5609 25.0286ZM23.2404 23.3674V17.5106H19.2404V23.3674H23.2404ZM23.2404 17.5106C23.2404 16.8937 22.9997 16.2956 22.5609 15.8494L19.709 18.6541C19.4052 18.3452 19.2404 17.9333 19.2404 17.5106H23.2404ZM22.5609 15.8494C22.121 15.4021 21.5172 15.1445 20.8804 15.1445V19.1445C20.4346 19.1445 20.0139 18.9642 19.709 18.6541L22.5609 15.8494ZM20.8804 15.1445H20.5204V19.1445H20.8804V15.1445ZM22.5204 17.1445C22.5204 15.8967 22.0332 14.6933 21.1555 13.8009L18.3036 16.6057C18.4387 16.743 18.5204 16.9362 18.5204 17.1445H22.5204ZM21.1555 13.8009C20.2768 12.9074 19.0778 12.3992 17.8204 12.3992V16.3992C17.9952 16.3992 18.1697 16.4695 18.3036 16.6057L21.1555 13.8009ZM17.8204 12.3992C16.563 12.3992 15.364 12.9074 14.4853 13.8009L17.3372 16.6057C17.4711 16.4695 17.6456 16.3992 17.8204 16.3992V12.3992ZM14.4853 13.8009C13.6076 14.6933 13.1204 15.8967 13.1204 17.1445H17.1204C17.1204 16.9362 17.2021 16.743 17.3372 16.6057L14.4853 13.8009ZM20.5204 21.0014H15.1204V25.0014H20.5204V21.0014ZM17.1204 23.0014V17.8766H13.1204V23.0014H17.1204ZM15.1204 19.8766H20.5204V15.8766H15.1204V19.8766ZM18.5204 17.8766V23.0014H22.5204V17.8766H18.5204ZM19.8004 15.1445H15.8404V19.1445H19.8004V15.1445ZM17.8404 17.1445C17.8404 17.1381 17.8416 17.1327 17.8433 17.1286C17.845 17.1245 17.8465 17.1231 17.8463 17.1233L14.9944 14.3186C14.2518 15.0737 13.8404 16.0908 13.8404 17.1445H17.8404ZM17.8463 17.1233C17.846 17.1236 17.8437 17.1257 17.839 17.1277C17.8342 17.1297 17.8277 17.1313 17.8204 17.1313V13.1313C16.754 13.1313 15.7381 13.5623 14.9944 14.3186L17.8463 17.1233ZM17.8204 17.1313C17.813 17.1313 17.8065 17.1297 17.8018 17.1277C17.7971 17.1257 17.7948 17.1236 17.7945 17.1233L20.6464 14.3186C19.9027 13.5623 18.8868 13.1313 17.8204 13.1313V17.1313ZM17.7945 17.1233C17.7943 17.1231 17.7958 17.1245 17.7975 17.1286C17.7991 17.1327 17.8004 17.1381 17.8004 17.1445H21.8004C21.8004 16.0908 21.389 15.0737 20.6464 14.3186L17.7945 17.1233Z" fill="#0174F3" mask="url(#path-9-inside-5_382_278)"/>
<mask id="path-11-inside-6_382_278" fill="white">
<path d="M16.8511 21.9034C16.8511 22.0004 16.8891 22.0935 16.9566 22.1622C17.0241 22.2308 17.1157 22.2694 17.2111 22.2694H18.3595C18.455 22.2694 18.5466 22.2308 18.6141 22.1622C18.6816 22.0935 18.7195 22.0004 18.7195 21.9034V20.322C18.951 20.0785 19.0801 19.7529 19.0795 19.4142C19.0783 19.2074 19.0279 19.0039 18.9325 18.8212C18.8372 18.6385 18.6997 18.4819 18.5319 18.365C18.3641 18.2481 18.1709 18.1742 17.9689 18.1497C17.7669 18.1251 17.5621 18.1507 17.3719 18.2242C17.1817 18.2977 17.0119 18.4169 16.8769 18.5717C16.7419 18.7265 16.6458 18.9121 16.5967 19.1129C16.5477 19.3137 16.5472 19.5235 16.5952 19.7245C16.6433 19.9255 16.7385 20.1117 16.8727 20.2671L16.8511 21.9034ZM17.8195 18.8651C17.9625 18.8661 18.0993 18.9243 18.2003 19.027C18.3014 19.1298 18.3586 19.2689 18.3595 19.4142C18.3604 19.5012 18.3413 19.5871 18.3038 19.6653C18.2663 19.7434 18.2115 19.8116 18.1435 19.8645C18.0988 19.8986 18.0625 19.9428 18.0376 19.9936C18.0126 20.0444 17.9995 20.1005 17.9995 20.1573V21.5373H17.5783L17.5963 20.1244C17.5969 20.0709 17.5859 20.0179 17.5641 19.9692C17.5423 19.9205 17.5103 19.8773 17.4703 19.8425C17.4106 19.7897 17.3626 19.7245 17.3297 19.6512C17.2968 19.578 17.2797 19.4984 17.2795 19.4179C17.2791 19.3453 17.2927 19.2733 17.3195 19.2061C17.3464 19.1388 17.3861 19.0776 17.4362 19.026C17.4864 18.9743 17.546 18.9332 17.6118 18.905C17.6776 18.8767 17.7482 18.862 17.8195 18.8615V18.8651Z"/>
</mask>
<path d="M16.8511 21.9034C16.8511 22.0004 16.8891 22.0935 16.9566 22.1622C17.0241 22.2308 17.1157 22.2694 17.2111 22.2694H18.3595C18.455 22.2694 18.5466 22.2308 18.6141 22.1622C18.6816 22.0935 18.7195 22.0004 18.7195 21.9034V20.322C18.951 20.0785 19.0801 19.7529 19.0795 19.4142C19.0783 19.2074 19.0279 19.0039 18.9325 18.8212C18.8372 18.6385 18.6997 18.4819 18.5319 18.365C18.3641 18.2481 18.1709 18.1742 17.9689 18.1497C17.7669 18.1251 17.5621 18.1507 17.3719 18.2242C17.1817 18.2977 17.0119 18.4169 16.8769 18.5717C16.7419 18.7265 16.6458 18.9121 16.5967 19.1129C16.5477 19.3137 16.5472 19.5235 16.5952 19.7245C16.6433 19.9255 16.7385 20.1117 16.8727 20.2671L16.8511 21.9034ZM17.8195 18.8651C17.9625 18.8661 18.0993 18.9243 18.2003 19.027C18.3014 19.1298 18.3586 19.2689 18.3595 19.4142C18.3604 19.5012 18.3413 19.5871 18.3038 19.6653C18.2663 19.7434 18.2115 19.8116 18.1435 19.8645C18.0988 19.8986 18.0625 19.9428 18.0376 19.9936C18.0126 20.0444 17.9995 20.1005 17.9995 20.1573V21.5373H17.5783L17.5963 20.1244C17.5969 20.0709 17.5859 20.0179 17.5641 19.9692C17.5423 19.9205 17.5103 19.8773 17.4703 19.8425C17.4106 19.7897 17.3626 19.7245 17.3297 19.6512C17.2968 19.578 17.2797 19.4984 17.2795 19.4179C17.2791 19.3453 17.2927 19.2733 17.3195 19.2061C17.3464 19.1388 17.3861 19.0776 17.4362 19.026C17.4864 18.9743 17.546 18.9332 17.6118 18.905C17.6776 18.8767 17.7482 18.862 17.8195 18.8615V18.8651Z" fill="#0174F3"/>
<path d="M16.8511 21.9034L14.8513 21.877L14.8511 21.8902V21.9034H16.8511ZM18.7195 20.322L17.2698 18.9442L16.7195 19.5232V20.322H18.7195ZM19.0795 19.4142L21.0796 19.4108L21.0795 19.4026L19.0795 19.4142ZM16.8727 20.2671L18.8726 20.2935L18.8826 19.5345L18.3865 18.96L16.8727 20.2671ZM17.8195 18.8651H15.8195V20.8518L17.8061 20.8651L17.8195 18.8651ZM18.3595 19.4142L16.3596 19.4272L16.3596 19.4335L18.3595 19.4142ZM18.1435 19.8645L19.3563 21.4548L19.3642 21.4488L19.3719 21.4428L18.1435 19.8645ZM17.9995 21.5373V23.5373H19.9995V21.5373H17.9995ZM17.5783 21.5373L15.5785 21.5118L15.5527 23.5373H17.5783V21.5373ZM17.5963 20.1244L19.5962 20.1498L19.5963 20.1441L17.5963 20.1244ZM17.4703 19.8425L16.1462 21.3414L16.1521 21.3466L16.158 21.3517L17.4703 19.8425ZM17.2795 19.4179L19.2796 19.4146L19.2795 19.4048L17.2795 19.4179ZM17.8195 18.8615H19.8195V16.848L17.8061 16.8615L17.8195 18.8615ZM14.8511 21.9034C14.8511 22.5202 15.0918 23.1184 15.5306 23.5646L18.3825 20.7598C18.6863 21.0687 18.8511 21.4807 18.8511 21.9034H14.8511ZM15.5306 23.5646C15.9706 24.0119 16.5744 24.2694 17.2111 24.2694V20.2694C17.657 20.2694 18.0776 20.4498 18.3825 20.7598L15.5306 23.5646ZM17.2111 24.2694H18.3595V20.2694H17.2111V24.2694ZM18.3595 24.2694C18.9963 24.2694 19.6001 24.0119 20.0401 23.5646L17.1882 20.7598C17.4931 20.4498 17.9137 20.2694 18.3595 20.2694V24.2694ZM20.0401 23.5646C20.4789 23.1184 20.7195 22.5202 20.7195 21.9034H16.7195C16.7195 21.4807 16.8844 21.0687 17.1882 20.7598L20.0401 23.5646ZM20.7195 21.9034V20.322H16.7195V21.9034H20.7195ZM20.1693 21.6998C20.758 21.0804 21.081 20.2589 21.0795 19.4108L17.0796 19.4176C17.0793 19.2469 17.144 19.0766 17.2698 18.9442L20.1693 21.6998ZM21.0795 19.4026C21.0765 18.8786 20.9488 18.3617 20.7055 17.8957L17.1595 19.7466C17.107 19.6461 17.0802 19.5361 17.0796 19.4259L21.0795 19.4026ZM20.7055 17.8957C20.4622 17.4296 20.1097 17.0268 19.6753 16.7241L17.3884 20.0059C17.2897 19.9371 17.2121 19.8473 17.1595 19.7466L20.7055 17.8957ZM19.6753 16.7241C19.2408 16.4213 18.7381 16.2283 18.2099 16.1642L17.7279 20.1351C17.6037 20.12 17.4873 20.0748 17.3884 20.0059L19.6753 16.7241ZM18.2099 16.1642C17.6816 16.1001 17.1464 16.1672 16.6509 16.3587L18.0929 20.0897C17.9777 20.1343 17.8522 20.1502 17.7279 20.1351L18.2099 16.1642ZM16.6509 16.3587C16.1555 16.5501 15.7165 16.8594 15.3697 17.257L18.3841 19.8864C18.3073 19.9745 18.2079 20.0453 18.0929 20.0897L16.6509 16.3587ZM15.3697 17.257C15.023 17.6545 14.7784 18.1287 14.6539 18.6382L18.5396 19.5876C18.5132 19.6956 18.4608 19.7984 18.3841 19.8864L15.3697 17.257ZM14.6539 18.6382C14.5294 19.1476 14.5281 19.6796 14.6501 20.1896L18.5404 19.2594C18.5662 19.3674 18.566 19.4797 18.5396 19.5876L14.6539 18.6382ZM14.6501 20.1896C14.7721 20.6997 15.0143 21.1751 15.359 21.5743L18.3865 18.96C18.4627 19.0482 18.5146 19.1513 18.5404 19.2594L14.6501 20.1896ZM14.8729 20.2407L14.8513 21.877L18.851 21.9298L18.8726 20.2935L14.8729 20.2407ZM17.8061 20.8651C17.4125 20.8625 17.0425 20.702 16.7744 20.4294L19.6263 17.6246C19.156 17.1465 18.5125 16.8697 17.833 16.8652L17.8061 20.8651ZM16.7744 20.4294C16.5073 20.1579 16.362 19.7972 16.3596 19.4272L20.3595 19.4012C20.3552 18.7406 20.0955 18.1017 19.6263 17.6246L16.7744 20.4294ZM16.3596 19.4335C16.3575 19.2155 16.4053 18.9988 16.5006 18.8002L20.107 20.5303C20.2773 20.1754 20.3632 19.7868 20.3595 19.3949L16.3596 19.4335ZM16.5006 18.8002C16.5959 18.6014 16.737 18.4248 16.9152 18.2861L19.3719 21.4428C19.6859 21.1984 19.9367 20.8854 20.107 20.5303L16.5006 18.8002ZM16.9308 18.2741C16.638 18.4974 16.4034 18.7845 16.2428 19.1111L19.8323 20.8761C19.7217 21.101 19.5596 21.2998 19.3563 21.4548L16.9308 18.2741ZM16.2428 19.1111C16.0823 19.4374 15.9995 19.7955 15.9995 20.1573H19.9995C19.9995 20.4054 19.9428 20.6514 19.8323 20.8761L16.2428 19.1111ZM15.9995 20.1573V21.5373H19.9995V20.1573H15.9995ZM17.9995 19.5373H17.5783V23.5373H17.9995V19.5373ZM19.5782 21.5628L19.5962 20.1498L15.5965 20.0989L15.5785 21.5118L19.5782 21.5628ZM19.5963 20.1441C19.5996 19.8035 19.5296 19.4653 19.39 19.153L15.7382 20.7854C15.6422 20.5705 15.5941 20.3382 15.5964 20.1046L19.5963 20.1441ZM19.39 19.153C19.2503 18.8406 19.0438 18.5603 18.7827 18.3333L16.158 21.3517C15.9769 21.1942 15.8344 21.0005 15.7382 20.7854L19.39 19.153ZM18.7945 18.3436C18.9492 18.4803 19.0711 18.6471 19.154 18.8315L15.5054 20.4709C15.6541 20.8018 15.8719 21.099 16.1462 21.3414L18.7945 18.3436ZM19.154 18.8315C19.2368 19.0157 19.2792 19.2145 19.2795 19.4146L15.2796 19.4211C15.2801 19.7823 15.3568 20.1402 15.5054 20.4709L19.154 18.8315ZM19.2795 19.4048C19.2807 19.5903 19.246 19.7749 19.1767 19.9484L15.4624 18.4637C15.3393 18.7717 15.2774 19.1003 15.2796 19.4309L19.2795 19.4048ZM19.1767 19.9484C19.1073 20.122 19.0041 20.2822 18.8714 20.4189L16.001 17.6331C15.7681 17.8731 15.5856 18.1556 15.4624 18.4637L19.1767 19.9484ZM18.8714 20.4189C18.7387 20.5556 18.5789 20.6663 18.4004 20.7429L16.8232 17.067C16.5131 17.2 16.234 17.3929 16.001 17.6331L18.8714 20.4189ZM18.4004 20.7429C18.2218 20.8195 18.0289 20.8601 17.833 20.8614L17.8061 16.8615C17.4674 16.8638 17.1333 16.9339 16.8232 17.067L18.4004 20.7429ZM15.8195 18.8615V18.8651H19.8195V18.8615H15.8195Z" fill="#0174F3" mask="url(#path-11-inside-6_382_278)"/>
</svg>
