<svg width="32" height="38" viewBox="0 0 32 38" fill="none" xmlns="http://www.w3.org/2000/svg">
<g clip-path="url(#clip0_379_426)">
<path d="M16 37.9226C20.4189 37.9226 24.4164 36.249 27.3117 33.5465C30.207 30.8441 32 27.1128 32 22.9882C32 18.8636 30.207 15.1323 27.3117 12.4299C24.4164 9.72742 20.4189 8.05381 16 8.05381C11.5811 8.05381 7.58359 9.72742 4.6883 12.4299C1.79302 15.1323 0 18.8636 0 22.9882C0 27.1128 1.79302 30.8441 4.6883 33.5465C7.58359 36.249 11.5811 37.9226 16 37.9226ZM26.3711 32.6686C23.7159 35.1424 20.0514 36.6788 16 36.6788C11.9486 36.6788 8.28414 35.1424 5.6289 32.6686C2.97857 30.1902 1.33252 26.7698 1.33252 22.9882C1.33252 19.2066 2.97857 15.7862 5.6289 13.3078C8.28414 10.834 11.9486 9.29758 16 9.29758C20.0514 9.29758 23.7159 10.834 26.3711 13.3078C29.0214 15.7862 30.6675 19.2066 30.6675 22.9882C30.6675 26.7698 29.0214 30.1902 26.3711 32.6686ZM16 31.3882C16.8818 31.3882 17.6852 31.0544 18.2633 30.5103C18.8463 29.9707 19.2088 29.2208 19.2088 28.3977C19.2088 27.57 18.8463 26.8247 18.2682 26.2805C18.229 26.244 18.1849 26.2074 18.1457 26.1708L21.188 21.246C21.5015 21.342 21.8347 21.3923 22.1825 21.3923C23.0692 21.3923 23.8726 21.0585 24.4507 20.5144C25.0337 19.9748 25.3913 19.2249 25.3913 18.3972C25.3913 17.5741 25.0337 16.8242 24.4507 16.2801C23.8677 15.7405 23.0692 15.4067 22.1825 15.4067C21.2958 15.4067 20.4972 15.7405 19.9143 16.2801C19.4832 16.6825 19.1745 17.1992 19.0472 17.7753H12.9528C12.8206 17.1992 12.5119 16.687 12.0857 16.2846C11.5028 15.7405 10.6993 15.4067 9.81751 15.4067C8.9308 15.4067 8.13227 15.7405 7.5493 16.2801C6.96632 16.8242 6.6087 17.5741 6.6087 18.3972C6.6087 19.2249 6.96632 19.9748 7.5493 20.5144C8.13227 21.054 8.9357 21.3923 9.81751 21.3923C10.1653 21.3923 10.4985 21.342 10.812 21.246L13.8543 26.1708C13.8151 26.2028 13.771 26.2394 13.7318 26.276C13.1488 26.8201 12.7912 27.57 12.7912 28.3977C12.7912 29.2208 13.1488 29.9707 13.7318 30.5103C14.3148 31.0544 15.1182 31.3882 16 31.3882ZM16.9945 25.5489C16.681 25.4529 16.3478 25.4026 16 25.4026C15.6522 25.4026 15.319 25.4529 15.0055 25.5489L11.9584 20.6241C12.0024 20.5875 12.0416 20.551 12.0808 20.5144C12.5119 20.112 12.8206 19.5953 12.9528 19.0191H19.0472C19.1745 19.5998 19.4832 20.112 19.9143 20.5144C19.9535 20.551 19.9975 20.5875 20.0367 20.6241L18.5132 23.0888L16.9945 25.5489ZM11.1402 19.6364C10.8022 19.9519 10.3368 20.1486 9.81751 20.1486C9.29822 20.1486 8.82792 19.9519 8.4899 19.6364C8.15187 19.3209 7.94121 18.8819 7.94121 18.3972C7.94121 17.9171 8.15187 17.4781 8.4899 17.1626C8.82792 16.8471 9.29822 16.6505 9.81751 16.6505C10.3368 16.6505 10.8022 16.8471 11.1402 17.158C11.4783 17.4781 11.6889 17.9125 11.6889 18.3972C11.6889 18.8819 11.4783 19.3209 11.1402 19.6364ZM23.5101 19.6364C23.1721 19.9519 22.7018 20.1486 22.1825 20.1486C21.6681 20.1486 21.1978 19.9519 20.8598 19.6364C20.5217 19.3209 20.3111 18.8819 20.3111 18.3972C20.3111 17.9171 20.5217 17.4781 20.8598 17.1626C21.1978 16.8471 21.6681 16.6505 22.1825 16.6505C22.7018 16.6505 23.1721 16.8471 23.5101 17.1626C23.8481 17.4781 24.0588 17.9171 24.0588 18.3972C24.0588 18.8819 23.8481 19.3209 23.5101 19.6364ZM17.3276 29.6323C16.9896 29.9478 16.5193 30.1445 16 30.1445C15.4807 30.1445 15.0104 29.9478 14.6724 29.6323C14.3344 29.3168 14.1237 28.8778 14.1237 28.3977C14.1237 27.913 14.3344 27.474 14.6773 27.1585C15.0153 26.843 15.4807 26.6464 16 26.6464C16.5193 26.6464 16.9896 26.843 17.3276 27.1585C17.6656 27.474 17.8714 27.913 17.8714 28.3977C17.8714 28.8778 17.6656 29.3168 17.3276 29.6323Z" fill="#0174F3"/>
</g>
<defs>
<clipPath id="clip0_379_426">
<rect width="32" height="37.336" fill="white" transform="matrix(1 0 0 -1 0 37.9226)"/>
</clipPath>
</defs>
</svg>
