<svg width="68" height="85" viewBox="0 0 68 85" fill="none" xmlns="http://www.w3.org/2000/svg">
<path d="M4.25 41.4375H6.60875C7.46315 41.4489 8.29428 41.7176 8.99367 42.2085C9.69307 42.6994 10.2282 43.3897 10.5294 44.1894C10.8704 44.967 10.9707 45.829 10.8173 46.6641C10.6639 47.4993 10.2639 48.2693 9.66875 48.875L8.00063 50.5219C7.90104 50.6206 7.82199 50.7382 7.76805 50.8676C7.71411 50.9971 7.68634 51.136 7.68634 51.2762C7.68634 51.4165 7.71411 51.5554 7.76805 51.6849C7.82199 51.8143 7.90104 51.9319 8.00063 52.0306L17 61.0513C17.0988 61.1508 17.2163 61.2299 17.3458 61.2838C17.4752 61.3378 17.6141 61.3655 17.7544 61.3655C17.8946 61.3655 18.0335 61.3378 18.163 61.2838C18.2925 61.2299 18.41 61.1508 18.5087 61.0513L20.1875 59.3831C20.8053 58.7987 21.5788 58.4055 22.415 58.2507C23.2512 58.0959 24.1143 58.1862 24.9003 58.5107C25.6863 58.8352 26.3617 59.3801 26.8452 60.0797C27.3286 60.7793 27.5994 61.6038 27.625 62.4538V64.8125C27.625 65.0943 27.7369 65.3645 27.9362 65.5638C28.1355 65.7631 28.4057 65.875 28.6875 65.875H36.125C36.2648 65.8758 36.4035 65.849 36.5329 65.7961C36.6624 65.7433 36.7801 65.6653 36.8794 65.5669C37.0735 65.3633 37.1836 65.0938 37.1875 64.8125V62.6025C51.2869 61.6462 62.985 50.915 64.6106 37.315L62.4856 37.06C60.9981 49.6294 50.2137 59.5 37.1875 60.4563V56.3125C40.2356 56.1793 43.2236 55.4201 45.9655 54.082C48.7074 52.744 51.1445 50.8558 53.125 48.535L51.51 47.1538C49.7284 49.2407 47.5387 50.9412 45.0757 52.1508C42.6126 53.3604 39.9282 54.0535 37.1875 54.1875V52.0625C37.1884 51.9176 37.1596 51.774 37.103 51.6406C37.0463 51.5073 36.963 51.3869 36.8581 51.2869C36.7521 51.187 36.6266 51.11 36.4895 51.0606C36.3524 51.0113 36.2066 50.9906 36.0612 51C35.7212 51 35.3706 51 34.9987 51C31.1892 51.0042 27.4895 49.724 24.4974 47.3662C21.5052 45.0083 19.3954 41.7105 18.5087 38.0056L16.4475 38.4944C17.443 42.6764 19.8245 46.3985 23.2044 49.0549C26.5843 51.7114 30.7637 53.1459 35.0625 53.125V63.75H29.75V62.4538C29.7383 61.2018 29.3583 59.981 28.6573 58.9437C27.9563 57.9064 26.9654 57.0984 25.8081 56.6206H25.6806C24.52 56.1238 23.238 55.9828 21.9971 56.2155C20.7563 56.4481 19.6124 57.044 18.7106 57.9275L17.7969 58.8519L10.2531 51.2762L11.1775 50.3625C12.0536 49.4697 12.6477 48.3388 12.8857 47.1108C13.1238 45.8827 12.9953 44.6118 12.5162 43.4563L12.4525 43.3075C11.9822 42.1387 11.1761 41.1354 10.1361 40.4244C9.096 39.7133 7.86856 39.3264 6.60875 39.3125H5.3125V28.6875H6.60875C7.86081 28.6821 9.08298 28.3044 10.1198 27.6025C11.1566 26.9006 11.9612 25.9061 12.4312 24.7456C12.4534 24.7051 12.4713 24.6624 12.4844 24.6181C12.9835 23.4562 13.1257 22.172 12.893 20.929C12.6603 19.6859 12.0632 18.5402 11.1775 17.6375L10.2531 16.7238L17.765 9.20125L18.6788 10.1256C19.5707 10.9996 20.6997 11.5924 21.9255 11.8304C23.1514 12.0684 24.4202 11.9411 25.5744 11.4644L25.7231 11.4006C26.8996 10.9346 27.9107 10.1291 28.6278 9.0865C29.345 8.04394 29.7356 6.81155 29.75 5.54625V4.25H35.0625V14.875C30.7637 14.8541 26.5843 16.2886 23.2044 18.9451C19.8245 21.6015 17.443 25.3236 16.4475 29.5056L18.5087 29.9944C19.3979 26.2788 21.5172 22.973 24.5224 20.614C27.5276 18.255 31.2421 16.9814 35.0625 17C35.4025 17 35.7319 17 36.0719 17C36.2173 17.0094 36.363 16.9887 36.5001 16.9394C36.6372 16.89 36.7627 16.813 36.8688 16.7131C36.9717 16.6122 37.0531 16.4914 37.1079 16.3581C37.1627 16.2247 37.1898 16.0816 37.1875 15.9375V13.8125C39.9249 13.9481 42.6056 14.642 45.0649 15.8516C47.5243 17.0612 49.7104 18.7609 51.4888 20.8463L53.125 19.4969C51.1495 17.1678 48.7141 15.272 45.9716 13.9281C43.2291 12.5843 40.2386 11.8215 37.1875 11.6875V7.54375C50.235 8.5 61.0406 18.36 62.5494 30.9188L64.6744 30.6637C62.985 17.0531 51.2656 6.375 37.1875 5.38688V3.1875C37.1875 2.90571 37.0756 2.63546 36.8763 2.4362C36.677 2.23694 36.4068 2.125 36.125 2.125H28.6875C28.4057 2.125 28.1355 2.23694 27.9362 2.4362C27.7369 2.63546 27.625 2.90571 27.625 3.1875V5.54625C27.6157 6.40248 27.348 7.23593 26.857 7.93742C26.3659 8.63891 25.6745 9.17571 24.8731 9.4775C24.0955 9.81854 23.2335 9.91883 22.3984 9.76543C21.5632 9.61204 20.7932 9.21199 20.1875 8.61687L18.5194 6.94875C18.4206 6.84916 18.3031 6.77012 18.1736 6.71618C18.0441 6.66224 17.9053 6.63446 17.765 6.63446C17.6247 6.63446 17.4859 6.66224 17.3564 6.71618C17.2269 6.77012 17.1094 6.84916 17.0106 6.94875L8.00063 15.9375C7.90104 16.0363 7.82199 16.1538 7.76805 16.2833C7.71411 16.4127 7.68634 16.5516 7.68634 16.6919C7.68634 16.8321 7.71411 16.971 7.76805 17.1005C7.82199 17.23 7.90104 17.3475 8.00063 17.4462L9.66875 19.125C10.2526 19.7421 10.6458 20.5147 10.801 21.35C10.9562 22.1852 10.8668 23.0475 10.5435 23.8331C10.2203 24.6188 9.67698 25.2943 8.97893 25.7785C8.28089 26.2627 7.45784 26.535 6.60875 26.5625H4.25C3.96821 26.5625 3.69796 26.6744 3.4987 26.8737C3.29944 27.073 3.1875 27.3432 3.1875 27.625V40.375C3.1875 40.6568 3.29944 40.927 3.4987 41.1263C3.69796 41.3256 3.96821 41.4375 4.25 41.4375Z" fill="#0174F3"/>
<path d="M16.0541 31.7476C15.87 33.2436 15.87 34.7565 16.0541 36.2526L18.1792 35.9976C18.0233 34.6705 18.0233 33.3297 18.1792 32.0026L16.0541 31.7476Z" fill="#0174F3"/>
<path d="M20.1875 34C20.1875 36.942 21.0599 39.8179 22.6944 42.2641C24.3289 44.7103 26.652 46.6169 29.3701 47.7427C32.0881 48.8686 35.079 49.1631 37.9645 48.5892C40.8499 48.0152 43.5004 46.5985 45.5807 44.5182C47.661 42.4379 49.0777 39.7874 49.6517 36.902C50.2256 34.0165 49.9311 31.0256 48.8052 28.3076C47.6794 25.5895 45.7728 23.2664 43.3266 21.6319C40.8804 19.9974 38.0045 19.125 35.0625 19.125C31.1174 19.125 27.3339 20.6922 24.5443 23.4818C21.7547 26.2714 20.1875 30.0549 20.1875 34ZM34 26.5625C32.9881 26.4777 31.9896 26.2744 31.025 25.9569C31.4916 24.1968 32.5402 22.6465 34 21.5581V26.5625ZM36.125 21.6113C37.575 22.686 38.6226 24.2162 39.1 25.9569C38.1354 26.2744 37.1369 26.4777 36.125 26.5625V21.6113ZM29.0806 25.075C28.4553 24.7378 27.8584 24.3505 27.2956 23.9169C28.2918 23.1433 29.3986 22.5237 30.5788 22.0788C29.964 23.0155 29.4612 24.0211 29.0806 25.075ZM30.43 27.9437C31.5838 28.3414 32.7834 28.5913 34 28.6875V32.9375H29.75C29.8112 31.2545 30.039 29.5818 30.43 27.9437ZM34 35.0625V39.3125C32.7866 39.3987 31.588 39.6305 30.43 40.0031C30.0424 38.3824 29.8147 36.7276 29.75 35.0625H34ZM34 46.4419C32.55 45.3671 31.5024 43.8369 31.025 42.0962C31.9896 41.7787 32.9881 41.5755 34 41.4906V46.4419ZM36.125 41.4906C37.1369 41.5755 38.1354 41.7787 39.1 42.0962C38.6226 43.8369 37.575 45.3671 36.125 46.4419V41.4906ZM30.5788 45.9213C29.3986 45.4763 28.2918 44.8567 27.2956 44.0831C27.8584 43.6495 28.4553 43.2622 29.0806 42.925C29.4612 43.9789 29.964 44.9845 30.5788 45.9213ZM41.0444 42.925C41.6697 43.2622 42.2666 43.6495 42.8294 44.0831C41.8332 44.8567 40.7264 45.4763 39.5463 45.9213C40.161 44.9845 40.6638 43.9789 41.0444 42.925ZM39.695 40.0563C38.537 39.6837 37.3384 39.4518 36.125 39.3656V35.0625H40.375C40.3138 36.7455 40.086 38.4182 39.695 40.0563ZM36.125 32.9375V28.6875C37.3392 28.6075 38.5386 28.3755 39.695 27.9969C40.0826 29.6176 40.3103 31.2724 40.375 32.9375H36.125ZM39.5463 22.0788C40.7264 22.5237 41.8332 23.1433 42.8294 23.9169C42.2666 24.3505 41.6697 24.7378 41.0444 25.075C40.6638 24.0211 40.161 23.0155 39.5463 22.0788ZM25.7337 25.3619C26.5781 26.0459 27.4936 26.6373 28.4644 27.1256C27.9795 29.0277 27.6982 30.9759 27.625 32.9375H22.3125C22.5639 30.1024 23.7614 27.4342 25.7125 25.3619H25.7337ZM22.3656 35.0625H27.6781C27.7374 37.0225 28.0045 38.9707 28.475 40.8744C27.5042 41.3627 26.5887 41.9541 25.7444 42.6381C23.8011 40.5629 22.6112 37.895 22.3656 35.0625ZM44.4125 42.6381C43.5681 41.9541 42.6527 41.3627 41.6819 40.8744C42.1596 38.9715 42.4338 37.0233 42.5 35.0625H47.8125C47.5611 37.8976 46.3636 40.5658 44.4125 42.6381ZM47.8125 32.9375H42.5C42.4408 30.9775 42.1736 29.0293 41.7031 27.1256C42.6739 26.6373 43.5894 26.0459 44.4338 25.3619C46.3771 27.4371 47.5669 30.105 47.8125 32.9375Z" fill="#0174F3"/>
<path d="M62.6875 34C62.6875 34.34 62.6875 34.6906 62.6875 35.0625H64.8125C64.8125 34.7012 64.8125 34.3294 64.8125 34C64.8125 33.6706 64.8125 33.2669 64.8125 32.9375H62.6875C62.6875 33.3094 62.6875 33.66 62.6875 34Z" fill="#0174F3"/>
<path d="M56.0473 23.9594C55.6605 23.1868 55.2276 22.4382 54.7511 21.7175L52.9873 22.9075C53.43 23.5505 53.8311 24.2213 54.1879 24.9157L56.0473 23.9594Z" fill="#0174F3"/>
<path d="M54.7504 46.2826C55.227 45.5619 55.6598 44.8133 56.0467 44.0407L54.1873 43.0845C53.8408 43.778 53.4504 44.4487 53.0186 45.0926L54.7504 46.2826Z" fill="#0174F3"/>
<path d="M58.4371 34C58.4349 31.3345 57.9601 28.6904 57.0346 26.1907L55.0371 26.9344C56.7396 31.491 56.7396 36.5091 55.0371 41.0657L57.0346 41.8094C57.9601 39.3097 58.4349 36.6656 58.4371 34Z" fill="#0174F3"/>
<path d="M9.5625 32.9375H7.4375V35.0625H9.5625V32.9375Z" fill="#0174F3"/>
<path d="M15.9645 14.4669L14.4619 15.9695L15.9645 17.4721L17.4671 15.9695L15.9645 14.4669Z" fill="#0174F3"/>
<path d="M15.9635 50.5272L14.4609 52.0298L15.9635 53.5324L17.4661 52.0298L15.9635 50.5272Z" fill="#0174F3"/>
</svg>
