<svg width="34" height="33" viewBox="0 0 34 33" fill="none" xmlns="http://www.w3.org/2000/svg">
<path d="M18.0667 13.288V3.048C18.0667 1.91692 19.0217 1 20.2 1H30.8667C32.0448 1 33 1.91692 33 3.048V15.336C33 16.4671 32.0448 17.384 30.8667 17.384H22.3334M18.0667 9.19269H33M28.7333 5.09687H26.6M28.7333 13.2885H26.6M9.53124 27.6239V31.7199M5.26458 31.7198H13.7979M7.39933 9.19286L4.19791 12.2649V9.19286C4.19791 6.93071 6.10817 5.09687 8.46457 5.09687H14.8646M1 9.19269L4.2 12.2647M11.6667 2.02396L14.8667 5.09595L11.6667 8.16795M22.3334 4.58437C22.1176 4.58437 21.9232 4.70911 21.8406 4.90043C21.7581 5.09176 21.8038 5.31197 21.9562 5.4584C22.1088 5.60483 22.3382 5.64864 22.5374 5.5694C22.7367 5.49015 22.8667 5.30346 22.8667 5.09637C22.8667 4.8136 22.6279 4.58437 22.3334 4.58437ZM22.3334 12.776C22.1176 12.776 21.9232 12.9007 21.8406 13.0921C21.7581 13.2834 21.8038 13.5036 21.9562 13.6501C22.1088 13.7965 22.3382 13.8402 22.5374 13.7611C22.7367 13.6818 22.8667 13.4951 22.8667 13.288C22.8667 13.0052 22.6279 12.776 22.3334 12.776ZM15.9319 17.3843H3.13333C1.95512 17.3843 1 18.3395 1 19.5177V25.491C1 26.6692 1.95512 27.6243 3.13333 27.6243H15.9319C17.1101 27.6243 18.0652 26.6692 18.0652 25.491V19.5177C18.0652 18.3395 17.1101 17.3843 15.9319 17.3843Z" stroke="#0174F3" stroke-width="1.5" stroke-linecap="round" stroke-linejoin="round"/>
</svg>
