<svg width="34" height="34" viewBox="0 0 34 34" fill="none" xmlns="http://www.w3.org/2000/svg">
<path d="M1 1V0.25H0.25V1H1ZM33 1H33.75V0.25H33V1ZM33 33V33.75H33.75V33H33ZM1 33H0.25V33.75H1V33ZM14.002 5.25C13.5878 5.25 13.252 5.58579 13.252 6C13.252 6.41421 13.5878 6.75 14.002 6.75V5.25ZM16.002 6.75C16.4162 6.75 16.752 6.41421 16.752 6C16.752 5.58579 16.4162 5.25 16.002 5.25V6.75ZM20.002 5.25C19.5878 5.25 19.252 5.58579 19.252 6C19.252 6.41421 19.5878 6.75 20.002 6.75V5.25ZM22.002 6.75C22.4162 6.75 22.752 6.41421 22.752 6C22.752 5.58579 22.4162 5.25 22.002 5.25V6.75ZM14.002 13.25C13.5878 13.25 13.252 13.5858 13.252 14C13.252 14.4142 13.5878 14.75 14.002 14.75V13.25ZM16.002 14.75C16.4162 14.75 16.752 14.4142 16.752 14C16.752 13.5858 16.4162 13.25 16.002 13.25V14.75ZM20.002 13.25C19.5878 13.25 19.252 13.5858 19.252 14C19.252 14.4142 19.5878 14.75 20.002 14.75V13.25ZM22.002 14.75C22.4162 14.75 22.752 14.4142 22.752 14C22.752 13.5858 22.4162 13.25 22.002 13.25V14.75ZM7.00195 25.25C6.58774 25.25 6.25195 25.5858 6.25195 26C6.25195 26.4142 6.58774 26.75 7.00195 26.75V25.25ZM12.002 26V26.75C12.4162 26.75 12.752 26.4142 12.752 26H12.002ZM12.752 18C12.752 17.5858 12.4162 17.25 12.002 17.25C11.5878 17.25 11.252 17.5858 11.252 18H12.752ZM19.0007 18.75C19.4149 18.75 19.7507 18.4142 19.7507 18C19.7507 17.5858 19.4149 17.25 19.0007 17.25V18.75ZM24.8192 12.375C25.0263 12.7337 25.485 12.8566 25.8437 12.6495C26.2024 12.4424 26.3253 11.9837 26.1182 11.625L24.8192 12.375ZM21.1825 22.8169C20.8273 23.03 20.7122 23.4907 20.9253 23.8459C21.1384 24.2011 21.5991 24.3162 21.9543 24.1031L21.1825 22.8169ZM26.8209 21.1831C27.1761 20.97 27.2912 20.5093 27.0781 20.1541C26.865 19.7989 26.4043 19.6838 26.0491 19.8969L26.8209 21.1831ZM22.0638 25.417C21.6792 25.2631 21.2427 25.4501 21.0889 25.8347C20.935 26.2193 21.122 26.6558 21.5066 26.8096L22.0638 25.417ZM25.9386 28.5829C26.3232 28.7368 26.7597 28.5498 26.9135 28.1652C27.0674 27.7806 26.8804 27.3441 26.4958 27.1903L25.9386 28.5829ZM1 1.75H33V0.25H1V1.75ZM32.25 1V33H33.75V1H32.25ZM33 32.25H1V33.75H33V32.25ZM1.75 33V1H0.25V33H1.75ZM7 4.75C6.30964 4.75 5.75 5.30964 5.75 6H7.25C7.25 6.13806 7.13806 6.25 7 6.25V4.75ZM5.75 6C5.75 6.69036 6.30964 7.25 7 7.25V5.75C7.13806 5.75 7.25 5.86194 7.25 6H5.75ZM7 7.25C7.69036 7.25 8.25 6.69036 8.25 6H6.75C6.75 5.86194 6.86194 5.75 7 5.75V7.25ZM8.25 6C8.25 5.30964 7.69036 4.75 7 4.75V6.25C6.86194 6.25 6.75 6.13806 6.75 6H8.25ZM14.002 6.75H16.002V5.25H14.002V6.75ZM20.002 6.75H22.002V5.25H20.002V6.75ZM7 12.75C6.30959 12.75 5.75 13.3097 5.75 14H7.25C7.25 14.1381 7.13811 14.25 7 14.25V12.75ZM5.75 14C5.75 14.6903 6.30959 15.25 7 15.25V13.75C7.13811 13.75 7.25 13.8619 7.25 14H5.75ZM7 15.25C7.69041 15.25 8.25 14.6903 8.25 14H6.75C6.75 13.8619 6.86189 13.75 7 13.75V15.25ZM8.25 14C8.25 13.3097 7.69041 12.75 7 12.75V14.25C6.86189 14.25 6.75 14.1381 6.75 14H8.25ZM14.002 14.75H16.002V13.25H14.002V14.75ZM20.002 14.75H22.002V13.25H20.002V14.75ZM7.00195 26.75H12.002V25.25H7.00195V26.75ZM12.752 26V18H11.252V26H12.752ZM2.50196 24.25C1.81157 24.25 1.25195 24.8097 1.25195 25.5H2.75195C2.75195 25.6381 2.64005 25.75 2.50196 25.75V24.25ZM1.25195 25.5C1.25195 26.1903 1.81157 26.75 2.50196 26.75V25.25C2.64005 25.25 2.75195 25.3619 2.75195 25.5H1.25195ZM2.50196 26.75C3.19233 26.75 3.75196 26.1903 3.75196 25.5H2.25196C2.25196 25.3619 2.36385 25.25 2.50196 25.25V26.75ZM3.75196 25.5C3.75196 24.8097 3.19233 24.25 2.50196 24.25V25.75C2.36385 25.75 2.25196 25.6381 2.25196 25.5H3.75196ZM25.252 6C25.252 7.79491 23.7969 9.25 22.002 9.25V10.75C24.6253 10.75 26.752 8.62335 26.752 6H25.252ZM22.002 9.25H6.00196V10.75H22.002V9.25ZM6.00196 9.25C4.20702 9.25 2.75195 7.79492 2.75195 6H1.25195C1.25195 8.62334 3.3786 10.75 6.00196 10.75V9.25ZM2.75195 6C2.75195 4.20508 4.20702 2.75 6.00196 2.75V1.25C3.3786 1.25 1.25195 3.37666 1.25195 6H2.75195ZM6.00196 2.75H22.002V1.25H6.00196V2.75ZM22.002 2.75C23.7969 2.75 25.252 4.20509 25.252 6H26.752C26.752 3.37665 24.6253 1.25 22.002 1.25V2.75ZM19.0007 17.25H6.00196V18.75H19.0007V17.25ZM6.00196 17.25C4.20701 17.25 2.75195 15.795 2.75195 14H1.25195C1.25195 16.6234 3.3786 18.75 6.00196 18.75V17.25ZM2.75195 14C2.75195 12.2051 4.20703 10.75 6.00196 10.75V9.25C3.37859 9.25 1.25195 11.3767 1.25195 14H2.75195ZM22.0025 10.75C23.1643 10.7493 24.2381 11.3688 24.8192 12.375L26.1182 11.625C25.2691 10.1544 23.6997 9.24891 22.0015 9.25L22.0025 10.75ZM19.002 28.75C21.073 28.75 22.752 27.071 22.752 25H21.252C21.252 26.2426 20.2446 27.25 19.002 27.25V28.75ZM22.752 25C22.752 22.929 21.073 21.25 19.002 21.25V22.75C20.2446 22.75 21.252 23.7574 21.252 25H22.752ZM19.002 21.25C16.9308 21.25 15.252 22.929 15.252 25H16.752C16.752 23.7574 17.7592 22.75 19.002 22.75V21.25ZM15.252 25C15.252 27.071 16.9308 28.75 19.002 28.75V27.25C17.7592 27.25 16.752 26.2426 16.752 25H15.252ZM29.002 32.75C31.073 32.75 32.752 31.071 32.752 29H31.252C31.252 30.2426 30.2446 31.25 29.002 31.25V32.75ZM32.752 29C32.752 26.929 31.073 25.25 29.002 25.25V26.75C30.2446 26.75 31.252 27.7574 31.252 29H32.752ZM29.002 25.25C26.9308 25.25 25.252 26.929 25.252 29H26.752C26.752 27.7574 27.7592 26.75 29.002 26.75V25.25ZM25.252 29C25.252 31.071 26.9308 32.75 29.002 32.75V31.25C27.7592 31.25 26.752 30.2426 26.752 29H25.252ZM29.002 22.75C31.073 22.75 32.752 21.071 32.752 19H31.252C31.252 20.2426 30.2446 21.25 29.002 21.25V22.75ZM32.752 19C32.752 16.929 31.073 15.25 29.002 15.25V16.75C30.2446 16.75 31.252 17.7574 31.252 19H32.752ZM29.002 15.25C26.9308 15.25 25.252 16.929 25.252 19H26.752C26.752 17.7574 27.7592 16.75 29.002 16.75V15.25ZM25.252 19C25.252 21.071 26.9308 22.75 29.002 22.75V21.25C27.7592 21.25 26.752 20.2426 26.752 19H25.252ZM21.9543 24.1031L26.8209 21.1831L26.0491 19.8969L21.1825 22.8169L21.9543 24.1031ZM21.5066 26.8096L25.9386 28.5829L26.4958 27.1903L22.0638 25.417L21.5066 26.8096Z" fill="#0174F3"/>
</svg>
