<svg width="34" height="34" viewBox="0 0 34 34" fill="none" xmlns="http://www.w3.org/2000/svg">
<path d="M17 26.1426V32.9997M17 1V7.85716M7.85716 17H1M33.0012 17H26.144M17.0001 28.4295C23.3119 28.4295 28.4287 23.3127 28.4287 17.0009C28.4287 10.689 23.3119 5.57227 17.0001 5.57227C10.6882 5.57227 5.57147 10.689 5.57147 17.0009C5.57147 23.3127 10.6882 28.4295 17.0001 28.4295ZM17 20.8086C19.2092 20.8086 21.0001 19.0177 21.0001 16.8086C21.0001 14.5995 19.2092 12.8086 17 12.8086C14.7909 12.8086 13 14.5995 13 16.8086C13 19.0177 14.7909 20.8086 17 20.8086Z" stroke="#0174F3" stroke-width="1.5" stroke-linecap="round" stroke-linejoin="round"/>
</svg>
