<svg width="33" height="33" viewBox="0 0 33 33" fill="none" xmlns="http://www.w3.org/2000/svg">
<path d="M29.9327 11.331V3.0662C29.9327 1.92506 29.0075 1 27.866 1H3.06662C1.92526 1 1 1.92506 1 3.0662V25.7943C1 26.9355 1.92526 27.8605 3.06662 27.8605H11.3331M1 7.19858H29.9327M23.7328 24.7612C24.8742 24.7612 25.7994 23.8362 25.7994 22.695C25.7994 21.5538 24.8742 20.6288 23.7328 20.6288C22.5915 20.6288 21.6662 21.5538 21.6662 22.695C21.6662 23.8362 22.5915 24.7612 23.7328 24.7612ZM25.4882 14.7016L26.0985 16.7017C26.3058 17.3912 27.0128 17.8016 27.7146 17.6398L29.7427 17.1701C30.5331 16.9888 31.349 17.3448 31.7537 18.0473C32.1585 18.7498 32.0569 19.6341 31.5034 20.2267L30.083 21.757C29.5912 22.2857 29.5912 23.1043 30.083 23.6331L31.5034 25.1704C32.0542 25.7625 32.1548 26.6444 31.7518 27.3454C31.3487 28.0465 30.5359 28.4033 29.7469 28.2255L27.7188 27.7559C27.017 27.594 26.31 28.0043 26.1027 28.6938L25.4923 30.6939C25.2599 31.469 24.5465 32 23.7371 32C22.9278 32 22.2142 31.469 21.9818 30.6939L21.3729 28.6938C21.165 28.0042 20.4575 27.5939 19.7553 27.7559L17.7274 28.2255C16.9372 28.4072 16.1211 28.0515 15.7166 27.349C15.3122 26.6465 15.4142 25.7623 15.968 25.1704L17.3871 23.6386C17.8789 23.1099 17.8789 22.2912 17.3871 21.7625L15.968 20.2321C15.4095 19.641 15.3043 18.7539 15.7093 18.0487C16.1144 17.3435 16.9338 16.987 17.726 17.1714L19.7541 17.6412C20.4561 17.803 21.1636 17.3929 21.3715 16.7031L21.9804 14.703C22.2141 13.93 22.9262 13.4012 23.7338 13.4008C24.5414 13.4006 25.254 13.9289 25.4882 14.7016Z" stroke="#0174F3" stroke-width="1.5" stroke-linecap="round" stroke-linejoin="round"/>
</svg>
