<svg width="63" height="79" viewBox="0 0 63 79" fill="none" xmlns="http://www.w3.org/2000/svg">
<path d="M58.0781 1.97501H4.92188C3.29766 1.97501 1.96875 3.30813 1.96875 4.93751V48.3875C1.96875 50.0169 3.29766 51.35 4.92188 51.35H25.2492L22.8867 59.25H19.6875V61.225H43.3125V59.25H40.1133L37.7508 51.35H58.0781C59.7023 51.35 61.0312 50.0169 61.0312 48.3875V4.93751C61.0312 3.30813 59.7023 1.97501 58.0781 1.97501ZM31.5 7.90001C32.0414 7.90001 32.4844 8.34438 32.4844 8.88751C32.4844 9.43063 32.0414 9.87501 31.5 9.87501C30.9586 9.87501 30.5156 9.43063 30.5156 8.88751C30.5156 8.34438 30.9586 7.90001 31.5 7.90001ZM38.0461 59.25H24.9539L27.3164 51.35H35.6836L38.0461 59.25ZM59.0625 48.3875C59.0625 48.9306 58.6195 49.375 58.0781 49.375H4.92188C4.38047 49.375 3.9375 48.9306 3.9375 48.3875V45.425H59.0625V48.3875ZM59.0625 14.8125H53.9684C53.1809 14.8125 52.4303 15.1211 51.8766 15.6766L51.4705 16.0839C49.9939 15.3803 48.2344 15.9975 47.533 17.4788C46.8316 18.96 47.4469 20.7252 48.9234 21.4288C50.4 22.1324 52.1596 21.5152 52.8609 20.0339C53.2424 19.2316 53.2424 18.2811 52.8609 17.4788L53.267 17.0714C53.4516 16.8863 53.6977 16.7875 53.9684 16.7875H59.0625V31.1927L57.3768 29.5016C56.823 28.9461 56.0725 28.6375 55.285 28.6375H52.984C52.4426 27.0945 50.7568 26.2922 49.2188 26.8353C47.6807 27.3784 46.8809 29.0695 47.4223 30.6125C47.9637 32.1555 49.6494 32.9578 51.1875 32.4147C52.0242 32.1184 52.6887 31.4519 52.984 30.6125H55.285C55.5434 30.6125 55.8018 30.7113 55.9863 30.8964L59.0625 33.9823V43.45H51.5936L46.5486 38.3891C45.9949 37.8336 45.2443 37.525 44.4568 37.525H40.1871C39.6457 35.982 37.96 35.1797 36.4219 35.7228C34.8838 36.2659 34.084 37.957 34.6254 39.5C35.1668 41.043 36.8525 41.8453 38.3906 41.3022C39.2273 41.0059 39.8918 40.3394 40.1871 39.5H44.4568C44.7152 39.5 44.9736 39.5988 45.1582 39.7839L48.8127 43.45H12.2186L15.873 39.7839C16.0576 39.5988 16.3037 39.5 16.5744 39.5H22.8129C23.3543 41.043 25.04 41.8453 26.5781 41.3022C28.1162 40.7591 28.916 39.068 28.3746 37.525C27.8332 35.982 26.1475 35.1797 24.6094 35.7228C23.7727 36.0191 23.1082 36.6856 22.8129 37.525H16.5744C15.7869 37.525 15.0363 37.8336 14.4826 38.3891L9.4377 43.45H3.9375V33.575H9.03164C9.81914 33.575 10.5697 33.2664 11.1234 32.7109L12.2801 31.5506C13.892 31.8469 15.4301 30.773 15.7254 29.1683C16.0207 27.5513 14.9502 26.0083 13.3506 25.712C11.751 25.4158 10.2006 26.4897 9.90527 28.0944C9.74531 28.9584 9.9791 29.8349 10.5328 30.5138L9.74531 31.3038C9.56074 31.4889 9.31465 31.5877 9.04395 31.5877H3.9375V19.7377H10.016C10.5574 21.2806 12.2432 22.083 13.7812 21.5399C15.3193 20.9967 16.1191 19.3056 15.5777 17.7627C15.0363 16.2197 13.3506 15.4174 11.8125 15.9605C10.9758 16.2567 10.3113 16.9233 10.016 17.7627H3.9375V4.93751C3.9375 4.53016 4.1959 4.15985 4.57734 4.01172L9.56074 9.01094C10.1145 9.56641 10.865 9.87501 11.6525 9.87501H16.9066C17.448 11.418 19.1338 12.2203 20.6719 11.6772C22.21 11.1341 23.0098 9.44298 22.4684 7.90001C21.927 6.35704 20.2412 5.55469 18.7031 6.09782C17.8664 6.39407 17.202 7.06063 16.9066 7.90001H11.6402C11.3818 7.90001 11.1234 7.80126 10.9389 7.6161L7.29668 3.95001H30.5156V6.09782C28.9775 6.64094 28.1777 8.33204 28.7191 9.87501C29.2605 11.418 30.9463 12.2203 32.4844 11.6772C34.0225 11.1341 34.8223 9.44298 34.2809 7.90001C33.9855 7.06063 33.3211 6.39407 32.4844 6.09782V3.95001H47.8283L45.5766 6.20891C44.1 5.50532 42.3404 6.12251 41.6391 7.60376C40.9377 9.08501 41.5529 10.8502 43.0295 11.5538C44.5061 12.2573 46.2656 11.6402 46.967 10.1589C47.3484 9.35657 47.3484 8.4061 46.967 7.60376L50.6092 3.95001H58.0781C58.6195 3.95001 59.0625 4.39438 59.0625 4.93751V14.8125ZM51.1875 18.7625C51.1875 19.3056 50.7445 19.75 50.2031 19.75C49.6617 19.75 49.2188 19.3056 49.2188 18.7625C49.2188 18.2194 49.6617 17.775 50.2031 17.775C50.7445 17.775 51.1875 18.2194 51.1875 18.7625ZM51.1875 29.625C51.1875 30.1681 50.7445 30.6125 50.2031 30.6125C49.6617 30.6125 49.2188 30.1681 49.2188 29.625C49.2188 29.0819 49.6617 28.6375 50.2031 28.6375C50.7445 28.6375 51.1875 29.0819 51.1875 29.625ZM38.3906 38.5125C38.3906 39.0556 37.9477 39.5 37.4062 39.5C36.8648 39.5 36.4219 39.0556 36.4219 38.5125C36.4219 37.9694 36.8648 37.525 37.4062 37.525C37.9477 37.525 38.3906 37.9694 38.3906 38.5125ZM24.6094 38.5125C24.6094 37.9694 25.0523 37.525 25.5938 37.525C26.1352 37.525 26.5781 37.9694 26.5781 38.5125C26.5781 39.0556 26.1352 39.5 25.5938 39.5C25.0523 39.5 24.6094 39.0556 24.6094 38.5125ZM11.8125 28.6375C11.8125 28.0944 12.2555 27.65 12.7969 27.65C13.3383 27.65 13.7812 28.0944 13.7812 28.6375C13.7812 29.1806 13.3383 29.625 12.7969 29.625C12.2555 29.625 11.8125 29.1806 11.8125 28.6375ZM11.8125 18.7625C11.8125 18.2194 12.2555 17.775 12.7969 17.775C13.3383 17.775 13.7812 18.2194 13.7812 18.7625C13.7812 19.3056 13.3383 19.75 12.7969 19.75C12.2555 19.75 11.8125 19.3056 11.8125 18.7625ZM18.7031 8.88751C18.7031 8.34438 19.1461 7.90001 19.6875 7.90001C20.2289 7.90001 20.6719 8.34438 20.6719 8.88751C20.6719 9.43063 20.2289 9.87501 19.6875 9.87501C19.1461 9.87501 18.7031 9.43063 18.7031 8.88751ZM45.2812 8.88751C45.2812 9.43063 44.8383 9.87501 44.2969 9.87501C43.7555 9.87501 43.3125 9.43063 43.3125 8.88751C43.3125 8.34438 43.7555 7.90001 44.2969 7.90001C44.8383 7.90001 45.2812 8.34438 45.2812 8.88751Z" fill="#2085F5"/>
<path d="M42.3281 13.825H20.6719C19.0477 13.825 17.7188 15.1581 17.7188 16.7875V30.6125C17.7188 32.2419 19.0477 33.575 20.6719 33.575H42.3281C43.9523 33.575 45.2812 32.2419 45.2812 30.6125V16.7875C45.2812 15.1581 43.9523 13.825 42.3281 13.825ZM37.4062 15.8H39.375V20.7375H37.4062V15.8ZM27.5625 31.6H20.6719C20.1305 31.6 19.6875 31.1556 19.6875 30.6125V16.7875C19.6875 16.2444 20.1305 15.8 20.6719 15.8H27.5625V31.6ZM43.3125 30.6125C43.3125 31.1556 42.8695 31.6 42.3281 31.6H29.5312V15.8H35.4375V22.7125H41.3438V15.8H42.3281C42.8695 15.8 43.3125 16.2444 43.3125 16.7875V30.6125Z" fill="#2085F5"/>
</svg>
