<svg width="33" height="35" viewBox="0 0 33 35" fill="none" xmlns="http://www.w3.org/2000/svg">
<path d="M14.2851 22.0348L7.64257 18.7135V10.9639M14.2851 22.0348V14.2851M14.2851 22.0348L20.9277 18.7135V10.9639M7.64257 10.9639L14.2851 14.2851M7.64257 10.9639L14.2851 7.64257L20.9277 10.9639M14.2851 14.2851L20.9277 10.9639M5.42972 34.2129V24.965C1.25541 21.0978 -0.122821 15.0679 1.957 9.77126C4.03681 4.47466 9.14973 0.993598 14.84 1.00001C25.911 1.00001 27.8639 10.5948 32 20.9277H27.5716V25.3561C27.5716 27.8018 25.5889 29.7845 23.1432 29.7845H20.929V34.2129" stroke="#0174F3" stroke-width="1.5" stroke-linecap="round" stroke-linejoin="round"/>
</svg>
