<svg width="34" height="34" viewBox="0 0 34 34" fill="none" xmlns="http://www.w3.org/2000/svg">
<path d="M1 1V0.25H0.25V1H1ZM33 1H33.75V0.25H33V1ZM33 33V33.75H33.75V33H33ZM1 33H0.25V33.75H1V33ZM1 1.75H33V0.25H1V1.75ZM32.25 1V33H33.75V1H32.25ZM33 32.25H1V33.75H33V32.25ZM1.75 33V1H0.25V33H1.75ZM4.66667 32.75H29.3333V31.25H4.66667V32.75ZM29.3333 32.75C31.2203 32.75 32.75 31.2203 32.75 29.3333H31.25C31.25 30.3919 30.3919 31.25 29.3333 31.25V32.75ZM32.75 29.3333V4.66667H31.25V29.3333H32.75ZM32.75 4.66667C32.75 2.77969 31.2203 1.25 29.3333 1.25V2.75C30.3919 2.75 31.25 3.60813 31.25 4.66667H32.75ZM29.3333 1.25H4.66667V2.75H29.3333V1.25ZM4.66667 1.25C2.7797 1.25 1.25 2.7797 1.25 4.66667H2.75C2.75 3.60812 3.60812 2.75 4.66667 2.75V1.25ZM1.25 4.66667V29.3333H2.75V4.66667H1.25ZM1.25 29.3333C1.25 31.2203 2.77969 32.75 4.66667 32.75V31.25C3.60813 31.25 2.75 30.3919 2.75 29.3333H1.25ZM27 17.25C26.8619 17.25 26.75 17.1381 26.75 17H28.25C28.25 16.3097 27.6903 15.75 27 15.75V17.25ZM26.75 17C26.75 16.8619 26.8619 16.75 27 16.75V18.25C27.6903 18.25 28.25 17.6903 28.25 17H26.75ZM27 16.75C27.1381 16.75 27.25 16.8619 27.25 17H25.75C25.75 17.6903 26.3097 18.25 27 18.25V16.75ZM27.25 17C27.25 17.1381 27.1381 17.25 27 17.25V15.75C26.3097 15.75 25.75 16.3097 25.75 17H27.25ZM22.5 19.75C22.3619 19.75 22.25 19.6381 22.25 19.5H23.75C23.75 18.8097 23.1903 18.25 22.5 18.25V19.75ZM22.25 19.5C22.25 19.3619 22.3619 19.25 22.5 19.25V20.75C23.1903 20.75 23.75 20.1903 23.75 19.5H22.25ZM22.5 19.25C22.6381 19.25 22.75 19.3619 22.75 19.5H21.25C21.25 20.1903 21.8097 20.75 22.5 20.75V19.25ZM22.75 19.5C22.75 19.6381 22.6381 19.75 22.5 19.75V18.25C21.8097 18.25 21.25 18.8097 21.25 19.5H22.75ZM17.5 19.75C17.3619 19.75 17.25 19.6381 17.25 19.5H18.75C18.75 18.8097 18.1903 18.25 17.5 18.25V19.75ZM17.25 19.5C17.25 19.3619 17.3619 19.25 17.5 19.25V20.75C18.1903 20.75 18.75 20.1903 18.75 19.5H17.25ZM17.5 19.25C17.6381 19.25 17.75 19.3619 17.75 19.5H16.25C16.25 20.1903 16.8097 20.75 17.5 20.75V19.25ZM17.75 19.5C17.75 19.6381 17.6381 19.75 17.5 19.75V18.25C16.8097 18.25 16.25 18.8097 16.25 19.5H17.75ZM17.5 24.75C17.3619 24.75 17.25 24.6381 17.25 24.5H18.75C18.75 23.8097 18.1903 23.25 17.5 23.25V24.75ZM17.25 24.5C17.25 24.3619 17.3619 24.25 17.5 24.25V25.75C18.1903 25.75 18.75 25.1903 18.75 24.5H17.25ZM17.5 24.25C17.6381 24.25 17.75 24.3619 17.75 24.5H16.25C16.25 25.1903 16.8097 25.75 17.5 25.75V24.25ZM17.75 24.5C17.75 24.6381 17.6381 24.75 17.5 24.75V23.25C16.8097 23.25 16.25 23.8097 16.25 24.5H17.75ZM22.5 14.75C22.3619 14.75 22.25 14.6381 22.25 14.5H23.75C23.75 13.8097 23.1903 13.25 22.5 13.25V14.75ZM22.25 14.5C22.25 14.3619 22.3619 14.25 22.5 14.25V15.75C23.1903 15.75 23.75 15.1903 23.75 14.5H22.25ZM22.5 14.25C22.6381 14.25 22.75 14.3619 22.75 14.5H21.25C21.25 15.1903 21.8097 15.75 22.5 15.75V14.25ZM22.75 14.5C22.75 14.6381 22.6381 14.75 22.5 14.75V13.25C21.8097 13.25 21.25 13.8097 21.25 14.5H22.75ZM17.5 14.75C17.3619 14.75 17.25 14.6381 17.25 14.5H18.75C18.75 13.8097 18.1903 13.25 17.5 13.25V14.75ZM17.25 14.5C17.25 14.3619 17.3619 14.25 17.5 14.25V15.75C18.1903 15.75 18.75 15.1903 18.75 14.5H17.25ZM17.5 14.25C17.6381 14.25 17.75 14.3619 17.75 14.5H16.25C16.25 15.1903 16.8097 15.75 17.5 15.75V14.25ZM17.75 14.5C17.75 14.6381 17.6381 14.75 17.5 14.75V13.25C16.8097 13.25 16.25 13.8097 16.25 14.5H17.75ZM12.5 19.75C12.3619 19.75 12.25 19.6381 12.25 19.5H13.75C13.75 18.8097 13.1903 18.25 12.5 18.25V19.75ZM12.25 19.5C12.25 19.3619 12.3619 19.25 12.5 19.25V20.75C13.1903 20.75 13.75 20.1903 13.75 19.5H12.25ZM12.5 19.25C12.6381 19.25 12.75 19.3619 12.75 19.5H11.25C11.25 20.1903 11.8097 20.75 12.5 20.75V19.25ZM12.75 19.5C12.75 19.6381 12.6381 19.75 12.5 19.75V18.25C11.8097 18.25 11.25 18.8097 11.25 19.5H12.75ZM12.5 14.75C12.3619 14.75 12.25 14.6381 12.25 14.5H13.75C13.75 13.8097 13.1903 13.25 12.5 13.25V14.75ZM12.25 14.5C12.25 14.3619 12.3619 14.25 12.5 14.25V15.75C13.1903 15.75 13.75 15.1903 13.75 14.5H12.25ZM12.5 14.25C12.6381 14.25 12.75 14.3619 12.75 14.5H11.25C11.25 15.1903 11.8097 15.75 12.5 15.75V14.25ZM12.75 14.5C12.75 14.6381 12.6381 14.75 12.5 14.75V13.25C11.8097 13.25 11.25 13.8097 11.25 14.5H12.75ZM7.5 19.75C7.36189 19.75 7.25 19.6381 7.25 19.5H8.75C8.75 18.8097 8.19041 18.25 7.5 18.25V19.75ZM7.25 19.5C7.25 19.3619 7.36189 19.25 7.5 19.25V20.75C8.19041 20.75 8.75 20.1903 8.75 19.5H7.25ZM7.5 19.25C7.63811 19.25 7.75 19.3619 7.75 19.5H6.25C6.25 20.1903 6.80959 20.75 7.5 20.75V19.25ZM7.75 19.5C7.75 19.6381 7.63811 19.75 7.5 19.75V18.25C6.80959 18.25 6.25 18.8097 6.25 19.5H7.75ZM7.5 14.75C7.36189 14.75 7.25 14.6381 7.25 14.5H8.75C8.75 13.8097 8.19041 13.25 7.5 13.25V14.75ZM7.25 14.5C7.25 14.3619 7.36189 14.25 7.5 14.25V15.75C8.19041 15.75 8.75 15.1903 8.75 14.5H7.25ZM7.5 14.25C7.63811 14.25 7.75 14.3619 7.75 14.5H6.25C6.25 15.1903 6.80959 15.75 7.5 15.75V14.25ZM7.75 14.5C7.75 14.6381 7.63811 14.75 7.5 14.75V13.25C6.80959 13.25 6.25 13.8097 6.25 14.5H7.75ZM17.5 9.75C17.3619 9.75 17.25 9.63811 17.25 9.5H18.75C18.75 8.80959 18.1903 8.25 17.5 8.25V9.75ZM17.25 9.5C17.25 9.36189 17.3619 9.25 17.5 9.25V10.75C18.1903 10.75 18.75 10.1904 18.75 9.5H17.25ZM17.5 9.25C17.6381 9.25 17.75 9.36189 17.75 9.5H16.25C16.25 10.1904 16.8097 10.75 17.5 10.75V9.25ZM17.75 9.5C17.75 9.63811 17.6381 9.75 17.5 9.75V8.25C16.8097 8.25 16.25 8.80959 16.25 9.5H17.75Z" fill="#0174F3"/>
</svg>
