<svg width="70" height="27" viewBox="0 0 70 27" fill="none" xmlns="http://www.w3.org/2000/svg">
<g clip-path="url(#clip0_247_277)">
<path fill-rule="evenodd" clip-rule="evenodd" d="M5.47829 8.21311C5.34302 8.21311 5.3092 8.14495 5.37683 8.0427L6.08698 7.12255C6.15461 7.02031 6.32369 6.95215 6.45896 6.95215H18.5314C18.6667 6.95215 18.7005 7.05438 18.6329 7.15663L18.058 8.0427C17.9904 8.14495 17.8212 8.24718 17.7199 8.24718L5.47829 8.21311Z" fill="#6AD7E5"/>
<path fill-rule="evenodd" clip-rule="evenodd" d="M0.372082 11.3484C0.236816 11.3484 0.203 11.2802 0.270633 11.178L0.980775 10.2578C1.04841 10.1555 1.21749 10.0874 1.35276 10.0874H16.7731C16.9083 10.0874 16.9759 10.1897 16.9422 10.2919L16.6716 11.1098C16.6378 11.2461 16.5025 11.3143 16.3673 11.3143L0.372082 11.3484Z" fill="#6AD7E5"/>
<path fill-rule="evenodd" clip-rule="evenodd" d="M8.55544 14.4836C8.42017 14.4836 8.38635 14.3814 8.45398 14.2791L8.92741 13.4271C8.99502 13.3249 9.13032 13.2227 9.26554 13.2227H16.0289C16.1642 13.2227 16.2318 13.3249 16.2318 13.4612L16.1642 14.2791C16.1642 14.4154 16.0289 14.5177 15.9274 14.5177L8.55544 14.4836Z" fill="#6AD7E5"/>
<path fill-rule="evenodd" clip-rule="evenodd" d="M43.6572 7.59971C41.5267 8.14498 40.0726 8.55394 37.976 9.09925C37.4687 9.23553 37.435 9.26964 36.9953 8.75842C36.4881 8.17906 36.1161 7.80419 35.4059 7.46339C33.2755 6.40691 31.2127 6.71363 29.2852 7.97458C26.9856 9.47406 25.8021 11.6893 25.8359 14.4497C25.8697 17.1761 27.7296 19.4254 30.4011 19.8003C32.7007 20.107 34.6281 19.2891 36.1499 17.551C36.4543 17.1761 36.7248 16.7672 37.063 16.29C35.8455 16.29 34.3239 16.29 30.5364 16.29C29.8262 16.29 29.6572 15.847 29.8938 15.2677C30.3335 14.2112 31.1451 12.439 31.6185 11.553C31.7199 11.3485 31.9567 11.0077 32.4639 11.0077H44.7731C44.7055 11.9279 44.7055 12.848 44.5702 13.7682C44.1982 16.2219 43.2852 18.4712 41.7972 20.4478C39.3624 23.6854 36.1837 25.6961 32.1595 26.2414C28.8455 26.6844 25.7683 26.0369 23.063 23.9922C20.5605 22.0836 19.1402 19.5618 18.7683 16.4264C18.3287 12.7117 19.4108 9.3719 21.6427 6.44099C24.0436 3.27156 27.2224 1.26085 31.1113 0.545179C34.29 -0.0341779 37.3335 0.3407 40.0726 2.21509C41.8649 3.40789 43.1499 5.04372 43.9953 7.02035C44.1982 7.32706 44.063 7.49747 43.6572 7.59971Z" fill="#6AD7E5"/>
<path d="M54.8503 26.4457C51.773 26.3776 48.9662 25.4915 46.5991 23.4467C44.6039 21.7086 43.3528 19.4935 42.9469 16.8693C42.3382 13.0183 43.3865 9.61026 45.6861 6.57717C48.1547 3.30551 51.1305 1.60151 55.1547 0.885834C58.6039 0.272396 61.8503 0.613195 64.7923 2.6239C67.4639 4.46422 69.1208 6.95205 69.5605 10.2237C70.1353 14.8245 68.8164 18.5733 65.6716 21.7768C63.4397 24.0601 60.7005 25.4915 57.5556 26.139C56.6426 26.3094 55.7296 26.3434 54.8503 26.4457ZM62.8986 12.6775C62.8648 12.2345 62.8648 11.8936 62.7972 11.5528C62.1884 8.17892 59.1112 6.27045 55.8986 7.0202C52.7537 7.73589 50.7247 9.74662 49.9808 12.9501C49.372 15.6084 50.657 18.3006 53.0919 19.3912C54.9518 20.2091 56.8116 20.1069 58.6039 19.1867C61.2754 17.7894 62.7295 15.6084 62.8986 12.6775Z" fill="#6AD7E5"/>
</g>
<defs>
<clipPath id="clip0_247_277">
<rect width="70" height="26.5823" fill="white"/>
</clipPath>
</defs>
</svg>
