<svg width="33" height="35" viewBox="0 0 33 35" fill="none" xmlns="http://www.w3.org/2000/svg">
<path d="M20.9286 25.3571V28.6786C20.9286 29.9015 19.9372 30.8929 18.7143 30.8929H14.2857C13.0628 30.8929 12.0714 29.9015 12.0714 28.6786V25.3571M16.5 1V3.21429M1 16.5H3.21429M4.32143 5.42857L5.94524 6.9889M32 16.5H29.7857M28.6752 5.42857L27.0514 6.9889M16.5 30.8929V34.2143M16.5 19.8214V25.3571M16.5 19.8214L13.1786 16.5M16.5 19.8214L19.8214 16.5M11.9468 25.3571H21.0549C24.4116 23.691 26.5152 20.2472 26.4651 16.5C26.3682 11.0376 21.9633 6.63262 16.5008 6.53571C11.036 6.63272 6.63029 11.0411 6.53651 16.5059C6.4887 20.251 8.59194 23.6919 11.9468 25.3571Z" stroke="#0174F3" stroke-width="1.5" stroke-linecap="round" stroke-linejoin="round"/>
</svg>
