<svg width="62" height="62" viewBox="0 0 62 62" fill="none" xmlns="http://www.w3.org/2000/svg">
<path d="M61.0798 14.0265C61.0702 13.9984 61.0589 13.9708 61.0459 13.9442C61.0285 13.8921 61.0071 13.8415 60.9817 13.7928C60.962 13.7625 60.9402 13.7338 60.9163 13.7068C60.8896 13.6671 60.8605 13.6291 60.8292 13.593C60.8013 13.5663 60.7661 13.5446 60.7359 13.5203C60.7013 13.4906 60.6649 13.4631 60.6269 13.438L48.9704 6.72697C48.8232 6.64195 48.6561 6.59719 48.4861 6.59719C48.316 6.59719 48.1489 6.64195 48.0017 6.72697L36.3428 13.4416C36.3054 13.467 36.2697 13.4949 36.2361 13.5252C36.2033 13.5474 36.1716 13.5716 36.1417 13.5978C36.1101 13.6332 36.081 13.6709 36.0546 13.7105C36.034 13.7395 36.0073 13.7649 35.9892 13.7964C35.9647 13.8454 35.9436 13.8959 35.9261 13.9478C35.9165 13.9756 35.9007 14.0011 35.8923 14.0301C35.87 14.1123 35.8587 14.1969 35.8584 14.282V27.026L26.1442 32.6192V7.68241C26.1444 7.59689 26.1331 7.51175 26.1103 7.42932C26.103 7.40026 26.0861 7.37483 26.0765 7.34697C26.0594 7.29531 26.0385 7.24509 26.0134 7.19682C25.9965 7.16533 25.9686 7.13991 25.948 7.10964C25.9215 7.06988 25.8923 7.03187 25.8609 6.9958C25.8307 6.96997 25.7992 6.94571 25.7665 6.92314C25.7325 6.89371 25.6969 6.86621 25.6598 6.8408L13.9997 0.129788C13.8525 0.0447623 13.6854 0 13.5154 0C13.3453 0 13.1783 0.0447623 13.031 0.129788L1.37329 6.8408C1.33544 6.86556 1.29979 6.8935 1.26672 6.92436C1.23333 6.94653 1.20138 6.97079 1.17106 6.99701C1.13974 7.03245 1.11101 7.07008 1.08508 7.10964C1.06329 7.13991 1.03664 7.16533 1.01848 7.19682C0.993666 7.24503 0.973006 7.29526 0.956723 7.34697C0.943497 7.37334 0.931773 7.40042 0.921605 7.42811C0.899329 7.51104 0.88793 7.59652 0.887699 7.68241V47.607C0.887235 47.7775 0.931778 47.9451 1.01683 48.0928C1.10187 48.2407 1.22442 48.3633 1.37207 48.4485L24.6826 61.8706C24.7345 61.8968 24.7883 61.9187 24.8436 61.936C24.8692 61.9458 24.8934 61.9602 24.92 61.9675C25.0826 62.011 25.2539 62.011 25.4165 61.9675C25.4407 61.9614 25.4613 61.9481 25.483 61.9408C25.5416 61.9225 25.5983 61.899 25.6526 61.8706L48.9704 48.4485C49.118 48.3633 49.2406 48.2407 49.3257 48.0928C49.4106 47.9451 49.4553 47.7775 49.4548 47.607V34.8606L60.6244 28.4294C60.7731 28.3436 60.8962 28.22 60.9812 28.071C61.0663 27.922 61.1104 27.7532 61.1088 27.5817V14.2796C61.1096 14.1944 61.0998 14.1094 61.0798 14.0265ZM13.5141 2.09272L23.2246 7.6812L13.5129 13.2733L3.80363 7.68241L13.5141 2.09272ZM24.2007 9.35835V33.7369L18.5661 36.981L14.4865 39.3302V14.9553L20.1211 11.7112L24.2007 9.35835ZM24.2007 59.3435L2.83005 47.0452V9.36318L6.90969 11.71L12.543 14.9553V41.0123C12.5454 41.0488 12.5503 41.0853 12.5575 41.1212C12.5604 41.1693 12.5669 41.217 12.5769 41.2641C12.5892 41.3016 12.6046 41.3381 12.6229 41.3731C12.6364 41.4148 12.6534 41.4554 12.6738 41.4942C12.6961 41.527 12.7204 41.5586 12.7464 41.5887C12.7706 41.6244 12.7974 41.6583 12.8263 41.6904C12.8542 41.717 12.8893 41.7364 12.9196 41.7606C12.9526 41.7893 12.9874 41.8161 13.0237 41.8406L24.1873 48.1592L24.2007 59.3435ZM25.1694 46.4869L15.4747 40.9989L25.6574 35.1368L36.8296 28.7054L46.5328 34.2916L39.4125 38.3554L25.1694 46.4869ZM47.5136 47.0404L26.1417 59.3495V48.1712L41.9711 39.1377L47.5136 35.971V47.0404ZM47.5136 32.6144L43.434 30.2737L37.7994 27.0296V15.9591L41.8792 18.3083L47.5136 21.555V32.6144ZM48.4824 19.8656L38.7707 14.2747L48.4824 8.68506L58.1917 14.2735L48.4824 19.8656ZM49.4511 32.6144V21.555L55.0978 18.3083L59.1763 15.9591V27.026L49.4511 32.6144Z" fill="#FF3D2E"/>
</svg>
