<svg width="32" height="32" viewBox="0 0 32 32" fill="none" xmlns="http://www.w3.org/2000/svg">
<g clip-path="url(#clip0_382_670)">
<mask id="mask0_382_670" style="mask-type:luminance" maskUnits="userSpaceOnUse" x="0" y="0" width="32" height="32">
<path d="M0 0H32V32H0V0Z" fill="white"/>
</mask>
<g mask="url(#mask0_382_670)">
<path d="M31.5259 7.23949C31.5209 7.22496 31.5151 7.21076 31.5084 7.19699C31.4994 7.17011 31.4884 7.14398 31.4753 7.11887C31.4651 7.10325 31.4538 7.08842 31.4415 7.07449C31.4277 7.05397 31.4127 7.03435 31.3965 7.01574C31.3821 7.00199 31.364 6.99074 31.3484 6.97823C31.3305 6.96289 31.3117 6.94869 31.2921 6.93574L25.2759 3.47199C25.1999 3.42811 25.1136 3.405 25.0259 3.405C24.9381 3.405 24.8519 3.42811 24.7759 3.47199L18.7584 6.93761C18.7391 6.9507 18.7207 6.96511 18.7033 6.98074C18.6864 6.99219 18.67 7.00471 18.6546 7.01823C18.6383 7.03651 18.6232 7.05594 18.6096 7.07636C18.599 7.09136 18.5852 7.10449 18.5759 7.12074C18.5632 7.14599 18.5524 7.1721 18.5433 7.19887C18.5384 7.21323 18.5302 7.22636 18.5259 7.24136C18.5144 7.28375 18.5085 7.32745 18.5084 7.37136V13.9489L13.4946 16.8357V3.96511C13.4947 3.92098 13.4888 3.87703 13.4771 3.83449C13.4733 3.81949 13.4646 3.80636 13.4596 3.79199C13.4508 3.76532 13.44 3.7394 13.4271 3.71449C13.4184 3.69823 13.404 3.68511 13.3933 3.66949C13.3796 3.64897 13.3646 3.62935 13.3484 3.61074C13.3328 3.5974 13.3165 3.58488 13.2996 3.57323C13.2821 3.55804 13.2637 3.54385 13.2446 3.53074L7.22649 0.0669873C7.15048 0.0231031 7.06426 0 6.97649 0C6.88872 0 6.8025 0.0231031 6.72649 0.0669873L0.709612 3.53074C0.690077 3.54351 0.671676 3.55794 0.654612 3.57387C0.637375 3.58531 0.620884 3.59783 0.605237 3.61136C0.589072 3.62965 0.574241 3.64907 0.560861 3.66949C0.549612 3.68511 0.535861 3.69823 0.526486 3.71449C0.513679 3.73937 0.503016 3.7653 0.494612 3.79199C0.487785 3.80559 0.481734 3.81957 0.476486 3.83387C0.464989 3.87667 0.459105 3.92079 0.458986 3.96511V24.5714C0.458747 24.6594 0.481737 24.7459 0.525633 24.8221C0.569529 24.8984 0.632777 24.9617 0.708986 25.0057L12.7402 31.9332C12.767 31.9467 12.7948 31.958 12.8233 31.967C12.8365 31.972 12.849 31.9795 12.8628 31.9832C12.9467 32.0057 13.0351 32.0057 13.119 31.9832C13.1315 31.9801 13.1421 31.9732 13.1533 31.9695C13.1836 31.96 13.2128 31.9479 13.2408 31.9332L25.2759 25.0057C25.352 24.9617 25.4153 24.8984 25.4592 24.8221C25.5031 24.7459 25.5261 24.6594 25.5259 24.5714V17.9926L31.2908 14.6732C31.3676 14.629 31.4311 14.5651 31.475 14.4883C31.5189 14.4114 31.5416 14.3243 31.5408 14.2357V7.37011C31.5412 7.32612 31.5362 7.28226 31.5259 7.23949ZM6.97586 1.08011L11.9877 3.96449L6.97524 6.85074L1.96398 3.96511L6.97586 1.08011ZM12.4915 4.83011V17.4126L9.58333 19.087L7.47774 20.2995V7.71887L10.3859 6.04449L12.4915 4.83011ZM12.4915 30.6289L1.46149 24.2814V4.83261L3.56711 6.04387L6.47462 7.71887V21.1676C6.47588 21.1865 6.47838 21.2053 6.48211 21.2239C6.48361 21.2487 6.48695 21.2733 6.49211 21.2976C6.49846 21.317 6.50641 21.3358 6.51586 21.3539C6.52282 21.3754 6.53161 21.3963 6.54211 21.4163C6.55366 21.4333 6.56618 21.4496 6.57962 21.4651C6.59212 21.4835 6.6059 21.5011 6.62086 21.5176C6.63524 21.5314 6.65336 21.5414 6.66899 21.5539C6.68606 21.5687 6.704 21.5825 6.72274 21.5951L12.4846 24.8563L12.4915 30.6289ZM12.9915 23.9932L7.98774 21.1607L13.2433 18.1351L19.0096 14.8157L24.0177 17.6989L20.3428 19.7963L12.9915 23.9932ZM24.524 24.2789L13.4933 30.632V24.8626L21.6633 20.2001L24.524 18.5657V24.2789ZM24.524 16.8332L22.4184 15.6251L19.5102 13.9507V8.23698L21.6159 9.44946L24.524 11.1251V16.8332ZM25.024 10.2532L20.0115 7.36761L25.024 4.48261L30.0352 7.36699L25.024 10.2532ZM25.524 16.8332V11.1251L28.4384 9.44946L30.5434 8.23698V13.9489L25.524 16.8332Z" fill="#FF3D2E"/>
</g>
</g>
<defs>
<clipPath id="clip0_382_670">
<rect width="32" height="32" fill="white"/>
</clipPath>
</defs>
</svg>
