<svg width="32" height="32" viewBox="0 0 32 32" fill="none" xmlns="http://www.w3.org/2000/svg">
<path d="M5 12C2.79086 12 1 13.7909 1 16V20C1 22.2091 2.79086 24 5 24H6C6.55228 24 7 23.5523 7 23V13C7 12.4477 6.55228 12 6 12H5ZM5 12C5 5.92487 9.92487 1 16 1C18.9174 1 21.7153 2.15893 23.7782 4.22183C25.8411 6.28473 27 9.08262 27 12M27 24H26C25.4477 24 25 23.5523 25 23V13C25 12.4477 25.4477 12 26 12H27M27 24C29.2091 24 31 22.2091 31 20V16C31 13.7909 29.2091 12 27 12M27 24V25C27 27.2091 25.2091 29 23 29H20M20 29C20 27.8954 19.1046 27 18 27H16C14.8954 27 14 27.8954 14 29C14 30.1046 14.8954 31 16 31H18C19.1046 31 20 30.1046 20 29ZM12 20.5898C14.2667 22.6554 17.7333 22.6554 20 20.5898M12 13.3125V15.0618M20 13.3125V15.0618" stroke="#0174F3" stroke-width="1.5" stroke-linecap="round" stroke-linejoin="round"/>
</svg>
