<svg width="33" height="33" viewBox="0 0 33 33" fill="none" xmlns="http://www.w3.org/2000/svg">
<path d="M11.3408 31.9942V17.5422M11.3408 17.5422L15.4699 21.6714M11.3408 17.5422L7.21168 21.6714M26.9201 21.4649C29.5267 20.812 31.4925 18.667 31.9159 16.0136C32.3394 13.36 31.1389 10.7097 28.8649 9.27797C26.591 7.84626 23.6822 7.90928 21.4724 9.43813C20.6585 5.05632 17.1244 1.69159 12.7079 1.09373C8.29144 0.495878 3.98993 2.79991 2.04037 6.80763C0.090813 10.8154 0.933435 15.6218 4.13004 18.7272M21.6636 17.5422V31.9942M21.6636 31.9942L17.5345 27.8651M21.6636 31.9942L25.7927 27.8651" stroke="#0174F3" stroke-width="1.5" stroke-linecap="round" stroke-linejoin="round"/>
</svg>
