<svg width="66" height="40" viewBox="0 0 66 40" fill="none" xmlns="http://www.w3.org/2000/svg">
<g clip-path="url(#clip0_247_262)">
<path d="M15.6043 10.4421H28.0262V11.4283H16.7433V18.8501H27.3532V19.8363H16.7433V27.9847H28.1555V28.9709H15.6043V10.4421ZM29.1388 10.4421H30.4588L36.3074 18.5905L42.2853 10.4421L50.4162 0.0917969L37.0579 19.447L43.9415 28.9709H42.5698L36.3074 20.3034L30.0191 28.9709H28.6732L35.6086 19.447L29.1388 10.4421ZM44.4334 11.4283V10.4421H58.5886V11.4283H52.0676V28.9705H50.9286V11.4283H44.4334ZM0.0644531 10.4421H1.48792L21.1145 39.7767L13.0036 28.9709L1.25469 11.8434L1.20296 28.9709H0.0644531V10.4421ZM58.4745 27.687C58.2412 27.687 58.0669 27.507 58.0669 27.2745C58.0669 27.0416 58.2412 26.8616 58.474 26.8616C58.7095 26.8616 58.8812 27.0416 58.8812 27.2745C58.8812 27.507 58.71 27.687 58.4745 27.687ZM59.5929 26.6012H60.2025C60.211 26.931 60.4522 27.1523 60.8063 27.1523C61.2023 27.1523 61.4266 26.9145 61.4266 26.4683V23.6434H62.0469V26.471C62.0469 27.2745 61.5818 27.7372 60.8117 27.7372C60.0892 27.7372 59.5929 27.2883 59.5929 26.6012ZM62.8581 26.5656H63.4731C63.5257 26.9447 63.8967 27.1856 64.4314 27.1856C64.9295 27.1856 65.2952 26.9278 65.2952 26.5736C65.2952 26.2692 65.0629 26.0861 64.5335 25.9616L64.0185 25.8372C63.296 25.6683 62.966 25.319 62.966 24.7318C62.966 24.0198 63.5475 23.5461 64.4198 23.5461C65.2314 23.5461 65.8245 24.0198 65.8602 24.6927H65.2564C65.1984 24.3247 64.8773 24.0945 64.4118 24.0945C63.9212 24.0945 63.5948 24.3301 63.5948 24.6901C63.5948 24.9754 63.8053 25.139 64.3262 25.2607L64.7663 25.3687C65.586 25.5598 65.924 25.8923 65.924 26.4932C65.924 27.2576 65.3309 27.7372 64.3841 27.7372C63.498 27.7372 62.9023 27.2802 62.8581 26.5656Z" fill="white"/>
</g>
<defs>
<clipPath id="clip0_247_262">
<rect width="66" height="40" fill="white"/>
</clipPath>
</defs>
</svg>
