<svg width="32" height="38" viewBox="0 0 32 38" fill="none" xmlns="http://www.w3.org/2000/svg">
<g clip-path="url(#clip0_382_679)">
<mask id="mask0_382_679" style="mask-type:luminance" maskUnits="userSpaceOnUse" x="0" y="0" width="32" height="38">
<path d="M0 0H32V37.7143H0V0Z" fill="white"/>
</mask>
<g mask="url(#mask0_382_679)">
<path d="M16.2114 37.7155H16.2068C15.6902 37.7155 15.2072 37.5725 14.7928 37.3211L14.8065 37.3289L10.331 34.5994C9.66361 34.2128 9.98965 34.0777 10.2091 33.9975C10.9333 33.766 11.6257 33.4396 12.2693 33.0264L12.2328 33.0484C12.2861 33.0233 12.3448 33.0127 12.4032 33.0176C12.4616 33.0226 12.5178 33.0429 12.5665 33.0766L12.5649 33.075L16.0026 35.1792C16.0669 35.2148 16.1387 35.2331 16.2115 35.2329C16.2845 35.2327 16.3562 35.2136 16.4202 35.1776L16.4171 35.1792L29.8175 27.201C29.8797 27.1619 29.931 27.1069 29.9668 27.0415C30.0025 26.976 30.0215 26.9021 30.0216 26.8271V10.8787C30.0211 10.803 30.0017 10.7288 29.9654 10.663C29.9291 10.5973 29.8772 10.5423 29.8144 10.503L29.8129 10.5015L16.4171 2.53121C16.3537 2.49468 16.2822 2.47564 16.2096 2.47591C16.137 2.47619 16.0657 2.49578 16.0026 2.53277L16.0042 2.53121L2.61138 10.503C2.54745 10.5417 2.49433 10.5967 2.45721 10.6629C2.42008 10.7289 2.40023 10.8038 2.39957 10.8802V26.8286C2.39957 26.9874 2.48338 27.1241 2.60834 27.1963L2.60985 27.1979L6.28224 29.3854C8.27385 30.4131 9.49292 29.2031 9.49292 27.9883V12.2395C9.49292 12.0195 9.66663 11.8404 9.87993 11.8404H11.5851C11.7985 11.8404 11.9722 12.0179 11.9722 12.2395V27.9883C11.9722 30.7305 10.5245 32.3035 8.00414 32.3035L7.90357 32.3051C6.83998 32.3068 5.79707 32.0021 4.89252 31.425L1.403 29.354C0.975495 29.0968 0.620802 28.7287 0.374288 28.2861C0.127775 27.8436 -0.00194956 27.3421 -0.00195312 26.8318V10.8802C-0.000429312 9.81164 0.558809 8.87978 1.39081 8.37377L1.40452 8.36592L14.8065 0.37992C15.2406 0.134465 15.7279 0.00644947 16.2231 0.00782344C16.7182 0.00919742 17.2048 0.139916 17.6376 0.387777L17.6225 0.37992L31.0228 8.36592C31.8685 8.87978 32.4262 9.81164 32.4293 10.8802V26.8302C32.4288 27.3381 32.2999 27.8371 32.0554 28.278C31.8109 28.7188 31.4592 29.0865 31.035 29.3445L31.0212 29.3524L17.6239 37.332C17.1972 37.5873 16.7123 37.7207 16.219 37.7186H16.2083L16.2114 37.7155Z" fill="#6CAF6A"/>
<path d="M20.3512 26.7285C14.4875 26.7285 13.2578 23.9533 13.2578 21.6229V21.6213C13.2578 21.4014 13.4301 21.2237 13.6434 21.2237H15.3805C15.5741 21.2237 15.7341 21.3699 15.7645 21.5601V21.5617C16.0251 23.3814 16.8052 24.2991 20.3512 24.2991C23.1748 24.2991 24.3741 23.6407 24.3741 22.0959C24.3741 21.2049 24.0342 20.5449 19.6472 20.1017C15.9809 19.7246 13.7135 18.8918 13.7135 15.8668C13.7135 13.0791 15.9931 11.4149 19.8087 11.4149C24.1028 11.4149 26.227 12.9518 26.4952 16.2487L26.4967 16.2832C26.4967 16.3891 26.4559 16.4906 26.3833 16.5655C26.3108 16.6403 26.2123 16.6824 26.1097 16.6824H24.3832C24.2957 16.682 24.211 16.651 24.1429 16.5945C24.0748 16.5379 24.0274 16.4592 24.0083 16.3712V16.368C23.5908 14.454 22.5759 13.8428 19.8239 13.8428C16.7412 13.8428 16.3832 14.9506 16.3832 15.7787C16.3832 16.7845 16.8068 17.0768 20.9683 17.6441C25.0857 18.2066 27.0422 19.0002 27.0422 21.9843C27.0361 24.9999 24.6026 26.7253 20.3558 26.7253L20.3512 26.7285Z" fill="#6CAF6A"/>
</g>
</g>
<defs>
<clipPath id="clip0_382_679">
<rect width="32" height="37.7143" fill="white"/>
</clipPath>
</defs>
</svg>
