<svg width="62" height="71" viewBox="0 0 62 71" fill="none" xmlns="http://www.w3.org/2000/svg">
<g clip-path="url(#clip0_247_255)">
<mask id="mask0_247_255" style="mask-type:luminance" maskUnits="userSpaceOnUse" x="0" y="0" width="62" height="71">
<path d="M0 0H62V70.8571H0V0Z" fill="white"/>
</mask>
<g mask="url(#mask0_247_255)">
<path d="M31.4099 70.8594H31.401C30.4002 70.8594 29.4643 70.5907 28.6613 70.1184L28.6879 70.1331L20.0168 65.0048C18.7236 64.2785 19.3553 64.0247 19.7805 63.8741C21.1836 63.439 22.5251 62.826 23.7722 62.0495L23.7013 62.0908C23.8046 62.0437 23.9183 62.0239 24.0315 62.0331C24.1447 62.0425 24.2537 62.0805 24.3479 62.144L24.3449 62.1409L31.0055 66.0942C31.13 66.161 31.2691 66.1956 31.4102 66.195C31.5516 66.1947 31.6905 66.1589 31.8145 66.0912L31.8085 66.0942L57.7717 51.1049C57.8922 51.0314 57.9918 50.9282 58.061 50.8052C58.1303 50.6821 58.167 50.5434 58.1673 50.4024V20.4387C58.1662 20.2964 58.1287 20.157 58.0584 20.0336C57.988 19.9101 57.8874 19.8066 57.7657 19.7329L57.7629 19.7301L31.8085 4.75557C31.6857 4.68695 31.5472 4.65117 31.4065 4.65168C31.2659 4.65221 31.1277 4.689 31.0055 4.75851L31.0085 4.75557L5.05992 19.7329C4.93606 19.8056 4.83314 19.9089 4.76122 20.0332C4.68928 20.1574 4.65081 20.298 4.64953 20.4415V50.4052C4.64953 50.7035 4.81192 50.9604 5.05402 51.0961L5.05696 51.0991L12.1722 55.2088C16.031 57.1397 18.3929 54.8664 18.3929 52.5841V22.9954C18.3929 22.5821 18.7295 22.2455 19.1427 22.2455H22.4465C22.8599 22.2455 23.1965 22.5791 23.1965 22.9954V52.5841C23.1965 57.7361 20.3916 60.6914 15.5084 60.6914L15.3135 60.6944C13.2528 60.6976 11.2322 60.1251 9.47963 59.0409L2.71867 55.1498C1.89039 54.6668 1.20317 53.975 0.72555 53.1435C0.24793 52.3122 -0.00341106 51.37 -0.00341797 50.4113V20.4415C-0.000465582 18.434 1.08306 16.6832 2.69506 15.7325L2.72163 15.7178L28.6879 0.713759C29.529 0.252601 30.4732 0.0120876 31.4326 0.014669C32.3918 0.0172504 33.3347 0.262844 34.1733 0.72852L34.1439 0.713759L60.107 15.7178C61.7456 16.6832 62.8262 18.434 62.8322 20.4415V50.4082C62.8311 51.3625 62.5814 52.3 62.1077 53.1283C61.634 53.9566 60.9525 54.6473 60.1308 55.1321L60.104 55.1468L34.1467 70.1389C33.32 70.6185 32.3804 70.8691 31.4248 70.8652H31.404L31.4099 70.8594Z" fill="#6CAF6A"/>
<path d="M39.4324 50.2173C28.0715 50.2173 25.689 45.0033 25.689 40.625V40.622C25.689 40.2087 26.0227 39.875 26.436 39.875H29.8017C30.1767 39.875 30.4867 40.1496 30.5457 40.5069V40.5099C31.0505 43.9287 32.5621 45.6529 39.4324 45.6529C44.9031 45.6529 47.2267 44.4159 47.2267 41.5136C47.2267 39.8396 46.5683 38.5996 38.0684 37.767C30.965 37.0584 26.5718 35.4937 26.5718 29.8104C26.5718 24.5729 30.9885 21.4463 38.3813 21.4463C46.7011 21.4463 50.8167 24.3337 51.3364 30.5279L51.3393 30.5927C51.3393 30.7916 51.2602 30.9824 51.1196 31.1231C50.9791 31.2637 50.7883 31.3427 50.5894 31.3427H47.2444C47.0749 31.342 46.9109 31.2837 46.7789 31.1776C46.6469 31.0713 46.555 30.9234 46.5181 30.7582V30.7521C45.7091 27.1561 43.7428 26.0077 38.4108 26.0077C32.4381 26.0077 31.7444 28.0891 31.7444 29.645C31.7444 31.5346 32.5651 32.0837 40.6281 33.1496C48.6054 34.2064 52.3963 35.6974 52.3963 41.304C52.3844 46.9696 47.6696 50.2113 39.4413 50.2113L39.4324 50.2173Z" fill="#6CAF6A"/>
</g>
</g>
<defs>
<clipPath id="clip0_247_255">
<rect width="62" height="70.8571" fill="white"/>
</clipPath>
</defs>
</svg>
