<svg width="120" height="30" viewBox="0 0 120 30" fill="none" xmlns="http://www.w3.org/2000/svg">
<path d="M41.4478 9.27637H44.9693L52.4324 19.2202V9.27637H55.6832V23.3663H52.1857L44.6985 13.4432V23.3663H41.4478V9.27637Z" fill="white"/>
<path d="M70.214 23.3662H67.1847V21.7923C66.4951 22.8999 65.0915 23.5236 63.3186 23.5236C60.5108 23.5236 58.6875 21.873 58.6875 19.4974V13.2207H61.7168V18.9781C61.7168 20.367 62.7518 21.333 64.3031 21.333C66.0026 21.333 67.1847 20.246 67.1847 18.7567V13.2207H70.214V23.3662Z" fill="white"/>
<path d="M80.7552 23.206L77.8491 19.8242L74.9425 23.206H71.7156L76.199 17.9119L72.0609 13.0605H75.3612L77.8491 15.98L80.3111 13.0605H83.6368L79.4738 17.9119L83.9567 23.206H80.7552Z" fill="white"/>
<path d="M90.1141 10.1611V13.2203H93.5626V15.2939H90.1141V20.3302C90.1141 20.4994 90.196 20.6616 90.3427 20.7813C90.4887 20.901 90.6869 20.9684 90.8943 20.9686H93.5626V23.3619H91.5671C88.8576 23.3619 87.0847 22.0733 87.0847 19.8207V15.2959H84.6467V13.2203H86.1763C86.8898 13.2203 87.3052 12.8731 87.3052 12.2986V10.1611H90.1141Z" fill="white"/>
<path d="M101.199 20.1753V9.27637H104.448V19.3402C104.448 22.058 102.848 23.3663 100.139 23.3663H96.3557V20.9731H100.223C100.481 20.9731 100.73 20.889 100.913 20.7394C101.096 20.5898 101.199 20.3869 101.199 20.1753Z" fill="white"/>
<path d="M106.396 18.6356H109.525C109.698 20.2095 110.979 21.2118 113.048 21.2118C114.895 21.2118 116.177 20.6088 116.177 19.3606C116.177 16.3407 106.91 18.4339 106.91 13.0396C106.912 10.725 109.35 9.1167 112.854 9.1167C116.499 9.1167 118.962 10.8273 119.112 13.4645H116C115.853 12.2369 114.676 11.4116 112.848 11.4116C111.148 11.4116 110.089 12.0559 110.089 13.0415C110.089 16.1617 119.477 13.8285 119.477 19.3222C119.477 21.9387 116.841 23.5293 113.049 23.5293C109.133 23.5293 106.571 21.5964 106.399 18.6376" fill="white"/>
<path fill-rule="evenodd" clip-rule="evenodd" d="M16.1545 6.45272C15.2452 5.14987 12.972 5.14987 12.0627 6.45272L2.15303 20.6518C1.24375 21.9547 2.38035 23.5833 4.1989 23.5833H11.935C11.1579 23.0173 10.8701 22.0383 11.4582 21.1983L18.9633 10.4774L16.1545 6.45272Z" fill="#80EEC0"/>
<path d="M22.4335 9.56755C23.186 8.50157 25.0672 8.50157 25.8198 9.56755L34.0209 21.185C34.7734 22.2509 33.8328 23.5834 32.3277 23.5834H15.9255C14.4205 23.5834 13.4799 22.2509 14.2324 21.185L22.4335 9.56755Z" fill="#00DC82"/>
</svg>
