<svg width="34" height="41" viewBox="0 0 34 41" fill="none" xmlns="http://www.w3.org/2000/svg">
<path d="M32.0603 7.47846L30.7204 6.77048L31.4785 6.26632C31.7016 6.11796 31.7554 5.82616 31.5985 5.61511C31.4414 5.40373 31.1333 5.35351 30.9102 5.50154L30.1525 6.0057L29.9017 4.57331C29.8739 4.41478 29.7619 4.28086 29.6054 4.2185C29.4489 4.15646 29.2692 4.17452 29.1304 4.26708L24.845 7.11807C24.6896 7.22146 24.6109 7.39969 24.6417 7.57693L24.9703 9.45309L23.3487 10.532C21.1387 7.80965 17.6662 6.05001 13.7659 6.05001C7.10536 6.05001 1.68652 11.1766 1.68652 17.4779C1.68652 23.7796 7.10536 28.9062 13.7659 28.9062C20.4268 28.9062 25.8456 23.7796 25.8456 17.4779C25.8456 15.2014 25.1354 13.0797 23.9177 11.2961L25.5389 10.2175L27.2941 11.1448C27.369 11.1845 27.4523 11.2042 27.5349 11.2042C27.6348 11.2042 27.734 11.1756 27.819 11.1192L32.1047 8.26818C32.2435 8.17562 32.3226 8.02201 32.3139 7.86184C32.3042 7.70166 32.2088 7.55691 32.0603 7.47846ZM24.8568 17.4783C24.8568 23.2643 19.881 27.9717 13.7652 27.9717C7.64936 27.9717 2.67356 23.2643 2.67356 17.4783C2.67356 11.6923 7.64936 6.98481 13.7652 6.98481C17.3321 6.98481 20.509 8.58755 22.5393 11.0699L20.8497 12.1938C19.1951 10.2123 16.6354 8.93711 13.7652 8.93711C8.78732 8.93711 4.7375 12.7685 4.7375 17.4779C4.7375 22.1874 8.78732 26.0188 13.7652 26.0188C18.7431 26.0188 22.7929 22.1874 22.7929 17.4779C22.7929 15.8188 22.2884 14.2695 21.4197 12.9573L23.1086 11.8337C24.2133 13.4654 24.8568 15.4016 24.8568 17.4783ZM13.361 17.7471C13.4571 17.8764 13.6101 17.9457 13.7655 17.9457C13.8637 17.9457 13.963 17.9181 14.0493 17.8607L15.579 16.8432C15.6567 17.0414 15.7015 17.2548 15.7015 17.4786C15.7015 18.4886 14.8327 19.3101 13.7652 19.3101C12.6977 19.3101 11.8293 18.4886 11.8293 17.4786C11.8293 16.4686 12.6977 15.6468 13.7652 15.6468C14.2395 15.6468 14.6738 15.8096 15.0107 16.0784L13.4807 17.0962C13.258 17.2446 13.2042 17.536 13.361 17.7471ZM13.7652 14.712C12.153 14.712 10.8412 15.953 10.8412 17.4783C10.8412 19.0036 12.153 20.2446 13.7652 20.2446C15.3778 20.2446 16.6892 19.0036 16.6892 17.4783C16.6892 17.0542 16.5848 16.6538 16.4037 16.294L18.1057 15.1616C18.5158 15.8467 18.7528 16.636 18.7528 17.4779C18.7528 20.0801 16.515 22.1969 13.7649 22.1969C11.0147 22.1969 8.77691 20.0798 8.77691 17.4779C8.77691 14.8761 11.0147 12.759 13.7649 12.759C15.2709 12.759 16.6202 13.3964 17.5357 14.3982L15.8371 15.5283C15.3073 15.0244 14.5743 14.712 13.7652 14.712ZM13.7652 11.8245C10.47 11.8245 7.78952 14.3608 7.78952 17.4783C7.78952 20.5958 10.47 23.132 13.7652 23.132C17.0604 23.132 19.7412 20.5958 19.7412 17.4783C19.7412 16.4365 19.4404 15.4603 18.919 14.6214L20.6113 13.4956C21.3677 14.6549 21.8052 16.019 21.8052 17.4783C21.8052 21.6724 18.1984 25.0846 13.7652 25.0846C9.33201 25.0846 5.72558 21.6724 5.72558 17.4783C5.72558 13.2842 9.33201 9.87191 13.7652 9.87191C16.3017 9.87191 18.5665 10.9902 20.041 12.7321L18.35 13.8569C17.253 12.6159 15.605 11.8245 13.7652 11.8245ZM25.6666 7.71413L29.0551 5.45986L29.2553 6.60242L25.8668 8.8567L25.6666 7.71413ZM27.504 10.186L26.4351 9.62147L29.8236 7.3672L30.8925 7.93175L27.504 10.186Z" fill="#0174F3"/>
</svg>
