<svg width="28" height="35" viewBox="0 0 28 35" fill="none" xmlns="http://www.w3.org/2000/svg">
<path fill-rule="evenodd" clip-rule="evenodd" d="M17.5944 17.9916L25.7811 26.0529C25.9679 26.2369 26.2713 26.2369 26.4583 26.0529C26.6451 25.8688 26.6451 25.57 26.4583 25.3861L18.2717 17.3248C19.8451 15.6168 20.8044 13.35 20.8044 10.8645C20.8044 5.55435 16.4264 1.24316 11.0337 1.24316C5.64093 1.24316 1.2627 5.55435 1.2627 10.8645C1.2627 16.1746 5.64093 20.4856 11.0337 20.4856C13.5578 20.4856 15.8599 19.541 17.5944 17.9916ZM17.2701 16.9937C18.8619 15.4236 19.8468 13.2564 19.8468 10.8645C19.8468 6.07471 15.8977 2.18614 11.0337 2.18614C6.16938 2.18614 2.22034 6.07471 2.22034 10.8645C2.22034 15.6541 6.16938 19.5426 11.0337 19.5426C13.4628 19.5426 15.6637 18.5729 17.2582 17.0055L17.2701 16.9937ZM16.4452 15.4932V8.12856C16.4452 7.86807 16.2308 7.65697 15.9665 7.65697H13.6266V7.09299C13.6266 6.74053 13.4843 6.40248 13.2312 6.15331C12.9782 5.90414 12.6349 5.76402 12.2769 5.76402C11.5496 5.76402 10.5175 5.76402 9.79016 5.76402C9.43222 5.76402 9.08911 5.90414 8.83586 6.15331C8.58281 6.40248 8.44073 6.74053 8.44073 7.09299V7.65697H6.10084C5.83631 7.65697 5.62192 7.86807 5.62192 8.12856V15.4932C5.62192 15.7536 5.83631 15.9647 6.10084 15.9647H15.9665C16.2308 15.9647 16.4452 15.7536 16.4452 15.4932ZM15.4875 11.8414C15.1329 12.0832 14.7033 12.2258 14.2399 12.2288L7.8569 12.2708C7.39762 12.2739 6.95234 12.1367 6.57956 11.8832V15.0218H15.4875V11.8414ZM6.57956 8.60015V10.0853C6.57977 10.4164 6.71392 10.7334 6.95234 10.9667C7.19096 11.2001 7.51422 11.3301 7.85043 11.3278C7.85043 11.3278 14.2334 11.2859 14.2336 11.2859C14.9275 11.2813 15.4875 10.726 15.4875 10.0427V8.60015H6.57956ZM12.6687 7.65697V7.09299C12.6687 6.99053 12.6276 6.89259 12.554 6.82016C12.4805 6.74773 12.381 6.7072 12.2769 6.7072H9.79016C9.68631 6.7072 9.58664 6.74773 9.51308 6.82016C9.43974 6.89259 9.39837 6.99053 9.39837 7.09299V7.65697H12.6687Z" fill="#0174F3"/>
</svg>
