<svg width="33" height="33" viewBox="0 0 33 33" fill="none" xmlns="http://www.w3.org/2000/svg">
<path d="M12.9782 18.6581H10.5669C9.84575 18.704 9.29644 19.3232 9.33649 20.045C9.3211 20.5886 9.62352 21.0915 10.1108 21.3326L12.5497 22.1858C13.0365 22.4282 13.3386 22.931 13.3241 23.4748C13.364 24.1971 12.814 24.8165 12.0923 24.8615H9.18905M11.2558 18.6583V17.2797M11.2558 26.2401V24.8615M9.99921 12.8726C10.339 13.2527 10.8246 13.47 11.3344 13.47C11.8441 13.47 12.3296 13.2527 12.6695 12.8726L13.5335 11.9158C14.0434 11.3502 14.8541 11.167 15.5576 11.4583C16.2611 11.7495 16.7052 12.4523 16.6667 13.213L16.6006 14.502C16.575 15.0106 16.7658 15.5064 17.1258 15.8665C17.4857 16.2267 17.9812 16.4175 18.4897 16.392L19.7765 16.3258C20.5372 16.2866 21.2401 16.7307 21.5316 17.4347C21.8231 18.1387 21.64 18.9501 21.0744 19.4606L20.1183 20.3235C19.7402 20.6649 19.5245 21.1505 19.5245 21.66C19.5245 22.1695 19.7402 22.6551 20.1183 22.9965L21.0744 23.8608C21.64 24.3712 21.8231 25.1826 21.5316 25.8866C21.2401 26.5907 20.5372 27.0347 19.7765 26.9956L18.4897 26.9295C17.9812 26.9038 17.4857 27.0948 17.1258 27.4548C16.7658 27.8149 16.575 28.3107 16.6006 28.8194L16.6667 30.1069C16.7059 30.868 16.262 31.5712 15.5582 31.8629C14.8546 32.1545 14.0436 31.9713 13.5335 31.4055L12.6695 30.4488C12.3296 30.0686 11.8441 29.8514 11.3344 29.8514C10.8246 29.8514 10.339 30.0686 9.99921 30.4488L9.13529 31.4055C8.6251 31.9713 7.81412 32.1545 7.11044 31.8629C6.40676 31.5712 5.96282 30.868 6.00202 30.1069L6.06816 28.8194C6.09373 28.3107 5.90292 27.8149 5.54297 27.4548C5.183 27.0948 4.68751 26.9038 4.17909 26.9295L2.89218 26.9956C2.13152 27.0347 1.42858 26.5907 1.13707 25.8866C0.845577 25.1826 1.02867 24.3712 1.59423 23.8608L2.55046 22.9965C2.92849 22.6551 3.14425 22.1695 3.14425 21.66C3.14425 21.1505 2.92849 20.6649 2.55046 20.3235L1.59423 19.4606C1.02867 18.9501 0.845577 18.1387 1.13707 17.4347C1.42858 16.7307 2.13152 16.2866 2.89218 16.3258L4.17909 16.392C4.68751 16.4175 5.183 16.2267 5.54297 15.8665C5.90292 15.5064 6.09373 15.0106 6.06816 14.502L6.00202 13.213C5.96345 12.4523 6.40762 11.7495 7.11114 11.4583C7.81466 11.167 8.62526 11.3502 9.13529 11.9158L9.99921 12.8726ZM25.6476 6.84006C25.3623 6.84006 25.1309 7.0715 25.1309 7.35701C25.1309 7.64251 25.3623 7.87396 25.6476 7.87396C25.933 7.87396 26.1643 7.64251 26.1643 7.35701C26.1647 7.21979 26.1103 7.08809 26.0134 6.99106C25.9164 6.89404 25.7847 6.83969 25.6476 6.84006ZM29.1693 2.49496C29.5512 2.34696 29.9842 2.4385 30.2737 2.72833C30.5631 3.01818 30.6541 3.45164 30.5058 3.83351L29.8169 5.6063C29.6546 6.02645 29.7822 6.50333 30.1325 6.78632L31.615 7.97876C31.9335 8.23553 32.0706 8.65607 31.9647 9.05134C31.8589 9.44661 31.53 9.74222 31.1258 9.80531L29.2464 10.0962C28.8014 10.1654 28.4524 10.5151 28.3839 10.9605L28.0932 12.8395C28.0306 13.2444 27.7349 13.5742 27.3392 13.6802C26.9434 13.7862 26.5225 13.6484 26.2661 13.3288L25.0757 11.8469C24.793 11.4961 24.3161 11.3685 23.8962 11.5312L22.1228 12.2204C21.741 12.3685 21.3079 12.2769 21.0185 11.9871C20.7291 11.6973 20.6381 11.2638 20.7864 10.8819L21.4753 9.10914C21.6376 8.68899 21.51 8.21212 21.1597 7.92913L19.6772 6.73808C19.359 6.48089 19.2221 6.06035 19.3279 5.66504C19.4336 5.26974 19.7623 4.97388 20.1664 4.91014L22.0457 4.61927C22.4907 4.551 22.8401 4.20159 22.9082 3.75631L23.199 1.87599C23.2616 1.471 23.5573 1.1412 23.953 1.03522C24.3487 0.929235 24.7696 1.06707 25.026 1.38662L26.2179 2.86853C26.4995 3.21997 26.9762 3.34828 27.396 3.1856L29.1693 2.49496Z" stroke="#0174F3" stroke-width="1.5" stroke-linecap="round" stroke-linejoin="round"/>
</svg>
