<svg width="345" height="89" viewBox="0 0 345 89" fill="none" xmlns="http://www.w3.org/2000/svg">
<path d="M56.7508 5.47302C43.0428 5.47302 31.9348 12.417 31.9348 20.981C31.9348 29.545 43.0428 36.489 56.7508 36.489C70.4588 36.489 81.5588 29.545 81.5588 20.981C81.5588 12.417 70.4508 5.47302 56.7508 5.47302ZM57.0218 30.879C45.0518 30.879 35.3548 25.579 35.3548 19.055C35.3548 12.531 45.0548 7.23903 57.0218 7.23903C68.9888 7.23903 78.6878 12.529 78.6878 19.055C78.6878 25.581 68.9908 30.879 57.0218 30.879Z" fill="#B29E5F"/>
<path d="M56.8358 21.5721C57.0685 21.5654 57.2959 21.5487 57.5179 21.5221L58.1368 23.8931L62.2119 30.6681L59.5688 23.6821L57.9459 21.4591C58.1659 21.4201 58.3778 21.3721 58.5808 21.3151L60.2968 23.5151L67.4279 29.4801L61.5808 23.1071L58.9648 21.1901C59.1512 21.1242 59.3335 21.0474 59.5109 20.9601L62.2108 22.8441L71.9109 27.5931L63.2578 22.2681L59.8268 20.7881C59.9743 20.6994 60.1144 20.5991 60.2458 20.4881L63.7379 21.9241L75.3488 25.1341L64.4778 21.2241L60.4659 20.2821C60.566 20.1758 60.6545 20.0592 60.7299 19.9341L64.7798 20.8241L77.5078 22.2751L65.1638 20.0381L60.8448 19.6981C60.8921 19.5783 60.9221 19.4523 60.9338 19.3241L65.2658 19.6091L78.2448 19.2011L65.2658 18.7941L60.9338 19.0791C60.9221 18.9505 60.8921 18.8242 60.8448 18.7041L65.1638 18.3651L77.5078 16.1281L64.7798 17.5791L60.7299 18.4701C60.6547 18.3449 60.5662 18.2282 60.4659 18.1221L64.4778 17.1801L75.3469 13.2651L63.7358 16.4751L60.2438 17.9111C60.1124 17.8001 59.9723 17.6998 59.8249 17.6111L63.2559 16.1311L71.9088 10.8051L62.2089 15.5551L59.5089 17.4381C59.3314 17.3511 59.1491 17.2743 58.9629 17.2081L61.5789 15.2911L67.4258 8.91808L60.2949 14.8841L58.5789 17.0841C58.3789 17.0271 58.1638 16.9781 57.9438 16.9391L59.5669 14.7171L62.2098 7.73108L58.1349 14.5061L57.5158 16.8761C57.2938 16.8501 57.0669 16.8331 56.8339 16.8261L57.3539 14.4491L56.6118 7.32507L55.8698 14.4491L56.3899 16.8261C56.1559 16.8331 55.9289 16.8501 55.7079 16.8761L55.0888 14.5061L51.0139 7.73108L53.6569 14.7171L55.2788 16.9391C55.0588 16.9781 54.8469 17.0271 54.6439 17.0841L52.9279 14.8841L45.7958 8.91808L51.6429 15.2911L54.2589 17.2081C54.0729 17.2742 53.8909 17.351 53.7138 17.4381L51.0139 15.5551L41.3138 10.8051L49.9669 16.1311L53.3979 17.6111C53.2506 17.7 53.1105 17.8003 52.9789 17.9111L49.4868 16.4751L37.8759 13.2651L48.7448 17.1801L52.7568 18.1221C52.6568 18.2282 52.5686 18.3449 52.4938 18.4701L48.4449 17.5791L35.7219 16.1241L48.0659 18.3611L52.3849 18.7001C52.3376 18.8202 52.3076 18.9465 52.2958 19.0751L47.9638 18.7901L34.9849 19.1971L47.9638 19.6051L52.2958 19.3201C52.3076 19.4483 52.3376 19.5743 52.3849 19.6941L48.0659 20.0341L35.7219 22.2741L48.4508 20.8231L52.4998 19.9331C52.5748 20.0581 52.663 20.1748 52.7628 20.2811L48.7509 21.2231L37.8818 25.1381L49.4929 21.9281L52.9849 20.4921C53.1165 20.6029 53.2565 20.7032 53.4038 20.7921L49.9728 22.2721L41.3199 27.5971L51.0198 22.8481L53.7198 20.9641C53.8968 21.0515 54.0788 21.1283 54.2649 21.1941L51.6489 23.1111L45.8018 29.4841L52.9338 23.5191L54.6498 21.3191C54.8498 21.3761 55.0649 21.4241 55.2849 21.4631L53.6628 23.6861L51.0198 30.6721L55.0948 23.8971L55.7138 21.5261C55.9352 21.5521 56.1625 21.5687 56.3958 21.5761L55.8759 23.9541L56.6179 31.0781L57.3599 23.9541L56.8358 21.5721Z" fill="#B29E5F"/>
<path d="M49.2068 50.24V83.101L41.6128 82.237V56.401C41.6114 54.2206 40.9928 52.0851 39.8285 50.2415C38.6643 48.3979 37.002 46.9215 35.0338 45.983C32.2525 44.6898 29.6657 43.0139 27.3488 41.004C24.9866 38.9014 23.5369 35.9609 23.3075 32.8068C23.078 29.6527 24.0868 26.5334 26.1198 24.111C26.1934 24.0211 26.286 23.9486 26.391 23.8986C26.4959 23.8487 26.6106 23.8225 26.7268 23.822C26.9337 23.8215 27.133 23.8996 27.2845 24.0405C27.436 24.1814 27.5283 24.3746 27.5428 24.581V24.595C28.0558 30.856 33.5568 36.295 41.6118 39.395C41.6343 39.4057 41.6582 39.4135 41.6828 39.418C43.8853 40.2478 45.7839 41.7267 47.1274 43.6592C48.471 45.5916 49.1961 47.8864 49.2068 50.24Z" fill="#B29E5F"/>
<path d="M36.22 58.0711V81.2441C33.8273 80.7314 31.5017 80.1314 29.243 79.444V63.0841C29.2698 61.2655 28.7977 59.4743 27.8779 57.9052C26.9581 56.3361 25.6259 55.0491 24.026 54.184C21.6571 52.9042 19.4781 51.3005 17.552 49.419C15.7721 47.6492 14.6802 45.3035 14.472 42.802V42.7781C14.3475 41.2808 14.5407 39.7741 15.0389 38.3567C15.5371 36.9393 16.3291 35.6431 17.363 34.5531C17.4315 34.4777 17.5163 34.4189 17.6109 34.3812C17.7055 34.3434 17.8074 34.3276 17.909 34.335C18.0574 34.3423 18.1997 34.3962 18.3157 34.489C18.4316 34.5818 18.5154 34.7088 18.555 34.852C18.578 34.9127 18.5892 34.9772 18.588 35.042V35.051C18.711 40.566 23.239 45.6221 30.141 48.751C30.1589 48.7613 30.1781 48.7694 30.198 48.775C31.8189 49.4999 33.2232 50.6344 34.2726 52.0668C35.322 53.4991 35.9804 55.18 36.183 56.944C36.2147 57.3188 36.2271 57.695 36.22 58.0711Z" fill="#B29E5F"/>
<path d="M24.378 64.5741V77.7981C22.171 76.9681 20.044 76.0561 18.027 75.0691V68.4191C18.0583 66.9699 17.7205 65.5365 17.0455 64.2537C16.3704 62.9709 15.3802 61.8809 14.168 61.0861C12.2108 59.824 10.4406 58.2934 8.90899 56.5391C7.49899 54.8983 6.71536 52.8114 6.69698 50.6481V50.6341C6.68835 49.3291 6.95581 48.037 7.4818 46.8427C8.00779 45.6483 8.78042 44.5787 9.74898 43.7041C9.81331 43.6442 9.89002 43.5992 9.97365 43.5723C10.0573 43.5453 10.1458 43.5371 10.233 43.5481C10.3411 43.5648 10.4431 43.6088 10.5293 43.676C10.6156 43.7432 10.6833 43.8314 10.726 43.9321C10.7596 44.0197 10.7743 44.1134 10.769 44.2071V44.2311C10.503 48.9921 14.077 53.6531 19.801 56.8181C19.816 56.8281 19.835 56.8321 19.849 56.8421C21.0702 57.5119 22.118 58.4577 22.909 59.6041C23.8905 61.0738 24.4027 62.8069 24.378 64.5741Z" fill="#B29E5F"/>
<path d="M13.6689 69.838V72.738C9.37665 70.2789 5.48012 67.1861 2.11093 63.564L2.08691 63.544C1.83558 63.2253 1.59824 62.9027 1.3749 62.576C0.218277 60.8851 -0.232927 58.8097 0.117245 56.7912C0.467416 54.7727 1.59133 52.9705 3.2499 51.768C3.31159 51.7227 3.38259 51.6917 3.45773 51.6773C3.53287 51.6628 3.6103 51.6652 3.68438 51.6844C3.75847 51.7035 3.82735 51.7389 3.88607 51.788C3.9448 51.837 3.9919 51.8985 4.02392 51.968C4.07528 52.0674 4.09183 52.1811 4.07092 52.291C3.40592 56.307 6.01192 60.591 10.5879 63.791C10.5992 63.8035 10.612 63.8146 10.6259 63.824C10.7589 63.91 10.8829 64.005 11.0059 64.099C11.8511 64.7952 12.5293 65.6723 12.9902 66.6656C13.4511 67.659 13.683 68.7431 13.6689 69.838Z" fill="#B29E5F"/>
<path d="M71.8828 82.237V56.403C71.8833 54.2227 72.5011 52.0872 73.6649 50.2435C74.8287 48.3998 76.4908 46.9233 78.4588 45.985C81.2401 44.6903 83.8274 43.0141 86.1458 41.005C88.5111 38.904 89.9629 35.9628 90.1922 32.8075C90.4216 29.6522 89.4104 26.532 87.3738 24.111C87.2998 24.0208 87.2067 23.9482 87.1012 23.8984C86.9957 23.8486 86.8805 23.8229 86.7638 23.823C86.5573 23.8223 86.3583 23.9003 86.2073 24.0411C86.0563 24.1819 85.9646 24.375 85.9508 24.581V24.593C85.4378 30.857 79.9368 36.293 71.8818 39.393C71.8598 39.402 71.8348 39.41 71.8098 39.419C69.6069 40.2476 67.7079 41.7261 66.3645 43.6587C65.0212 45.5912 64.2969 47.8864 64.2878 50.24V83.1L71.8828 82.237Z" fill="#B29E5F"/>
<path d="M77.2729 58.0711V81.245C79.6656 80.733 81.9906 80.1331 84.2479 79.4451V63.085C84.2414 62.5295 84.2799 61.9744 84.3629 61.4251C84.6092 59.9106 85.1962 58.4718 86.0797 57.2173C86.9632 55.9628 88.12 54.9253 89.4629 54.1831C91.8328 52.9038 94.0125 51.3 95.9389 49.418C97.9011 47.4536 99.0191 44.8008 99.0548 42.0244C99.0905 39.248 98.0411 36.5673 96.1299 34.5531C96.061 34.4779 95.9761 34.4191 95.8814 34.381C95.7867 34.3429 95.6848 34.3265 95.5829 34.3331C95.4015 34.3432 95.2306 34.4218 95.105 34.5531C94.9793 34.6843 94.9082 34.8584 94.9059 35.0401V35.0481C94.7839 40.5661 90.2519 45.6191 83.3529 48.7481C83.3359 48.7571 83.3099 48.7651 83.2939 48.7741C81.6736 49.4986 80.2696 50.6324 79.2203 52.064C78.1709 53.4956 77.5122 55.1757 77.3089 56.939C77.278 57.3155 77.2659 57.6934 77.2729 58.0711Z" fill="#B29E5F"/>
<path d="M89.114 64.577V77.799C91.3253 76.9684 93.4427 76.059 95.466 75.071V68.418C95.434 66.969 95.7714 65.5356 96.4466 64.253C97.1217 62.9705 98.1123 61.8809 99.325 61.087C101.282 59.8245 103.053 58.2936 104.585 56.539C106.146 54.7129 106.931 52.3495 106.775 49.9524C106.618 47.5554 105.531 45.3144 103.746 43.707C103.681 43.6466 103.604 43.6011 103.52 43.574C103.436 43.5468 103.347 43.5387 103.259 43.55C103.103 43.5712 102.962 43.6508 102.862 43.7726C102.763 43.8944 102.714 44.0493 102.725 44.206V44.215C102.996 48.979 99.425 53.646 93.692 56.815L93.641 56.84C92.4207 57.5099 91.3739 58.4557 90.584 59.602C89.6004 61.0727 89.0877 62.8079 89.114 64.577Z" fill="#B29E5F"/>
<path d="M99.825 69.8361V72.7361C104.116 70.2761 108.013 67.1837 111.383 63.563L111.404 63.5421C111.658 63.2241 111.895 62.9021 112.12 62.576C113.276 60.8849 113.727 58.8095 113.376 56.7911C113.026 54.7728 111.902 52.9707 110.244 51.7681C110.183 51.7237 110.114 51.6931 110.04 51.6784C109.966 51.6637 109.89 51.6653 109.817 51.683C109.686 51.7144 109.572 51.7947 109.499 51.9074C109.426 52.0202 109.399 52.1568 109.423 52.2891C110.088 56.3041 107.484 60.5891 102.905 63.7891C102.893 63.8 102.881 63.81 102.868 63.8191C102.737 63.9081 102.614 64.0011 102.49 64.0981C101.643 64.7926 100.964 65.6693 100.502 66.6627C100.041 67.6561 99.8093 68.7408 99.825 69.8361Z" fill="#B29E5F"/>
<path d="M171.988 25.809C172.284 24.9633 172.872 24.2513 173.647 23.802C174.431 23.3524 175.322 23.1214 176.226 23.133V27.148C175.197 27.0022 174.15 27.24 173.284 27.816C172.838 28.1418 172.484 28.5775 172.256 29.0808C172.028 29.5841 171.934 30.1378 171.984 30.688V37.351H168.384V23.412H171.984L171.988 25.809Z" fill="#B29E5F"/>
<path d="M188.379 23.414H191.979V37.353H188.379V35.708C187.836 36.3822 187.142 36.9182 186.352 37.2719C185.562 37.6257 184.699 37.7871 183.835 37.743C182.932 37.7502 182.038 37.5636 181.213 37.1959C180.388 36.8281 179.652 36.2876 179.054 35.611C177.77 34.1726 177.061 32.312 177.061 30.384C177.061 28.456 177.77 26.5955 179.054 25.157C179.652 24.4805 180.389 23.9402 181.213 23.5724C182.038 23.2046 182.932 23.018 183.835 23.025C184.699 22.981 185.562 23.1425 186.352 23.4962C187.142 23.85 187.836 24.3859 188.379 25.06V23.414ZM181.744 33.214C182.103 33.5774 182.534 33.8627 183.009 34.052C183.484 34.2413 183.992 34.3305 184.503 34.314C185.016 34.3296 185.527 34.2401 186.004 34.0509C186.481 33.8617 186.914 33.5769 187.277 33.214C187.986 32.442 188.379 31.4323 188.379 30.3845C188.379 29.3367 187.986 28.3271 187.277 27.555C186.914 27.1921 186.481 26.9073 186.004 26.7181C185.527 26.529 185.016 26.4394 184.503 26.455C183.992 26.4386 183.484 26.5278 183.009 26.717C182.534 26.9063 182.103 27.1916 181.744 27.555C181.044 28.3312 180.657 29.3393 180.657 30.3845C180.657 31.4297 181.044 32.4378 181.744 33.214Z" fill="#B29E5F"/>
<path d="M239.366 23.414H242.966V37.353H239.366V35.708C238.823 36.3823 238.129 36.9183 237.339 37.2721C236.549 37.6258 235.686 37.7872 234.822 37.7429C233.919 37.7502 233.025 37.5637 232.2 37.1959C231.375 36.8281 230.639 36.2876 230.041 35.611C228.757 34.1725 228.048 32.312 228.048 30.384C228.048 28.456 228.757 26.5954 230.041 25.157C230.639 24.4805 231.375 23.9401 232.2 23.5723C233.025 23.2045 233.919 23.0179 234.822 23.025C235.686 22.9808 236.549 23.1422 237.339 23.4959C238.129 23.8497 238.823 24.3857 239.366 25.06V23.414ZM232.731 33.214C233.09 33.5774 233.521 33.8627 233.996 34.052C234.471 34.2413 234.98 34.3304 235.491 34.314C236.004 34.3295 236.514 34.2399 236.991 34.0507C237.468 33.8616 237.901 33.5768 238.264 33.214C238.972 32.4419 239.365 31.4323 239.365 30.3845C239.365 29.3367 238.972 28.327 238.264 27.555C237.901 27.1921 237.468 26.9074 236.991 26.7182C236.514 26.529 236.004 26.4394 235.491 26.455C234.98 26.4385 234.471 26.5278 233.996 26.717C233.521 26.9063 233.09 27.1916 232.731 27.555C232.031 28.3313 231.644 29.3393 231.644 30.3845C231.644 31.4296 232.031 32.4377 232.731 33.214Z" fill="#B29E5F"/>
<path d="M253.974 23.021C254.676 22.9999 255.374 23.1253 256.025 23.3892C256.675 23.6532 257.264 24.0499 257.752 24.5541C258.269 25.1265 258.667 25.7959 258.923 26.5234C259.179 27.251 259.288 28.0221 259.243 28.792V37.3501H255.643V29.238C255.669 28.8502 255.616 28.461 255.487 28.0944C255.358 27.7278 255.155 27.3915 254.891 27.1061C254.623 26.8547 254.307 26.6597 253.962 26.5328C253.617 26.4058 253.25 26.3495 252.883 26.367C252.472 26.3482 252.061 26.4153 251.677 26.5641C251.293 26.7128 250.944 26.94 250.653 27.2311C250.045 27.9525 249.745 28.8836 249.817 29.824V37.351H246.217V23.4141H249.817V24.975C250.281 24.3169 250.908 23.7907 251.637 23.4481C252.366 23.1055 253.171 22.9584 253.974 23.021Z" fill="#B29E5F"/>
<path d="M277.725 23.021C278.439 22.9896 279.151 23.1128 279.812 23.3822C280.474 23.6516 281.069 24.0609 281.558 24.582C282.557 25.7393 283.071 27.2372 282.993 28.764V37.35H279.393V29.014C279.436 28.3101 279.217 27.6151 278.779 27.063C278.561 26.8257 278.292 26.6399 277.994 26.5188C277.695 26.3978 277.373 26.3445 277.051 26.363C276.692 26.3437 276.334 26.4064 276.003 26.5465C275.672 26.6865 275.377 26.9 275.141 27.171C274.643 27.8461 274.401 28.6761 274.459 29.513V37.347H270.859V29.014C270.902 28.3103 270.684 27.6154 270.246 27.063C270.027 26.8258 269.759 26.6401 269.46 26.519C269.162 26.398 268.84 26.3447 268.518 26.363C268.16 26.3476 267.802 26.4121 267.472 26.5518C267.142 26.6916 266.847 26.9031 266.609 27.171C266.093 27.838 265.839 28.6714 265.897 29.513V37.347H262.297V23.414H265.897V24.892C266.325 24.2708 266.908 23.7719 267.587 23.4444C268.267 23.1168 269.02 22.9719 269.773 23.024C270.529 22.9776 271.284 23.1401 271.954 23.4937C272.624 23.8474 273.184 24.3785 273.573 25.029C274.036 24.3673 274.66 23.8352 275.387 23.4837C276.114 23.1322 276.919 22.9728 277.725 23.021Z" fill="#B29E5F"/>
<path d="M296.654 23.4141H300.254V37.3531H296.654V35.7081C296.111 36.3823 295.417 36.9182 294.627 37.272C293.837 37.6257 292.974 37.7871 292.11 37.743C291.207 37.7502 290.313 37.5637 289.488 37.1959C288.663 36.8281 287.927 36.2877 287.329 35.6111C286.045 34.1726 285.336 32.3121 285.336 30.3841C285.336 28.4561 286.045 26.5955 287.329 25.1571C287.927 24.4806 288.663 23.9402 289.488 23.5724C290.313 23.2046 291.207 23.018 292.11 23.0251C292.974 22.981 293.837 23.1424 294.627 23.4962C295.417 23.8499 296.111 24.3858 296.654 25.0601V23.4141ZM290.019 33.214C290.378 33.5775 290.809 33.8627 291.284 34.052C291.758 34.2413 292.267 34.3305 292.778 34.3141C293.291 34.3295 293.802 34.2399 294.279 34.0508C294.756 33.8616 295.189 33.5769 295.552 33.214C296.26 32.442 296.653 31.4323 296.653 30.3846C296.653 29.3368 296.26 28.3271 295.552 27.5551C295.189 27.1922 294.756 26.9075 294.279 26.7183C293.802 26.5292 293.291 26.4396 292.778 26.4551C292.267 26.4386 291.758 26.5278 291.284 26.7171C290.809 26.9064 290.378 27.1916 290.019 27.5551C289.319 28.331 288.931 29.3392 288.931 30.3846C288.931 31.4299 289.319 32.4381 290.019 33.214Z" fill="#B29E5F"/>
<path d="M311.262 23.021C311.963 22.9999 312.662 23.1253 313.312 23.3892C313.962 23.6532 314.551 24.0499 315.039 24.554C315.556 25.1264 315.954 25.7958 316.21 26.5234C316.466 27.2509 316.575 28.022 316.53 28.792V37.35H312.93V29.238C312.956 28.8501 312.903 28.4608 312.774 28.0942C312.644 27.7276 312.441 27.3913 312.177 27.106C311.909 26.8546 311.593 26.6596 311.249 26.5326C310.904 26.4056 310.537 26.3493 310.17 26.367C309.759 26.348 309.348 26.415 308.964 26.5638C308.58 26.7125 308.231 26.9398 307.94 27.231C307.332 27.9521 307.031 28.8834 307.104 29.824V37.351H303.504V23.414H307.104V24.975C307.568 24.3167 308.195 23.7904 308.924 23.4478C309.653 23.1052 310.459 22.9581 311.262 23.021Z" fill="#B29E5F"/>
<path d="M333.925 25.809C334.221 24.9635 334.809 24.2517 335.584 23.802C336.368 23.3524 337.259 23.1214 338.163 23.133V27.148C337.134 27.0022 336.087 27.24 335.221 27.816C334.775 28.1418 334.421 28.5775 334.193 29.0808C333.965 29.5841 333.871 30.1378 333.921 30.688V37.351H330.321V23.412H333.921L333.925 25.809Z" fill="#B29E5F"/>
<path d="M159.693 17.835C160.57 17.8148 161.443 17.9728 162.257 18.2994C163.072 18.6259 163.812 19.1143 164.432 19.735C165.663 20.9718 166.354 22.6456 166.354 24.3905C166.354 26.1353 165.663 27.8092 164.432 29.046C163.812 29.6668 163.072 30.1552 162.257 30.4818C161.443 30.8084 160.57 30.9663 159.693 30.946H156.264V37.358H152.418V17.835H159.693ZM159.693 27.341C160.073 27.3511 160.451 27.2806 160.802 27.1341C161.153 26.9876 161.469 26.7684 161.729 26.491C162.249 25.9108 162.537 25.1589 162.537 24.3795C162.537 23.6001 162.249 22.8481 161.729 22.268C161.467 21.9941 161.15 21.7782 160.8 21.6342C160.449 21.4902 160.072 21.4213 159.693 21.432H156.264V27.342L159.693 27.341Z" fill="#B29E5F"/>
<path d="M205.803 17.835H209.403V37.349H205.803V35.705C205.268 36.3803 204.578 36.9174 203.792 37.2715C203.007 37.6255 202.148 37.7862 201.287 37.74C200.38 37.7492 199.481 37.5636 198.651 37.1958C197.822 36.828 197.081 36.2866 196.478 35.608C195.195 34.1692 194.486 32.3088 194.486 30.381C194.486 28.4531 195.195 26.5927 196.478 25.154C197.081 24.4755 197.822 23.9342 198.651 23.5664C199.481 23.1986 200.38 23.013 201.287 23.022C202.148 22.9762 203.007 23.1371 203.792 23.4911C204.578 23.8451 205.267 24.382 205.803 25.057V17.835ZM199.184 33.21C199.547 33.5729 199.98 33.8577 200.457 34.0469C200.934 34.236 201.445 34.3256 201.958 34.31C202.469 34.3263 202.978 34.2371 203.452 34.0478C203.927 33.8585 204.358 33.5733 204.717 33.21C205.417 32.4338 205.805 31.4257 205.805 30.3805C205.805 29.3353 205.417 28.3272 204.717 27.551C204.358 27.1876 203.927 26.9023 203.452 26.7131C202.978 26.5238 202.469 26.4346 201.958 26.451C201.445 26.4353 200.934 26.5249 200.457 26.7141C199.98 26.9032 199.547 27.1881 199.184 27.551C198.476 28.323 198.083 29.3327 198.083 30.3805C198.083 31.4283 198.476 32.4379 199.184 33.21Z" fill="#B29E5F"/>
<path d="M220.442 23.021C221.144 22.9997 221.842 23.1251 222.492 23.3891C223.143 23.6531 223.731 24.0498 224.219 24.554C224.736 25.1264 225.134 25.7958 225.39 26.5233C225.646 27.2509 225.755 28.022 225.71 28.792V37.35H222.11V29.235C222.136 28.847 222.083 28.4578 221.954 28.0912C221.824 27.7246 221.621 27.3883 221.357 27.103C221.089 26.8515 220.773 26.6566 220.429 26.5296C220.084 26.4027 219.717 26.3463 219.35 26.364C218.939 26.3449 218.528 26.4119 218.144 26.5607C217.76 26.7095 217.411 26.9367 217.12 27.228C216.512 27.9489 216.211 28.8804 216.284 29.821V37.348H212.684V17.835H216.284V24.971C216.749 24.3133 217.376 23.7877 218.105 23.4459C218.834 23.104 219.639 22.9576 220.442 23.021Z" fill="#B29E5F"/>
<path d="M327.57 26.868H324.419V32.668C324.402 32.8601 324.425 33.0536 324.488 33.2361C324.551 33.4185 324.651 33.5857 324.782 33.727C325.081 33.9716 325.455 34.1045 325.841 34.103C326.417 34.1305 326.994 34.1258 327.57 34.089V37.351C325.097 37.6297 323.355 37.3963 322.343 36.651C321.331 35.9057 320.825 34.5767 320.824 32.664V26.864H318.398V23.407H320.824V20.592L324.424 19.505V23.405H327.575L327.57 26.868Z" fill="#B29E5F"/>
<path d="M342.037 21.739C341.456 21.7292 340.903 21.4943 340.492 21.0838C340.082 20.6733 339.847 20.1194 339.837 19.539C339.835 19.2481 339.893 18.9599 340.005 18.6917C340.118 18.4235 340.283 18.1807 340.492 17.978C340.689 17.7653 340.929 17.5961 341.195 17.4809C341.461 17.3657 341.749 17.3072 342.039 17.309C342.334 17.3053 342.626 17.3629 342.897 17.478C343.168 17.5932 343.413 17.7634 343.615 17.978C343.823 18.1809 343.989 18.4237 344.101 18.6919C344.214 18.9601 344.271 19.2482 344.27 19.539C344.272 19.8279 344.215 20.1141 344.102 20.3801C343.99 20.6461 343.824 20.8863 343.615 21.086C343.41 21.2968 343.165 21.4634 342.893 21.5757C342.622 21.688 342.331 21.7436 342.037 21.739ZM340.253 37.351V23.411H343.853V37.351H340.253Z" fill="#B29E5F"/>
<path d="M158.991 67.866C157.272 67.9235 155.575 67.4711 154.113 66.566C152.817 65.7326 151.836 64.4917 151.324 63.039L154.614 61.115C154.923 62.0411 155.532 62.8375 156.345 63.3779C157.158 63.9183 158.128 64.1717 159.102 64.098C159.934 64.1639 160.766 63.9583 161.472 63.512C161.719 63.3308 161.917 63.0909 162.048 62.8141C162.179 62.5372 162.239 62.2321 162.222 61.9263C162.205 61.6205 162.113 61.3236 161.953 61.0625C161.793 60.8015 161.57 60.5844 161.305 60.431C160.264 59.8832 159.159 59.4667 158.016 59.191C157.263 58.9741 156.523 58.7133 155.8 58.41C155.159 58.1292 154.552 57.7787 153.988 57.365C153.393 56.9396 152.919 56.3682 152.609 55.706C152.278 54.9704 152.116 54.1703 152.134 53.364C152.103 52.5629 152.256 51.7653 152.583 51.033C152.909 50.3008 153.399 49.6534 154.016 49.141C155.286 48.0856 156.895 47.526 158.546 47.566C160.019 47.536 161.468 47.9382 162.714 48.723C163.929 49.5143 164.899 50.6296 165.514 51.943L162.28 53.811C161.993 53.0582 161.48 52.4128 160.811 51.9635C160.142 51.5142 159.35 51.2831 158.545 51.302C157.874 51.263 157.21 51.455 156.663 51.846C156.446 52.0098 156.271 52.2229 156.152 52.4677C156.033 52.7125 155.974 52.982 155.98 53.254C155.975 53.5466 156.042 53.8359 156.176 54.0962C156.31 54.3565 156.506 54.5797 156.747 54.746C157.66 55.3036 158.651 55.7215 159.688 55.986C160.283 56.172 160.734 56.316 161.04 56.418C161.346 56.52 161.764 56.678 162.295 56.892C162.721 57.0549 163.132 57.2557 163.522 57.492C163.868 57.7216 164.198 57.9732 164.512 58.245C164.848 58.5199 165.135 58.8495 165.362 59.22C165.834 60.0628 166.079 61.0139 166.073 61.98C166.105 62.7996 165.944 63.6152 165.602 64.361C165.26 65.1067 164.748 65.7617 164.107 66.273C162.64 67.3852 160.83 67.9488 158.991 67.866Z" fill="#B29E5F"/>
<path d="M179.398 53.539H182.998V67.477H179.398V65.833C178.856 66.5074 178.161 67.0436 177.371 67.3973C176.581 67.7511 175.718 67.9124 174.854 67.868C173.951 67.875 173.057 67.6884 172.232 67.3206C171.407 66.9528 170.671 66.4125 170.073 65.736C168.79 64.2974 168.08 62.4368 168.08 60.509C168.08 58.5811 168.79 56.7206 170.073 55.282C170.671 54.6056 171.408 54.0653 172.232 53.6975C173.057 53.3297 173.951 53.1431 174.854 53.15C175.718 53.1057 176.581 53.2671 177.371 53.6211C178.161 53.975 178.856 54.5113 179.398 55.186V53.539ZM172.763 63.339C173.123 63.7024 173.553 63.9876 174.028 64.1769C174.503 64.3662 175.012 64.4554 175.523 64.439C176.036 64.4546 176.547 64.3651 177.024 64.176C177.501 63.9868 177.934 63.702 178.297 63.339C179.005 62.5668 179.398 61.5572 179.398 60.5095C179.398 59.4618 179.005 58.4522 178.297 57.68C177.934 57.3171 177.501 57.0323 177.024 56.8431C176.547 56.6539 176.036 56.5644 175.523 56.58C175.012 56.5636 174.503 56.6528 174.028 56.842C173.553 57.0313 173.123 57.3166 172.763 57.68C172.064 58.4565 171.677 59.4645 171.677 60.5095C171.677 61.5545 172.064 62.5625 172.763 63.339Z" fill="#B29E5F"/>
<path d="M194.005 53.1489C194.707 53.1278 195.405 53.2532 196.055 53.5172C196.706 53.7811 197.294 54.1778 197.782 54.6819C198.299 55.2543 198.697 55.9237 198.953 56.6512C199.209 57.3787 199.318 58.1499 199.274 58.9199V67.4779H195.674V59.3659C195.701 58.978 195.647 58.5887 195.518 58.2221C195.388 57.8555 195.185 57.5192 194.921 57.2339C194.653 56.9823 194.338 56.7871 193.993 56.66C193.648 56.5329 193.281 56.4764 192.914 56.4939C192.503 56.4751 192.092 56.5422 191.708 56.691C191.324 56.8397 190.975 57.0669 190.684 57.3579C190.076 58.0794 189.776 59.0105 189.848 59.9509V67.4769H186.248V53.5389H189.848V55.0999C190.312 54.4422 190.94 53.9166 191.668 53.5745C192.397 53.2325 193.202 53.0858 194.005 53.1489Z" fill="#B29E5F"/>
<path d="M213.017 53.539H216.53V66.808C216.588 67.7403 216.425 68.673 216.054 69.5305C215.684 70.3879 215.116 71.146 214.398 71.743C212.933 72.8907 211.114 73.4918 209.254 73.443C207.88 73.4722 206.519 73.1762 205.281 72.579C204.162 72.0258 203.241 71.14 202.646 70.043L205.717 68.286C206.052 68.784 206.485 69.2085 206.99 69.5336C207.495 69.8586 208.061 70.0773 208.653 70.1764C209.245 70.2755 209.851 70.2529 210.435 70.1099C211.018 69.967 211.566 69.7067 212.045 69.345C212.38 69.017 212.641 68.6206 212.809 68.1828C212.977 67.745 213.049 67.2761 213.02 66.808V65.308C212.507 65.9996 211.832 66.5545 211.054 66.9239C210.276 67.2932 209.419 67.4656 208.559 67.426C207.634 67.4467 206.716 67.2725 205.864 66.9146C205.011 66.5568 204.243 66.0233 203.611 65.349C202.328 63.9785 201.615 62.1706 201.617 60.2932C201.62 58.4158 202.338 56.6099 203.625 55.243C204.254 54.5676 205.019 54.0325 205.869 53.6724C206.719 53.3123 207.636 53.1353 208.559 53.153C209.419 53.1135 210.276 53.2861 211.054 53.6556C211.832 54.0251 212.507 54.5802 213.02 55.272L213.017 53.539ZM206.317 63.031C207.086 63.7214 208.083 64.1032 209.117 64.1032C210.15 64.1032 211.148 63.7214 211.917 63.031C212.623 62.2969 213.018 61.3177 213.018 60.299C213.018 59.2802 212.623 58.3011 211.917 57.567C211.148 56.8766 210.15 56.4947 209.117 56.4947C208.083 56.4947 207.086 56.8766 206.317 57.567C205.61 58.3008 205.215 59.2801 205.215 60.299C205.215 61.3179 205.61 62.2971 206.317 63.031Z" fill="#B29E5F"/>
<path d="M223.385 55.9369C223.681 55.0916 224.27 54.3799 225.044 53.9299C225.828 53.4801 226.719 53.2487 227.623 53.2599V57.2789C226.594 57.1335 225.547 57.3717 224.682 57.9479C224.236 58.2736 223.882 58.7092 223.654 59.2123C223.426 59.7154 223.333 60.2689 223.382 60.8189V67.4789H219.782V53.5389H223.382L223.385 55.9369Z" fill="#B29E5F"/>
<path d="M239.779 53.5389H243.379V67.4769H239.779V65.8329C239.236 66.5073 238.542 67.0433 237.752 67.397C236.962 67.7508 236.099 67.9122 235.235 67.8679C234.332 67.8751 233.438 67.6885 232.613 67.3207C231.788 66.953 231.052 66.4125 230.454 65.7359C229.17 64.2975 228.461 62.4369 228.461 60.5089C228.461 58.5809 229.17 56.7204 230.454 55.2819C231.052 54.6054 231.788 54.0651 232.613 53.6973C233.438 53.3295 234.332 53.1429 235.235 53.1499C236.099 53.1058 236.962 53.2673 237.752 53.6213C238.542 53.9752 239.237 54.5114 239.779 55.1859V53.5389ZM233.144 63.3389C233.504 63.7024 233.934 63.9878 234.409 64.177C234.884 64.3663 235.393 64.4555 235.904 64.4389C236.417 64.4544 236.927 64.3649 237.404 64.1757C237.881 63.9865 238.314 63.7018 238.677 63.3389C239.385 62.5669 239.778 61.5572 239.778 60.5094C239.778 59.4616 239.385 58.452 238.677 57.6799C238.314 57.3171 237.881 57.0323 237.404 56.8431C236.927 56.654 236.417 56.5644 235.904 56.5799C235.393 56.5634 234.884 56.6526 234.409 56.8418C233.934 57.0311 233.504 57.3165 233.144 57.6799C232.444 58.4561 232.057 59.4642 232.057 60.5094C232.057 61.5546 232.444 62.5627 233.144 63.3389Z" fill="#B29E5F"/>
<path d="M254.387 53.148C255.089 53.1269 255.787 53.2524 256.437 53.5163C257.087 53.7803 257.676 54.1769 258.164 54.681C258.681 55.2534 259.079 55.9229 259.335 56.6504C259.591 57.3779 259.7 58.1491 259.655 58.919V67.477H256.055V59.365C256.081 58.9771 256.028 58.5879 255.898 58.2213C255.769 57.8547 255.566 57.5184 255.302 57.233C255.034 56.9815 254.718 56.7864 254.374 56.6592C254.029 56.5321 253.662 56.4756 253.295 56.493C252.884 56.4742 252.473 56.5413 252.089 56.6901C251.704 56.8388 251.355 57.066 251.064 57.357C250.456 58.0783 250.155 59.0094 250.227 59.95V67.476H246.627V47.963H250.227V55.099C250.692 54.441 251.319 53.9152 252.049 53.5731C252.778 53.2311 253.584 53.0846 254.387 53.148Z" fill="#B29E5F"/>
<path d="M273.315 53.5389H276.915V67.477H273.315V65.833C272.772 66.5074 272.077 67.0436 271.287 67.3973C270.497 67.7511 269.634 67.9124 268.77 67.868C267.867 67.8751 266.973 67.6884 266.148 67.3207C265.324 66.9529 264.588 66.4125 263.99 65.736C262.706 64.2975 261.997 62.4369 261.997 60.5089C261.997 58.5809 262.706 56.7204 263.99 55.282C264.588 54.6056 265.324 54.0653 266.149 53.6975C266.973 53.3297 267.867 53.143 268.77 53.15C269.635 53.1058 270.497 53.2672 271.287 53.6212C272.077 53.9751 272.772 54.5114 273.315 55.1859V53.5389ZM266.68 63.339C267.039 63.7025 267.47 63.9878 267.945 64.1771C268.42 64.3664 268.929 64.4555 269.44 64.4389C269.953 64.4546 270.464 64.3651 270.941 64.1759C271.418 63.9868 271.851 63.7019 272.214 63.339C272.922 62.5669 273.315 61.5573 273.315 60.5095C273.315 59.4617 272.922 58.452 272.214 57.68C271.851 57.317 271.418 57.0321 270.941 56.843C270.464 56.6538 269.953 56.5643 269.44 56.58C268.929 56.5634 268.42 56.6525 267.945 56.8418C267.47 57.0311 267.039 57.3164 266.68 57.68C265.979 58.456 265.592 59.4641 265.592 60.5095C265.592 61.5548 265.979 62.563 266.68 63.339Z" fill="#B29E5F"/>
<path d="M280.173 67.477V47.127H283.773V67.477H280.173Z" fill="#B29E5F"/>
<path d="M297.652 53.5389H301.252V67.4769H297.652V65.8329C297.109 66.5072 296.415 67.0433 295.625 67.397C294.835 67.7508 293.972 67.9122 293.108 67.8679C292.205 67.875 291.311 67.6883 290.486 67.3205C289.661 66.9528 288.925 66.4124 288.327 65.7359C287.043 64.2973 286.334 62.4368 286.334 60.5089C286.334 58.581 287.043 56.7205 288.327 55.2819C288.925 54.6055 289.661 54.0652 290.486 53.6974C291.311 53.3297 292.205 53.143 293.108 53.1499C293.972 53.1059 294.835 53.2674 295.625 53.6213C296.415 53.9752 297.109 54.5114 297.652 55.1859V53.5389ZM291.017 63.3389C291.376 63.7023 291.807 63.9876 292.282 64.1768C292.757 64.3661 293.266 64.4553 293.777 64.4389C294.29 64.4546 294.801 64.3652 295.278 64.176C295.755 63.9868 296.188 63.7019 296.551 63.3389C297.259 62.5669 297.652 61.5572 297.652 60.5094C297.652 59.4616 297.259 58.4519 296.551 57.6799C296.188 57.3169 295.755 57.032 295.278 56.8429C294.801 56.6537 294.29 56.5642 293.777 56.5799C293.266 56.5635 292.757 56.6527 292.282 56.842C291.807 57.0312 291.376 57.3165 291.017 57.6799C290.317 58.4562 289.93 59.4643 289.93 60.5094C289.93 61.5546 290.317 62.5626 291.017 63.3389Z" fill="#B29E5F"/>
<path d="M313.597 53.5389H317.444L312.362 67.4999C311.839 69.1937 310.838 70.7003 309.479 71.839C308.184 72.7685 306.597 73.1992 305.01 73.0519V69.7069C305.824 69.7679 306.634 69.5519 307.31 69.0939C307.953 68.5536 308.423 67.8362 308.662 67.0309L302.947 53.5389H306.878L310.513 62.907L313.597 53.5389Z" fill="#B29E5F"/>
<path d="M329.181 53.5389H332.781V67.4769H329.181V65.8329C328.638 66.5073 327.944 67.0433 327.154 67.397C326.364 67.7508 325.501 67.9122 324.637 67.8679C323.734 67.8751 322.84 67.6885 322.015 67.3207C321.19 66.953 320.454 66.4125 319.856 65.7359C318.572 64.2975 317.863 62.4369 317.863 60.5089C317.863 58.5809 318.572 56.7204 319.856 55.2819C320.454 54.6055 321.19 54.0651 322.015 53.6974C322.84 53.3296 323.734 53.1429 324.637 53.1499C325.501 53.1058 326.364 53.2673 327.154 53.6213C327.944 53.9752 328.638 54.5114 329.181 55.1859V53.5389ZM322.546 63.3389C322.905 63.7023 323.336 63.9875 323.811 64.1768C324.285 64.3661 324.794 64.4553 325.305 64.4389C325.818 64.4545 326.329 64.365 326.806 64.1758C327.283 63.9866 327.716 63.7019 328.079 63.3389C328.787 62.5668 329.18 61.5572 329.18 60.5094C329.18 59.4617 328.787 58.4521 328.079 57.6799C327.716 57.317 327.283 57.0322 326.806 56.843C326.329 56.6539 325.818 56.5643 325.305 56.5799C324.794 56.5636 324.285 56.6528 323.811 56.8421C323.336 57.0314 322.905 57.3166 322.546 57.6799C321.846 58.4562 321.459 59.4643 321.459 60.5094C321.459 61.5546 321.846 62.5626 322.546 63.3389Z" fill="#B29E5F"/>
</svg>
