<svg width="33" height="33" viewBox="0 0 33 33" fill="none" xmlns="http://www.w3.org/2000/svg">
<path d="M16.4861 11.139L12.3666 9.2666L1 14.4332M1 14.4332V26.8331L12.3666 31.9998M1 14.4332L5.13606 16.3139M12.3666 31.9998L23.7332 26.8331V16.4999M12.3666 31.9998V26.8331M12.3666 22.6998C14.0787 22.6998 15.4666 21.312 15.4666 19.5999C15.4666 17.8877 14.0787 16.4999 12.3666 16.4999C10.6545 16.4999 9.26661 17.8877 9.26661 19.5999C9.26661 21.312 10.6545 22.6998 12.3666 22.6998ZM31.395 1.60578C32.2017 2.4128 32.2017 3.72099 31.395 4.52802L23.984 11.939L19.5999 13.3995L21.0617 9.01541L28.4713 1.60578C28.8589 1.21792 29.3847 1 29.9331 1C30.4815 1 31.0074 1.21792 31.395 1.60578Z" stroke="#0174F3" stroke-width="1.5" stroke-linecap="round" stroke-linejoin="round"/>
</svg>
