<svg width="62" height="57" viewBox="0 0 62 57" fill="none" xmlns="http://www.w3.org/2000/svg">
<g clip-path="url(#clip0_247_253)">
<path d="M50.9764 18.25C50.3165 18.0189 49.6511 17.8048 48.9807 17.608C49.0933 17.1382 49.197 16.6742 49.289 16.2183C50.7998 8.73261 49.8122 2.70196 46.4387 0.716368C43.2043 -1.18714 37.9147 0.797701 32.5725 5.54338C32.046 6.01191 31.5312 6.49396 31.0286 6.98905C30.6921 6.65983 30.3497 6.337 30.0015 6.02073C24.4026 0.946521 18.7906 -1.19208 15.4208 0.799183C12.1893 2.70862 11.2324 8.37786 12.5925 15.4722C12.7279 16.1749 12.8806 16.8738 13.0508 17.5687C12.2564 17.799 11.4899 18.0442 10.7563 18.3053C4.19202 20.6415 0 24.3023 0 28.0996C0 32.0217 4.50033 35.9555 11.3373 38.3408C11.8916 38.5334 12.4505 38.7119 13.0135 38.8761C12.8306 39.6243 12.6683 40.3776 12.5267 41.135C11.23 48.1063 12.2426 53.6415 15.4653 55.5389C18.794 57.4983 24.3808 55.4845 29.8206 50.6306C30.2616 50.2359 30.6931 49.8302 31.1143 49.4135C31.6586 49.9497 32.2175 50.4701 32.7902 50.9744C38.0598 55.6027 43.2639 57.4716 46.4835 55.569C49.809 53.604 50.8899 47.6577 49.4867 40.4231C49.3761 39.8562 49.2521 39.2923 49.1148 38.7317C49.5073 38.613 49.8924 38.4908 50.2678 38.3639C57.3754 35.9603 62 32.0741 62 28.0996C62 24.2885 57.6725 20.6028 50.9764 18.25ZM49.4349 35.7978C49.0958 35.9122 48.7479 36.0228 48.3934 36.1303C47.6087 33.5947 46.5499 30.8987 45.2539 28.1127C46.4906 25.3935 47.5088 22.7318 48.2714 20.2128C48.9056 20.4001 49.5211 20.5976 50.1145 20.806C55.8519 22.8223 59.3515 25.8028 59.3515 28.0996C59.3515 30.5461 55.5719 33.7219 49.4349 35.7978ZM46.8885 40.9482C47.5089 44.1471 47.5974 47.0394 47.1864 49.3005C46.8173 51.3324 46.0747 52.6869 45.1563 53.2295C43.2026 54.384 39.0242 52.8834 34.5178 48.925C33.985 48.4562 33.4652 47.9723 32.9588 47.4739C34.7059 45.5238 36.4519 43.2565 38.1559 40.7385C41.1532 40.4671 43.9849 40.0231 46.5528 39.4172C46.6792 39.938 46.7915 40.4488 46.8885 40.9482ZM21.1372 53.03C19.2282 53.7179 17.7078 53.7378 16.7886 53.1968C14.8331 52.0456 14.02 47.601 15.129 41.6393C15.2607 40.9349 15.4118 40.2343 15.5816 39.5384C18.1212 40.1119 20.9323 40.5242 23.9367 40.7729C25.6522 43.2368 27.4485 45.5015 29.2589 47.4846C28.8742 47.8645 28.4804 48.2348 28.0778 48.595C25.6721 50.7413 23.2616 52.2641 21.1372 53.03ZM12.1941 35.7827C9.17091 34.7279 6.6742 33.3571 4.9629 31.8612C3.42502 30.5172 2.64881 29.1825 2.64881 28.0996C2.64881 25.7952 6.01448 22.8558 11.6281 20.8582C12.3094 20.616 13.0224 20.3873 13.7623 20.1727C14.5383 22.7486 15.5559 25.442 16.7841 28.1654C15.54 30.9292 14.5077 33.6655 13.7243 36.2719C13.2104 36.1217 12.7002 35.9586 12.1941 35.7827ZM15.192 14.9528C14.0268 8.87476 14.8005 4.28978 16.748 3.13901C18.8221 1.91336 23.4087 3.66087 28.243 8.0424C28.5582 8.32877 28.8683 8.62093 29.1731 8.91875C27.3717 10.8932 25.5919 13.1411 23.8916 15.5904C20.9756 15.8663 18.1845 16.3094 15.6182 16.9029C15.4601 16.2567 15.3179 15.6064 15.192 14.9528ZM41.936 21.6938C41.3299 20.6251 40.7012 19.5698 40.0506 18.5288C42.0287 18.7841 43.924 19.123 45.7039 19.5374C45.1697 21.2857 44.5036 23.1133 43.7197 24.9871C43.1466 23.8773 42.552 22.7793 41.936 21.6938ZM31.0297 10.8509C32.2514 12.2019 33.4749 13.7102 34.6783 15.3467C32.237 15.229 29.7917 15.2284 27.3505 15.3453C28.5551 13.7238 29.789 12.2175 31.0297 10.8509ZM20.0536 21.7124C19.4453 22.7891 18.8617 23.8803 18.3034 24.9848C17.5322 23.1177 16.8722 21.2816 16.3333 19.5087C18.1023 19.1047 19.9887 18.7744 21.9543 18.5239C21.2964 19.5713 20.6626 20.6346 20.0536 21.7124ZM22.0107 37.8679C19.9799 37.6365 18.0653 37.3233 16.2968 36.9303C16.8441 35.1256 17.5187 33.2506 18.3065 31.3434C18.867 32.4488 19.4531 33.5406 20.064 34.6178C20.6922 35.7254 21.3428 36.8101 22.0107 37.8679ZM31.1029 45.5388C29.8474 44.1564 28.5954 42.6269 27.3726 40.982C28.5597 41.0295 29.7699 41.0537 31 41.0537C32.2637 41.0537 33.513 41.0248 34.7425 40.9689C33.5352 42.6434 32.3162 44.1753 31.1029 45.5388ZM43.7447 31.246C44.5733 33.1742 45.2718 35.0394 45.8265 36.813C44.029 37.2318 42.0881 37.569 40.043 37.8194C40.6983 36.7591 41.3329 35.6855 41.9464 34.5993C42.57 33.4953 43.1696 32.3772 43.7447 31.246ZM39.6521 33.2486C38.7129 34.9139 37.7211 36.5476 36.6778 38.147C34.7882 38.2836 32.8944 38.3515 31 38.3505C29.0705 38.3505 27.1938 38.2892 25.3866 38.1696C24.3161 36.5738 23.3052 34.9372 22.3561 33.2634C21.4113 31.5984 20.5292 29.8975 19.7109 28.1642C20.5271 26.4306 21.4069 24.7288 22.3483 23.0626C23.2895 21.3959 24.292 19.7667 25.3543 18.1777C27.1981 18.0353 29.0888 17.9612 30.9997 17.9612C32.9193 17.9612 34.8127 18.0361 36.6561 18.1795C37.7077 19.766 38.7041 21.39 39.6434 23.0482C40.588 24.7108 41.4794 26.4042 42.3163 28.1258C41.488 29.8652 40.5994 31.5739 39.6521 33.2486ZM45.1158 3.05843C47.1919 4.28063 47.9994 9.20922 46.695 15.6724C46.6116 16.0849 46.5182 16.5048 46.4164 16.9308C43.8439 16.3247 41.0508 15.8739 38.1263 15.594C36.4229 13.1176 34.6576 10.8663 32.8854 8.91727C33.3498 8.46032 33.8254 8.0152 34.3114 7.58234C38.8888 3.51651 43.1668 1.91113 45.1158 3.05843ZM31 22.4485C34.0576 22.4485 36.5365 24.9786 36.5365 28.0996C36.5365 31.2208 34.0576 33.7509 31 33.7509C27.9424 33.7509 25.4635 31.2208 25.4635 28.0996C25.4635 24.9786 27.9424 22.4485 31 22.4485Z" fill="#00D8FF"/>
</g>
<defs>
<clipPath id="clip0_247_253">
<rect width="62" height="56.3636" fill="white"/>
</clipPath>
</defs>
</svg>
