<svg width="34" height="32" viewBox="0 0 34 32" fill="none" xmlns="http://www.w3.org/2000/svg">
<g clip-path="url(#clip0_382_702)">
<path d="M27.9548 10.3613C27.5929 10.2301 27.2281 10.1085 26.8604 9.99678C26.9221 9.73006 26.979 9.46662 27.0295 9.20782C27.858 4.95787 27.3164 1.53401 25.4664 0.406712C23.6927 -0.673989 20.7919 0.452888 17.8624 3.14721C17.5736 3.41321 17.2913 3.68689 17.0157 3.96797C16.8312 3.78106 16.6434 3.59778 16.4524 3.41822C13.3821 0.53738 10.3045 -0.676796 8.45657 0.45373C6.68445 1.5378 6.15971 4.75646 6.90559 8.78422C6.97979 9.18318 7.06358 9.57998 7.15687 9.97446C6.72124 10.1053 6.30089 10.2445 5.8986 10.3927C2.29885 11.719 0 13.7974 0 15.9533C0 18.1801 2.46792 20.4134 6.21722 21.7677C6.52118 21.877 6.82767 21.9784 7.13641 22.0716C7.03615 22.4964 6.94713 22.9241 6.86946 23.3541C6.15838 27.312 6.71367 30.4545 8.48099 31.5317C10.3064 32.6442 13.3701 31.5009 16.3532 28.7451C16.5951 28.521 16.8317 28.2907 17.0627 28.0541C17.3612 28.3585 17.6676 28.654 17.9818 28.9403C20.8715 31.568 23.7254 32.629 25.491 31.5489C27.3146 30.4333 27.9074 27.0573 27.1379 22.9499C27.0772 22.6281 27.0092 22.3079 26.934 21.9896C27.1492 21.9222 27.3603 21.8529 27.5662 21.7808C31.4639 20.4161 34 18.2098 34 15.9533C34 13.7896 31.6269 11.6971 27.9548 10.3613ZM27.1094 20.3239C26.9235 20.3889 26.7327 20.4517 26.5383 20.5127C26.108 19.0731 25.5274 17.5425 24.8167 15.9608C25.4948 14.4169 26.0532 12.9058 26.4714 11.4757C26.8192 11.582 27.1567 11.6941 27.4821 11.8125C30.6284 12.9572 32.5476 14.6493 32.5476 15.9533C32.5476 17.3423 30.4749 19.1453 27.1094 20.3239ZM25.713 23.248C26.0533 25.0641 26.1018 26.7062 25.8764 27.99C25.674 29.1436 25.2668 29.9125 24.7631 30.2206C23.6917 30.8761 21.4004 30.0241 18.9291 27.7768C18.6369 27.5106 18.3519 27.2359 18.0742 26.9529C19.0323 25.8457 19.9898 24.5585 20.9242 23.1289C22.5679 22.9749 24.1208 22.7228 25.529 22.3788C25.5983 22.6745 25.6599 22.9645 25.713 23.248ZM11.5914 30.1073C10.5445 30.4979 9.71071 30.5092 9.20666 30.2021C8.13427 29.5485 7.68838 27.0251 8.29654 23.6404C8.36879 23.2405 8.45163 22.8427 8.54474 22.4476C9.93743 22.7732 11.479 23.0073 13.1266 23.1485C14.0673 24.5473 15.0524 25.8331 16.0452 26.959C15.8343 27.1747 15.6183 27.3849 15.3975 27.5894C14.0782 28.808 12.7563 29.6725 11.5914 30.1073ZM6.68711 20.3153C5.02921 19.7165 3.66005 18.9382 2.72159 18.0889C1.87824 17.3259 1.45257 16.5681 1.45257 15.9533C1.45257 14.645 3.29826 12.9762 6.37672 11.8421C6.75033 11.7045 7.14133 11.5747 7.54707 11.4529C7.97261 12.9153 8.53068 14.4445 9.20419 15.9907C8.52194 17.5598 7.95585 19.1133 7.52622 20.5931C7.2444 20.5078 6.96461 20.4152 6.68711 20.3153ZM8.33108 8.48934C7.6921 5.03857 8.11642 2.43549 9.1844 1.78215C10.3218 1.08629 12.837 2.07843 15.4881 4.56601C15.6609 4.72859 15.831 4.89446 15.9982 5.06355C15.0103 6.18453 14.0343 7.46075 13.1018 8.85134C11.5027 9.00798 9.97212 9.2595 8.56483 9.59646C8.47813 9.22958 8.40016 8.86038 8.33108 8.48934ZM22.9971 12.3165C22.6648 11.7097 22.32 11.1106 21.9632 10.5196C23.048 10.6645 24.0874 10.8569 25.0634 11.0922C24.7705 12.0848 24.4052 13.1224 23.9753 14.1862C23.6611 13.5561 23.335 12.9328 22.9971 12.3165ZM17.0163 6.16053C17.6863 6.92755 18.3572 7.78384 19.0171 8.71294C17.6784 8.64614 16.3374 8.64582 14.9986 8.71214C15.6592 7.79155 16.3359 6.9364 17.0163 6.16053ZM10.9971 12.327C10.6636 12.9383 10.3435 13.5578 10.0373 14.1849C9.61443 13.1249 9.25248 12.0825 8.95699 11.0759C9.92707 10.8465 10.9615 10.659 12.0395 10.5168C11.6787 11.1114 11.3311 11.7151 10.9971 12.327ZM12.0704 21.4992C10.9567 21.3678 9.90675 21.19 8.93698 20.9669C9.2371 19.9423 9.60701 18.8777 10.039 17.7949C10.3464 18.4225 10.6678 19.0424 11.0029 19.654C11.3473 20.2828 11.7041 20.8986 12.0704 21.4992ZM17.0564 25.8543C16.3679 25.0694 15.6813 24.2011 15.0108 23.2672C15.6618 23.2941 16.3254 23.3079 17 23.3079C17.693 23.3079 18.3781 23.2915 19.0524 23.2597C18.3903 24.2105 17.7218 25.0801 17.0564 25.8543ZM23.989 17.7397C24.4434 18.8344 24.8265 19.8933 25.1306 20.9003C24.1449 21.1381 23.0806 21.3295 21.9591 21.4717C22.3184 20.8697 22.6664 20.2601 23.0029 19.6435C23.3449 19.0167 23.6737 18.3819 23.989 17.7397ZM21.7447 18.8766C21.2297 19.8221 20.6858 20.7496 20.1136 21.6577C19.0774 21.7352 18.0389 21.7737 17 21.7732C15.9419 21.7732 14.9127 21.7384 13.9217 21.6705C13.3346 20.7645 12.7803 19.8353 12.2598 18.885C11.7417 17.9397 11.2579 16.9741 10.8092 15.99C11.2568 15.0057 11.7393 14.0396 12.2555 13.0936C12.7716 12.1473 13.3214 11.2224 13.904 10.3202C14.9151 10.2394 15.9519 10.1973 16.9998 10.1973C18.0525 10.1973 19.0908 10.2398 20.1017 10.3213C20.6784 11.222 21.2248 12.144 21.7399 13.0854C22.2579 14.0293 22.7468 14.9908 23.2057 15.9682C22.7515 16.9557 22.2642 17.9258 21.7447 18.8766ZM24.7409 1.7364C25.8794 2.43029 26.3223 5.22846 25.6069 8.8979C25.5612 9.13206 25.51 9.37046 25.4542 9.6123C24.0434 9.26822 22.5117 9.0123 20.908 8.85334C19.9738 7.44741 19.0058 6.16924 18.0339 5.06271C18.2886 4.80328 18.5494 4.55057 18.8159 4.30481C21.3261 1.99647 23.6721 1.08503 24.7409 1.7364ZM17 12.7449C18.6767 12.7449 20.0361 14.1814 20.0361 15.9533C20.0361 17.7253 18.6767 19.1618 17 19.1618C15.3233 19.1618 13.9639 17.7253 13.9639 15.9533C13.9639 14.1814 15.3233 12.7449 17 12.7449Z" fill="#00D8FF"/>
</g>
<defs>
<clipPath id="clip0_382_702">
<rect width="34" height="32" fill="white"/>
</clipPath>
</defs>
</svg>
