<svg width="40" height="40" viewBox="0 0 40 40" fill="none" xmlns="http://www.w3.org/2000/svg">
<path d="M1 25V33.75L9.75 38.75M1 25L9.75 20L16 23.5717M1 25L9.75 30M9.75 38.75L16 35.1783M9.75 38.75V30M9.75 30L14.75 27.1433M21 25L29.75 20L38.5 25M21 25L29.75 30M21 25V33.75L29.75 38.75M29.75 30L38.5 25M29.75 30V38.75M38.5 25V33.75L29.75 38.75M11 6.25L19.75 1.25L28.5 6.25M11 6.25L19.75 11.25M11 6.25V15L19.75 20M19.75 11.25L28.5 6.25M19.75 11.25V20M28.5 6.25V15L19.75 20" stroke="#0174F3" stroke-width="1.5" stroke-linecap="round" stroke-linejoin="round"/>
</svg>
