<svg width="36" height="45" viewBox="0 0 36 45" fill="none" xmlns="http://www.w3.org/2000/svg">
<path d="M10.6875 6.1163V10.6875C10.6875 10.7963 10.7191 10.9028 10.7783 10.9941C10.8376 11.0853 10.9221 11.1574 11.0216 11.2016L15.75 13.3031V24.75C15.7501 24.8555 15.7798 24.9589 15.8359 25.0483C15.8919 25.1377 15.972 25.2095 16.067 25.2555L15.2277 27.3536C15.1938 27.4383 15.1811 27.53 15.1905 27.6208C15.2 27.7115 15.2313 27.7986 15.2819 27.8745L17.5319 31.2495C17.5833 31.3266 17.6529 31.3897 17.7345 31.4334C17.8162 31.4771 17.9074 31.5 18 31.5C18.0926 31.5 18.1837 31.4771 18.2654 31.4334C18.347 31.3897 18.4166 31.3266 18.468 31.2495L20.718 27.8745C20.7686 27.7986 20.8 27.7115 20.8094 27.6208C20.8189 27.53 20.8061 27.4383 20.7722 27.3536L19.933 25.2555C20.0279 25.2095 20.108 25.1377 20.1641 25.0483C20.2202 24.9589 20.2499 24.8555 20.25 24.75V16.7063L26.0672 14.5909C26.1757 14.5515 26.2694 14.4796 26.3357 14.3851C26.4019 14.2906 26.4375 14.1779 26.4375 14.0625V12.3038C26.9678 12.1669 27.4299 11.8413 27.7372 11.388C28.0446 10.9348 28.1761 10.385 28.1071 9.84173C28.0381 9.29846 27.7733 8.79901 27.3624 8.43699C26.9515 8.07497 26.4226 7.87524 25.875 7.87524C25.3274 7.87524 24.7985 8.07497 24.3876 8.43699C23.9767 8.79901 23.7119 9.29846 23.6429 9.84173C23.5739 10.385 23.7054 10.9348 24.0128 11.388C24.3201 11.8413 24.7823 12.1669 25.3125 12.3038V13.6688L20.25 15.5097V10.4063L22.275 8.88752C22.3449 8.83513 22.4016 8.76719 22.4406 8.68908C22.4797 8.61097 22.5 8.52485 22.5 8.43752V6.1163C23.0303 5.97939 23.4924 5.65379 23.7997 5.20054C24.1071 4.74729 24.2386 4.1975 24.1696 3.65423C24.1006 3.11096 23.8358 2.61151 23.4249 2.24949C23.014 1.88747 22.4851 1.68774 21.9375 1.68774C21.3899 1.68774 20.861 1.88747 20.4501 2.24949C20.0392 2.61151 19.7744 3.11096 19.7054 3.65423C19.6364 4.1975 19.7679 4.74729 20.0753 5.20054C20.3826 5.65379 20.8448 5.97939 21.375 6.1163V8.15627L19.35 9.67502C19.2801 9.72742 19.2234 9.79536 19.1844 9.87347C19.1453 9.95157 19.125 10.0377 19.125 10.125V24.1875H16.875V8.3663C17.4053 8.22939 17.8674 7.90379 18.1747 7.45054C18.4821 6.99729 18.6136 6.4475 18.5446 5.90423C18.4756 5.36096 18.2108 4.86151 17.7999 4.49949C17.389 4.13747 16.8601 3.93774 16.3125 3.93774C15.7649 3.93774 15.236 4.13747 14.8251 4.49949C14.4142 4.86151 14.1494 5.36096 14.0804 5.90423C14.0114 6.4475 14.1429 6.99729 14.4503 7.45054C14.7576 7.90379 15.2198 8.22939 15.75 8.3663V12.0718L11.8125 10.3219V6.1163C12.3428 5.97939 12.8049 5.65379 13.1122 5.20054C13.4196 4.74729 13.5511 4.1975 13.4821 3.65423C13.4131 3.11096 13.1483 2.61151 12.7374 2.24949C12.3265 1.88747 11.7976 1.68774 11.25 1.68774C10.7024 1.68774 10.1735 1.88747 9.76263 2.24949C9.35172 2.61151 9.08694 3.11096 9.01794 3.65423C8.94893 4.1975 9.08043 4.74729 9.38779 5.20054C9.69515 5.65379 10.1573 5.97939 10.6875 6.1163ZM24.75 10.125C24.75 9.90252 24.816 9.68501 24.9396 9.50001C25.0632 9.315 25.2389 9.17081 25.4445 9.08566C25.6501 9.00051 25.8763 8.97823 26.0945 9.02164C26.3127 9.06505 26.5132 9.17219 26.6705 9.32953C26.8278 9.48686 26.935 9.68732 26.9784 9.90555C27.0218 10.1238 26.9995 10.35 26.9144 10.5555C26.8292 10.7611 26.685 10.9368 26.5 11.0604C26.315 11.184 26.0975 11.25 25.875 11.25C25.5767 11.2497 25.2908 11.1311 25.0799 10.9201C24.869 10.7092 24.7503 10.4233 24.75 10.125ZM20.8125 3.93752C20.8125 3.71502 20.8785 3.49751 21.0021 3.31251C21.1257 3.1275 21.3014 2.98331 21.507 2.89816C21.7126 2.81301 21.9388 2.79073 22.157 2.83414C22.3752 2.87755 22.5757 2.98469 22.733 3.14203C22.8903 3.29936 22.9975 3.49982 23.0409 3.71805C23.0843 3.93628 23.062 4.16248 22.9769 4.36804C22.8917 4.57361 22.7475 4.74931 22.5625 4.87293C22.3775 4.99654 22.16 5.06252 21.9375 5.06252C21.6392 5.06219 21.3533 4.94355 21.1424 4.73265C20.9315 4.52174 20.8128 4.23579 20.8125 3.93752ZM18.7441 25.3125L19.6178 27.4966L18.5625 29.0797V27.5625H17.4375V29.0797L16.3822 27.4967L17.2559 25.3125H18.7441ZM15.1875 6.18752C15.1875 5.96502 15.2535 5.74751 15.3771 5.56251C15.5007 5.3775 15.6764 5.23331 15.882 5.14816C16.0876 5.06301 16.3138 5.04073 16.532 5.08414C16.7502 5.12755 16.9507 5.23469 17.108 5.39203C17.2653 5.54936 17.3725 5.74982 17.4159 5.96805C17.4593 6.18628 17.437 6.41248 17.3519 6.61804C17.2667 6.82361 17.1225 6.99931 16.9375 7.12293C16.7525 7.24654 16.535 7.31252 16.3125 7.31252C16.0142 7.31219 15.7283 7.19355 15.5174 6.98265C15.3065 6.77174 15.1878 6.48579 15.1875 6.18752ZM11.25 2.81252C11.4725 2.81252 11.69 2.8785 11.875 3.00212C12.06 3.12574 12.2042 3.30144 12.2894 3.507C12.3745 3.71257 12.3968 3.93877 12.3534 4.157C12.31 4.37523 12.2028 4.57568 12.0455 4.73302C11.8882 4.89035 11.6877 4.9975 11.4695 5.04091C11.2513 5.08432 11.0251 5.06204 10.8195 4.97689C10.6139 4.89174 10.4382 4.74755 10.3146 4.56254C10.191 4.37753 10.125 4.16003 10.125 3.93752C10.1253 3.63926 10.244 3.3533 10.4549 3.1424C10.6658 2.93149 10.9517 2.81286 11.25 2.81252Z" fill="#0174F3"/>
<path d="M34.3125 13.5C34.3125 13.0792 34.1944 12.6668 33.9718 12.3098C33.7491 11.9527 33.4308 11.6652 33.0529 11.4799C32.675 11.2947 32.2528 11.2192 31.8342 11.2619C31.4155 11.3046 31.0173 11.4638 30.6846 11.7215C30.3519 11.9792 30.0982 12.3251 29.9522 12.7198C29.8062 13.1145 29.7739 13.5422 29.8588 13.9543C29.9437 14.3665 30.1425 14.7466 30.4327 15.0514C30.7228 15.3562 31.0926 15.5736 31.5 15.6788V21.6672L29.8125 23.0172V18C29.8125 17.8508 29.7532 17.7078 29.6478 17.6023C29.5423 17.4968 29.3992 17.4375 29.25 17.4375H21.9375V18.5625H28.6875V21.375H25.875C25.7485 21.375 25.6257 21.4177 25.5264 21.4961C25.4271 21.5745 25.3572 21.6841 25.3278 21.8072L24.7603 24.1875C24.7569 24.1875 24.7533 24.1875 24.75 24.1875C24.2021 24.1869 23.6728 24.386 23.2612 24.7474C22.8495 25.1089 22.5836 25.608 22.5134 26.1514C22.4432 26.6947 22.5734 27.245 22.8796 27.6993C23.1859 28.1536 23.6472 28.4807 24.1772 28.6194C24.7072 28.758 25.2696 28.6988 25.7591 28.4528C26.2486 28.2067 26.6317 27.7907 26.8366 27.2826C27.0415 26.7745 27.0542 26.2091 26.8723 25.6923C26.6904 25.1756 26.3264 24.7428 25.8485 24.475L26.3192 22.5H28.6875V33.1875H7.31251V27.5625H10.125C10.2385 27.5625 10.3494 27.5282 10.443 27.464C10.5366 27.3998 10.6087 27.3088 10.6496 27.2029L11.6022 24.7399C11.6715 24.7464 11.7416 24.7501 11.8125 24.7501C12.3518 24.7507 12.8733 24.5579 13.2825 24.2066C13.6916 23.8553 13.9612 23.369 14.0422 22.8358C14.1232 22.3027 14.0102 21.7582 13.7238 21.3013C13.4375 20.8443 12.9967 20.5053 12.4816 20.3457C11.9665 20.1862 11.4112 20.2167 10.9167 20.4318C10.4222 20.6469 10.0213 21.0322 9.78674 21.5178C9.5522 22.0033 9.49963 22.5569 9.63859 23.078C9.77755 23.599 10.0988 24.0529 10.544 24.3572L9.73948 26.4375H7.31251V18.5625H14.0625V17.4375H6.75001C6.60082 17.4375 6.45775 17.4968 6.35226 17.6023C6.24677 17.7078 6.18751 17.8508 6.18751 18V21.142L4.50001 19.4545V16.8037C5.03025 16.6668 5.49236 16.3412 5.79972 15.888C6.10708 15.4347 6.23858 14.8849 6.16957 14.3417C6.10057 13.7984 5.8358 13.2989 5.42489 12.9369C5.01398 12.5749 4.48514 12.3752 3.93751 12.3752C3.38987 12.3752 2.86103 12.5749 2.45012 12.9369C2.03921 13.2989 1.77444 13.7984 1.70544 14.3417C1.63643 14.8849 1.76794 15.4347 2.07529 15.888C2.38265 16.3412 2.84476 16.6668 3.37501 16.8037V19.6875C3.375 19.7614 3.38955 19.8345 3.41782 19.9028C3.44608 19.971 3.48752 20.033 3.53975 20.0853L6.18751 22.733V33.75C6.18751 33.8992 6.24677 34.0423 6.35226 34.1478C6.45775 34.2533 6.60082 34.3125 6.75001 34.3125H29.25C29.3992 34.3125 29.5423 34.2533 29.6478 34.1478C29.7532 34.0423 29.8125 33.8992 29.8125 33.75V24.4579L32.4141 22.3766C32.4799 22.3239 32.533 22.2571 32.5695 22.1811C32.606 22.1051 32.625 22.0218 32.625 21.9375V15.6788C33.1077 15.5535 33.5352 15.2716 33.8405 14.8773C34.1459 14.4831 34.3119 13.9987 34.3125 13.5ZM24.75 27.5625C24.5275 27.5625 24.31 27.4965 24.125 27.3729C23.94 27.2493 23.7958 27.0736 23.7106 26.868C23.6255 26.6625 23.6032 26.4363 23.6466 26.218C23.69 25.9998 23.7972 25.7994 23.9545 25.642C24.1118 25.4847 24.3123 25.3776 24.5305 25.3341C24.7488 25.2907 24.975 25.313 25.1805 25.3982C25.3861 25.4833 25.5618 25.6275 25.6854 25.8125C25.809 25.9975 25.875 26.215 25.875 26.4375C25.8747 26.7358 25.756 27.0217 25.5451 27.2326C25.3342 27.4436 25.0483 27.5622 24.75 27.5625ZM11.8125 21.375C12.035 21.375 12.2525 21.441 12.4375 21.5646C12.6225 21.6882 12.7667 21.8639 12.8519 22.0695C12.937 22.2751 12.9593 22.5013 12.9159 22.7195C12.8725 22.9377 12.7653 23.1382 12.608 23.2955C12.4507 23.4529 12.2502 23.56 12.032 23.6034C11.8138 23.6468 11.5876 23.6245 11.382 23.5394C11.1764 23.4542 11.0007 23.31 10.8771 23.125C10.7535 22.94 10.6875 22.7225 10.6875 22.5C10.6878 22.2018 10.8065 21.9158 11.0174 21.7049C11.2283 21.494 11.5142 21.3754 11.8125 21.375ZM2.81251 14.625C2.81251 14.4025 2.87849 14.185 3.0021 14C3.12572 13.815 3.30142 13.6708 3.50699 13.5857C3.71255 13.5005 3.93875 13.4782 4.15698 13.5216C4.37521 13.565 4.57567 13.6722 4.733 13.8295C4.89033 13.9869 4.99748 14.1873 5.04089 14.4055C5.0843 14.6238 5.06202 14.85 4.97687 15.0555C4.89172 15.2611 4.74753 15.4368 4.56252 15.5604C4.37752 15.684 4.16001 15.75 3.93751 15.75C3.63924 15.7497 3.35329 15.6311 3.14238 15.4201C2.93147 15.2092 2.81284 14.9233 2.81251 14.625ZM32.0625 14.625C31.84 14.625 31.6225 14.559 31.4375 14.4354C31.2525 14.3118 31.1083 14.1361 31.0231 13.9305C30.938 13.725 30.9157 13.4988 30.9591 13.2805C31.0025 13.0623 31.1097 12.8619 31.267 12.7045C31.4243 12.5472 31.6248 12.44 31.843 12.3966C32.0613 12.3532 32.2875 12.3755 32.493 12.4607C32.6986 12.5458 32.8743 12.69 32.9979 12.875C33.1215 13.06 33.1875 13.2775 33.1875 13.5C33.1872 13.7983 33.0685 14.0842 32.8576 14.2951C32.6467 14.5061 32.3608 14.6247 32.0625 14.625Z" fill="#0174F3"/>
<path d="M14.625 30.375H10.125V31.5H14.625V30.375Z" fill="#0174F3"/>
<path d="M26.4375 30.375H21.9375V31.5H26.4375V30.375Z" fill="#0174F3"/>
</svg>
