<svg width="34" height="34" viewBox="0 0 34 34" fill="none" xmlns="http://www.w3.org/2000/svg">
<path d="M1 1V0.25H0.25V1H1ZM33 1H33.75V0.25H33V1ZM33 33V33.75H33.75V33H33ZM1 33H0.25V33.75H1V33ZM2 32.0004H1.25C1.25 32.1993 1.32902 32.3901 1.46967 32.5307C1.61033 32.6714 1.8011 32.7504 2.00001 32.7504L2 32.0004ZM10.7067 25.035L10.2383 24.4492L10.2381 24.4494L10.7067 25.035ZM13.64 24.183L13.7227 23.4376L13.7216 23.4375L13.64 24.183ZM20.2347 24.915L20.3186 24.1697L20.3174 24.1696L20.2347 24.915ZM21.7293 24.799L21.532 24.0754L21.5313 24.0756L21.7293 24.799ZM32.1933 22.7226C32.593 22.6136 32.8286 22.2013 32.7196 21.8017C32.6106 21.402 32.1983 21.1664 31.7987 21.2754L32.1933 22.7226ZM1.61407 23.3569C1.2589 23.5701 1.14377 24.0308 1.35692 24.3859C1.57006 24.7411 2.03076 24.8562 2.38593 24.6431L1.61407 23.3569ZM11.0493 18.5693L10.6637 17.926L10.6634 17.9262L11.0493 18.5693ZM13.108 18L13.1076 18.75H13.108V18ZM20.1333 18V18.75H20.1337L20.1333 18ZM21.7893 17.6413L22.0994 18.3242L22.0997 18.3241L21.7893 17.6413ZM32.3104 13.6828C32.6874 13.5114 32.8542 13.0667 32.6828 12.6896C32.5114 12.3126 32.0667 12.1458 31.6896 12.3172L32.3104 13.6828ZM1.66466 15.3291C1.29415 15.5144 1.14394 15.9648 1.32915 16.3353C1.51435 16.7058 1.96484 16.8561 2.33534 16.6709L1.66466 15.3291ZM12.7333 10.6347L13.0686 11.3055L13.0686 11.3055L12.7333 10.6347ZM15.3907 10.308L15.5536 9.5759H15.5536L15.3907 10.308ZM21 11.556L20.8371 12.2881L20.8374 12.2882L21 11.556ZM24.524 10.6413L25.0222 11.202L25.0225 11.2017L24.524 10.6413ZM31.9907 4H32.7407C32.7407 3.70461 32.5673 3.43674 32.2978 3.31577C32.0283 3.19481 31.713 3.24329 31.4922 3.4396L31.9907 4ZM31.9907 32L31.9907 32.75C32.4049 32.75 32.7407 32.4142 32.7407 32H31.9907ZM2.75 2C2.75 1.58579 2.41421 1.25 2 1.25C1.58579 1.25 1.25 1.58579 1.25 2H2.75ZM1 1.75H33V0.25H1V1.75ZM32.25 1V33H33.75V1H32.25ZM33 32.25H1V33.75H33V32.25ZM1.75 33V1H0.25V33H1.75ZM2.46852 32.5861L11.1752 25.6206L10.2381 24.4494L1.53148 31.4148L2.46852 32.5861ZM11.175 25.6208C11.8466 25.0839 12.7036 24.8349 13.5584 24.9285L13.7216 23.4375C12.4724 23.3007 11.2198 23.6645 10.2383 24.4492L11.175 25.6208ZM13.5573 24.9284L20.152 25.6604L20.3174 24.1696L13.7227 23.4376L13.5573 24.9284ZM20.1508 25.6603C20.7462 25.7273 21.3491 25.6806 21.9273 25.5224L21.5313 24.0756C21.1367 24.1836 20.7252 24.2155 20.3186 24.1697L20.1508 25.6603ZM21.9266 25.5226L32.1933 22.7226L31.7987 21.2754L21.532 24.0754L21.9266 25.5226ZM2.38593 24.6431L11.4352 19.2124L10.6634 17.9262L1.61407 23.3569L2.38593 24.6431ZM11.4349 19.2126C11.9404 18.9096 12.5185 18.7497 13.1076 18.75L13.1084 17.25C12.2473 17.2495 11.4022 17.4832 10.6637 17.926L11.4349 19.2126ZM13.108 18.75H20.1333V17.25H13.108V18.75ZM20.1337 18.75C20.8116 18.7496 21.4819 18.6046 22.0994 18.3242L21.4792 16.9584C21.0565 17.1504 20.5974 17.2498 20.1329 17.25L20.1337 18.75ZM22.0997 18.3241L32.3104 13.6828L31.6896 12.3172L21.4789 16.9585L22.0997 18.3241ZM2.33534 16.6709L13.0686 11.3055L12.398 9.96382L1.66466 15.3291L2.33534 16.6709ZM13.0686 11.3055C13.7365 10.9717 14.4989 10.8779 15.2278 11.0401L15.5536 9.5759C14.4883 9.33889 13.3741 9.47588 12.398 9.96382L13.0686 11.3055ZM15.2278 11.0401L20.8371 12.2881L21.1629 10.8239L15.5536 9.5759L15.2278 11.0401ZM20.8374 12.2882C22.3257 12.6186 23.8825 12.2147 25.0222 11.202L24.0258 10.0807C23.2461 10.7735 22.1809 11.05 21.1626 10.8238L20.8374 12.2882ZM25.0225 11.2017L32.4892 4.5604L31.4922 3.4396L24.0255 10.0809L25.0225 11.2017ZM31.2407 4V32H32.7407V4H31.2407ZM31.9907 31.25L1.99999 31.2504L2.00001 32.7504L31.9907 32.75L31.9907 31.25ZM2.75 32.0004V2H1.25V32.0004H2.75Z" fill="#0174F3"/>
</svg>
