<svg width="302" height="51" viewBox="0 0 302 51" fill="none" xmlns="http://www.w3.org/2000/svg">
<g clip-path="url(#clip0_277_4)">
<path fill-rule="evenodd" clip-rule="evenodd" d="M32.7401 0H41.1814L26.4741 51H18.0327L32.7401 0Z" fill="#0174F3"/>
<path fill-rule="evenodd" clip-rule="evenodd" d="M15.8627 0H24.2988L9.59151 51H1.15015L10.6376 18.1116L8.44137 25.7267H0L2.47204 17.1548H10.9134L15.8627 0Z" fill="#0174F3"/>
<path fill-rule="evenodd" clip-rule="evenodd" d="M34.0256 39.4528L44.4654 33.6184L37.7727 26.4567L40.4581 17.1548L57.8821 35.8084L30.6948 51L34.0256 39.4528Z" fill="#0174F3"/>
<path d="M87.2552 21.6897H79.2874V44.9499H73.3701V21.6897H65.4023V16.5908H87.2552V21.6897Z" fill="#17181C"/>
<path d="M87.4892 29.2108L86.9688 25.1018C90.2478 24.4575 93.5744 24.1262 96.909 24.1119C99.4868 24.1119 101.381 24.6649 102.592 25.771C103.803 26.877 104.41 28.8034 104.414 31.5501V44.9444H99.8858L99.2873 41.8861C98.4467 43.0049 97.3781 43.9062 96.1619 44.5222C94.9458 45.1382 93.6139 45.4527 92.2667 45.4421C90.6463 45.5176 89.0542 44.972 87.7806 43.9047C87.1995 43.3784 86.74 42.7171 86.4377 41.9721C86.1354 41.227 85.9984 40.418 86.0372 39.6077V37.556C86.0032 36.8399 86.1266 36.1253 86.3976 35.4688C86.6686 34.8122 87.0798 34.2317 87.5985 33.7733C88.6393 32.8663 90.0601 32.4184 91.892 32.4184H98.668V31.5114C98.642 30.4717 98.413 29.7694 97.9915 29.4154C97.5699 29.0615 96.7476 28.8624 95.535 28.8624C93.4186 28.8624 90.7367 28.973 87.4892 29.1942V29.2108ZM91.6526 38.0039V38.7837C91.6526 40.1847 92.4003 40.8852 93.8957 40.8852C95.457 40.8852 97.0183 40.2271 98.6576 38.9109V36.0738H93.5106C92.2719 36.0997 91.6526 36.743 91.6526 38.0039Z" fill="#17181C"/>
<path d="M116.207 35.5374H114.391C114.547 36.5394 114.632 37.5525 114.646 38.568V44.9388H108.921V16.1815H114.646V28.0605C114.654 29.2997 114.564 30.5374 114.375 31.7602H116.155L120.891 24.6871H127.308L122.358 31.716C121.91 32.4957 121.302 33.1575 120.579 33.6516V33.729C121.315 34.3078 121.923 35.0517 122.358 35.9079L127.969 44.9499H121.526L116.186 35.5485L116.207 35.5374Z" fill="#17181C"/>
<path d="M135.104 24.6871L135.525 27.69C138.301 25.3046 141.023 24.1119 143.691 24.1119C145.419 24.1119 146.735 24.593 147.651 25.5498C148.567 26.5065 149.025 27.9057 149.025 29.7417V44.9499H143.342V31.6331C143.403 30.9796 143.26 30.3228 142.936 29.7638C142.744 29.571 142.514 29.425 142.264 29.3362C142.013 29.2474 141.747 29.2178 141.484 29.2495C140.273 29.2495 138.507 29.8671 136.186 31.1021V44.9278H130.461V24.6871H135.104Z" fill="#17181C"/>
<path d="M155.332 15.728H157.882C158.989 15.728 159.544 16.3179 159.548 17.4977V19.7098C159.548 20.8896 158.993 21.4795 157.882 21.4795H155.332C154.219 21.4795 153.667 20.8878 153.667 19.7098V17.4977C153.667 16.3198 154.219 15.728 155.332 15.728ZM159.47 44.9499H153.781V24.687H159.47V44.9499Z" fill="#17181C"/>
<path d="M171.575 35.5374H169.759C169.918 36.543 170.008 37.5596 170.029 38.5791V44.9499H164.305V16.1926H170.029V28.0605C170.035 29.2996 169.945 30.537 169.759 31.7603H171.539L176.254 24.6871H182.676L177.727 31.716C177.278 32.495 176.669 33.1566 175.947 33.6516V33.729C176.683 34.3078 177.291 35.0517 177.727 35.908L183.342 44.9499H176.915L171.575 35.5485V35.5374Z" fill="#17181C"/>
<path d="M209.134 30.1565V30.3168C211.115 30.5122 212.533 31.233 213.386 32.4792C214.24 33.7253 214.665 35.5263 214.661 37.8822C214.661 40.7321 213.978 42.677 212.611 43.7166C211.244 44.7563 208.911 45.278 205.611 45.2817C200.66 45.2817 196.909 45.1711 194.359 44.9499V16.5908C196.653 16.3769 199.99 16.2682 204.372 16.2645C207.932 16.2645 210.396 16.7769 211.763 17.8019C213.13 18.8268 213.813 20.7716 213.813 23.6363C213.813 25.6935 213.445 27.2494 212.71 28.3038C211.974 29.3583 210.782 29.9684 209.134 30.1343V30.1565ZM200.121 28.1822H204.414C205.856 28.1822 206.844 27.9333 207.37 27.4411C207.896 26.9489 208.166 25.9756 208.166 24.5267C208.166 23.0777 207.88 22.1542 207.313 21.6896C206.746 21.2251 205.679 20.9873 204.102 20.9873L200.121 20.9486V28.1822ZM200.121 40.5533H204.607C206.23 40.5533 207.327 40.3008 207.896 39.7957C208.465 39.2906 208.748 38.2546 208.744 36.6877C208.744 34.9918 208.447 33.8488 207.854 33.2589C207.261 32.6672 206.126 32.363 204.45 32.3354H200.121V40.5533Z" fill="#17181C"/>
<path d="M224.409 16.1815V23.2105C224.408 24.6288 224.292 26.0443 224.06 27.4411C226.722 25.229 229.324 24.123 231.867 24.123C233.602 24.123 234.922 24.6023 235.827 25.5608C236.743 26.5231 237.201 27.9167 237.201 29.7528V44.961H231.529V31.6331C231.59 30.9796 231.447 30.3228 231.123 29.7638C230.93 29.571 230.701 29.4251 230.45 29.3362C230.199 29.2474 229.933 29.2178 229.671 29.2495C228.304 29.2495 226.538 29.8671 224.373 31.1022V44.9278H218.648V16.1705L224.409 16.1815Z" fill="#17181C"/>
<path d="M242.317 29.2108L241.797 25.1018C245.076 24.4577 248.403 24.1264 251.737 24.1119C254.318 24.1119 256.215 24.6649 257.425 25.771C258.636 26.877 259.242 28.8034 259.242 31.5501V44.9444H254.719L254.121 41.8861C253.279 43.0109 252.208 43.9172 250.988 44.5362C249.768 45.1552 248.431 45.4707 247.079 45.4587C245.459 45.5342 243.867 44.9886 242.593 43.9213C242.013 43.3947 241.554 42.7333 241.253 41.9881C240.951 41.243 240.815 40.4342 240.855 39.6243V37.5725C240.822 36.8566 240.946 36.1423 241.216 35.4859C241.487 34.8295 241.898 34.2489 242.416 33.7899C243.457 32.8829 244.878 32.4349 246.71 32.4349H253.496V31.528C253.47 30.4883 253.246 29.7859 252.82 29.432C252.393 29.0781 251.576 28.879 250.363 28.879C248.25 28.879 245.568 28.9896 242.317 29.2108ZM246.481 38.0039V38.7837C246.481 40.1847 247.228 40.8852 248.724 40.8852C250.219 40.8852 251.805 40.2271 253.481 38.9109V36.0739H248.339C247.1 36.0997 246.481 36.743 246.481 38.0039Z" fill="#17181C"/>
<path d="M277.441 24.1119L276.858 29.7196H275.297C274.03 29.7196 272.084 30.186 269.458 31.1187V44.9444H263.733V24.6871H268.172L268.693 27.6457C271.295 25.2899 273.873 24.1119 276.426 24.1119H277.441Z" fill="#17181C"/>
<path d="M287.61 28.7573V38.3357C287.581 38.6225 287.607 38.9125 287.687 39.1881C287.766 39.4638 287.898 39.7194 288.073 39.9395C288.547 40.2889 289.123 40.4477 289.697 40.3875H292.138L292.757 44.6236C291.02 45.2125 289.203 45.4891 287.381 45.4421C285.653 45.4421 284.31 44.9333 283.358 43.9047C282.406 42.8761 281.927 41.4437 281.927 39.6077V28.7573H278.581V24.8862L281.948 24.6815V19.0186H287.631V24.6871H292.929V28.7573H287.61Z" fill="#17181C"/>
<path d="M297.785 15.728H300.335C301.441 15.728 301.997 16.3179 302 17.4977V19.7098C302 20.8896 301.445 21.4795 300.335 21.4795H297.785C296.674 21.4795 296.119 20.8896 296.119 19.7098V17.4977C296.119 16.3179 296.674 15.728 297.785 15.728ZM301.948 44.9499H296.239V24.687H301.922V44.9499H301.948Z" fill="#17181C"/>
</g>
<defs>
<clipPath id="clip0_277_4">
<rect width="302" height="51" fill="white"/>
</clipPath>
</defs>
</svg>
