<svg width="77" height="96" viewBox="0 0 77 96" fill="none" xmlns="http://www.w3.org/2000/svg">
<path d="M71.0918 7.97334H63.3279V4.66633C63.3279 4.44717 63.2406 4.23698 63.0852 4.082C62.9299 3.92703 62.7191 3.83997 62.4994 3.83997H14.5007C14.2809 3.83997 14.0702 3.92703 13.9148 4.082C13.7594 4.23698 13.6722 4.44717 13.6722 4.66633V7.97334H5.90824C5.68884 7.97375 5.47858 8.06102 5.32366 8.21597C5.16873 8.37092 5.08183 8.58088 5.08203 8.79971V55.0072C5.08183 55.226 5.16873 55.436 5.32366 55.5909C5.47858 55.7459 5.68884 55.8332 5.90824 55.8336H28.9051L26.5519 64.5888H21.5308C20.4185 64.5902 19.3522 65.0316 18.5658 65.8161C17.7794 66.6006 17.337 67.6642 17.3358 68.7736V72.1313C17.3355 72.24 17.3567 72.3477 17.3982 72.4482C17.4397 72.5488 17.5007 72.6401 17.5777 72.7171C17.6546 72.7941 17.7461 72.8552 17.8467 72.8968C17.9474 72.9385 18.0553 72.96 18.1643 72.96H58.8357C59.0555 72.96 59.2662 72.8729 59.4216 72.7179C59.577 72.563 59.6642 72.3528 59.6642 72.1336V68.7759C59.6636 67.6661 59.2216 66.6019 58.4351 65.8169C57.6486 65.0319 56.582 64.5902 55.4693 64.5888H50.4481L48.095 55.8336H71.0918C71.3112 55.8332 71.5215 55.7459 71.6764 55.5909C71.8313 55.436 71.9182 55.226 71.918 55.0072V8.79971C71.9182 8.58088 71.8313 8.37092 71.6764 8.21597C71.5215 8.06102 71.3112 7.97375 71.0918 7.97334ZM15.3292 13.4853H61.6709V36.3387H15.3292V13.4853ZM61.6709 5.49193V11.8333H15.3292V5.49193H61.6709ZM13.6722 9.62531V37.1643C13.6722 37.3834 13.7594 37.5936 13.9148 37.7486C14.0702 37.9036 14.2809 37.9906 14.5007 37.9906H62.4994C62.7191 37.9906 62.9299 37.9036 63.0852 37.7486C63.2406 37.5936 63.3279 37.3834 63.3279 37.1643V9.62531H70.2633V44.3758H6.73676V9.62531H13.6722ZM58.008 68.7759V71.3103H18.9921V68.7759C18.9921 68.1037 19.2598 67.4591 19.7363 66.9838C20.2129 66.5085 20.8592 66.2415 21.5331 66.2415H55.4693C56.1428 66.2421 56.7885 66.5094 57.2646 66.9846C57.7406 67.4599 58.008 68.1041 58.008 68.7759ZM48.7333 64.5888H28.2667L30.6199 55.8336H46.3802L48.7333 64.5888ZM6.73676 54.1816V46.0277H70.2618V54.1816H6.73676ZM63.9739 50.1043C63.9739 50.3235 63.8867 50.5336 63.7313 50.6886C63.5759 50.8436 63.3652 50.9307 63.1454 50.9307H59.5095C59.3986 50.934 59.2882 50.9152 59.1847 50.8752C59.0813 50.8352 58.987 50.7749 58.9074 50.6978C58.8277 50.6208 58.7644 50.5286 58.7212 50.4267C58.678 50.3248 58.6557 50.2153 58.6557 50.1047C58.6557 49.994 58.678 49.8845 58.7212 49.7826C58.7644 49.6807 58.8277 49.5885 58.9074 49.5115C58.987 49.4345 59.0813 49.3742 59.1847 49.3342C59.2882 49.2942 59.3986 49.2753 59.5095 49.2787H63.1454C63.2542 49.2786 63.3619 49.2999 63.4624 49.3413C63.5629 49.3828 63.6543 49.4436 63.7312 49.5202C63.8082 49.5969 63.8692 49.688 63.9109 49.7882C63.9525 49.8884 63.9739 49.9958 63.9739 50.1043ZM41.5515 17.2638L37.0486 34.0224C36.9875 34.2292 36.8478 34.4041 36.6592 34.5096C36.4706 34.6152 36.2481 34.643 36.0393 34.5871C35.8304 34.5313 35.6517 34.3962 35.5414 34.2108C35.431 34.0253 35.3977 33.8042 35.4485 33.5946L39.9515 16.8345C39.977 16.727 40.0239 16.6256 40.0894 16.5364C40.1549 16.4473 40.2377 16.3721 40.3329 16.3155C40.428 16.2588 40.5336 16.2217 40.6433 16.2065C40.7531 16.1912 40.8648 16.1981 40.9719 16.2266C41.0789 16.2552 41.1791 16.3049 41.2666 16.3728C41.354 16.4407 41.427 16.5254 41.481 16.6219C41.5351 16.7184 41.5692 16.8247 41.5813 16.9346C41.5934 17.0444 41.5833 17.1556 41.5515 17.2615V17.2638ZM32.7497 20.4679L27.7747 25.4307L32.7497 30.3928C32.8268 30.4695 32.8881 30.5606 32.9299 30.6609C32.9718 30.7612 32.9934 30.8688 32.9936 30.9774C32.9938 31.0861 32.9725 31.1937 32.931 31.2941C32.8894 31.3946 32.8285 31.4859 32.7516 31.5628C32.6747 31.6398 32.5834 31.7009 32.4828 31.7426C32.3822 31.7844 32.2744 31.806 32.1654 31.8061C32.0565 31.8063 31.9486 31.7851 31.8479 31.7437C31.7472 31.7023 31.6557 31.6415 31.5785 31.5648L26.0176 26.0175C25.8623 25.8625 25.7752 25.6525 25.7752 25.4334C25.7752 25.2144 25.8623 25.0043 26.0176 24.8494L31.5785 19.3029C31.6545 19.2223 31.746 19.1578 31.8475 19.1132C31.9489 19.0686 32.0584 19.0447 32.1693 19.043C32.2802 19.0414 32.3903 19.0619 32.493 19.1035C32.5958 19.145 32.6892 19.2067 32.7676 19.285C32.8461 19.3632 32.9079 19.4563 32.9496 19.5588C32.9913 19.6614 33.0119 19.7712 33.0102 19.8818C33.0085 19.9924 32.9846 20.1015 32.9399 20.2027C32.8951 20.304 32.8304 20.3952 32.7497 20.471V20.4679ZM50.9825 24.8455C51.1377 25.0005 51.2249 25.2106 51.2249 25.4296C51.2249 25.6486 51.1377 25.8587 50.9825 26.0137L45.4216 31.5648C45.2653 31.7156 45.0559 31.7991 44.8384 31.7973C44.621 31.7955 44.413 31.7085 44.2593 31.5551C44.1056 31.4017 44.0185 31.1942 44.0168 30.9773C44.0152 30.7604 44.0991 30.5516 44.2504 30.3959L49.2254 25.4338L44.2504 20.471C44.1696 20.3952 44.105 20.304 44.0602 20.2027C44.0155 20.1015 43.9915 19.9924 43.9899 19.8818C43.9882 19.7712 44.0088 19.6614 44.0505 19.5588C44.0921 19.4563 44.154 19.3632 44.2324 19.285C44.3109 19.2067 44.4042 19.145 44.507 19.1035C44.6098 19.0619 44.7199 19.0414 44.8308 19.043C44.9417 19.0447 45.0511 19.0686 45.1526 19.1132C45.2541 19.1578 45.3455 19.2223 45.4216 19.3029L50.9825 24.8455ZM57.3265 10.8011C57.7507 10.8013 58.1654 10.6759 58.5182 10.441C58.871 10.206 59.146 9.87197 59.3084 9.48111C59.4708 9.09025 59.5133 8.66013 59.4306 8.24515C59.3479 7.83018 59.1436 7.449 58.8437 7.14982C58.5437 6.85065 58.1615 6.64692 57.7455 6.56442C57.3294 6.48191 56.8982 6.52434 56.5063 6.68632C56.1144 6.8483 55.7795 7.12256 55.5439 7.47442C55.3084 7.82627 55.1827 8.23991 55.1828 8.66301C55.1835 9.22988 55.4095 9.77336 55.8114 10.1742C56.2133 10.575 56.7582 10.8005 57.3265 10.8011ZM57.3265 8.17686C57.4229 8.17686 57.5172 8.20537 57.5973 8.25879C57.6775 8.31221 57.7399 8.38814 57.7768 8.47697C57.8137 8.5658 57.8234 8.66355 57.8046 8.75785C57.7858 8.85215 57.7393 8.93877 57.6712 9.00676C57.603 9.07475 57.5162 9.12105 57.4216 9.13981C57.3271 9.15857 57.2291 9.14894 57.14 9.11214C57.0509 9.07535 56.9748 9.01304 56.9213 8.93309C56.8677 8.85315 56.8391 8.75916 56.8391 8.66301C56.8393 8.53413 56.8907 8.4106 56.9821 8.31947C57.0735 8.22835 57.1973 8.17707 57.3265 8.17686ZM51.2566 10.8011C51.6808 10.8013 52.0955 10.6759 52.4483 10.441C52.8011 10.206 53.0761 9.87197 53.2385 9.48111C53.4009 9.09025 53.4434 8.66013 53.3607 8.24515C53.278 7.83018 53.0737 7.449 52.7737 7.14982C52.4738 6.85065 52.0916 6.64692 51.6756 6.56442C51.2595 6.48191 50.8283 6.52434 50.4364 6.68632C50.0445 6.8483 49.7096 7.12256 49.474 7.47442C49.2384 7.82627 49.1128 8.23991 49.1129 8.66301C49.1138 9.22982 49.3399 9.77318 49.7417 10.174C50.1436 10.5748 50.6883 10.8003 51.2566 10.8011ZM51.2566 8.17686C51.353 8.17686 51.4473 8.20537 51.5274 8.25879C51.6076 8.31221 51.67 8.38814 51.7069 8.47697C51.7438 8.5658 51.7535 8.66355 51.7347 8.75785C51.7159 8.85215 51.6694 8.93877 51.6013 9.00676C51.5331 9.07475 51.4463 9.12105 51.3517 9.13981C51.2572 9.15857 51.1592 9.14894 51.0701 9.11214C50.981 9.07535 50.9049 9.01304 50.8514 8.93309C50.7978 8.85315 50.7692 8.75916 50.7692 8.66301C50.7694 8.53413 50.8208 8.4106 50.9122 8.31947C51.0036 8.22835 51.1274 8.17707 51.2566 8.17686ZM45.1867 10.8011C45.6109 10.8013 46.0256 10.6759 46.3784 10.441C46.7312 10.206 47.0061 9.87197 47.1685 9.48111C47.331 9.09025 47.3735 8.66013 47.2908 8.24515C47.208 7.83018 47.0038 7.449 46.7038 7.14982C46.4039 6.85065 46.0217 6.64692 45.6057 6.56442C45.1896 6.48191 44.7584 6.52434 44.3665 6.68632C43.9746 6.8483 43.6397 7.12256 43.4041 7.47442C43.1685 7.82627 43.0429 8.23991 43.043 8.66301C43.0438 9.22982 43.27 9.77318 43.6718 10.174C44.0736 10.5748 44.6184 10.8003 45.1867 10.8011ZM45.1867 8.17686C45.2831 8.17686 45.3773 8.20537 45.4575 8.25879C45.5377 8.31221 45.6001 8.38814 45.637 8.47697C45.6739 8.5658 45.6836 8.66355 45.6648 8.75785C45.646 8.85215 45.5995 8.93877 45.5314 9.00676C45.4632 9.07475 45.3763 9.12105 45.2818 9.13981C45.1873 9.15857 45.0892 9.14894 45.0002 9.11214C44.9111 9.07535 44.835 9.01304 44.7814 8.93309C44.7279 8.85315 44.6993 8.75916 44.6993 8.66301C44.6995 8.53413 44.7509 8.4106 44.8423 8.31947C44.9337 8.22835 45.0575 8.17707 45.1867 8.17686Z" fill="#0174F3"/>
</svg>
