<svg width="78" height="98" viewBox="0 0 78 98" fill="none" xmlns="http://www.w3.org/2000/svg">
<path d="M75.2056 59.1587C75.0788 59.0313 72.1435 56.1337 65.8125 53.9267V22.05H69.4688C69.947 22.05 70.381 21.7688 70.5786 21.3312C70.7762 20.8936 70.7009 20.3801 70.3859 20.0184L61.8546 10.2184C61.6232 9.95246 61.289 9.79995 60.9375 9.79995C60.5861 9.79995 60.2518 9.95246 60.0203 10.2183L51.489 20.0183C51.1741 20.38 51.0989 20.8934 51.2963 21.331C51.4939 21.7687 51.9279 22.0498 52.4061 22.0498H56.0624V26.5618L43.8749 21.5177V14.7H47.5311C48.0093 14.7 48.4434 14.4188 48.641 13.9812C48.8386 13.5436 48.7633 13.0301 48.4482 12.6684L39.917 2.86844C39.6857 2.60246 39.3515 2.44995 39 2.44995C38.6486 2.44995 38.3143 2.60246 38.0829 2.86829L29.5517 12.6683C29.2368 13.03 29.1614 13.5434 29.359 13.981C29.5566 14.4188 29.9906 14.7 30.4688 14.7H34.125V21.5178L21.9375 26.5619V22.05H25.5938C26.072 22.05 26.506 21.7688 26.7036 21.3312C26.9012 20.8936 26.8259 20.3801 26.5109 20.0184L17.9797 10.2184C17.7484 9.95246 17.414 9.79995 17.0625 9.79995C16.7111 9.79995 16.3767 9.95246 16.1453 10.2183L7.61403 20.0183C7.29914 20.38 7.22373 20.8934 7.42132 21.331C7.61906 21.7688 8.05309 22.05 8.53129 22.05H12.1875V53.9267C5.85675 56.1336 2.92139 59.0313 2.79448 59.1587C2.54464 59.41 2.41545 59.7576 2.44059 60.1119C2.46573 60.4661 2.64244 60.792 2.92504 61.0051L7.17101 64.2057L4.90414 74.4593C4.78287 75.0079 5.04871 75.5693 5.54886 75.8207C5.72253 75.908 5.90885 75.9501 6.09334 75.9501C6.44053 75.9501 6.78162 75.801 7.01928 75.5223C7.0886 75.4407 14.1276 67.375 28.0313 67.375C28.7045 67.375 29.25 66.8265 29.25 66.15V62.7484C33.5801 65.8982 38.1215 68.2958 38.4364 68.4609C38.6129 68.5534 38.8064 68.5998 39 68.5998C39.1937 68.5998 39.387 68.5534 39.5637 68.4609C39.8786 68.2958 44.4201 65.8981 48.75 62.7484V66.15C48.75 66.8265 49.2957 67.375 49.9688 67.375C57.1984 67.375 62.5205 69.5853 65.712 71.4397C69.183 73.4563 70.9651 75.5037 70.981 75.5221C71.2186 75.8008 71.5596 75.95 71.9069 75.95C72.0914 75.95 72.2779 75.908 72.4514 75.8206C72.9515 75.5691 73.2174 75.0078 73.0961 74.4591L70.8292 64.2056L75.075 61.005C75.3576 60.7918 75.5345 60.466 75.5595 60.1118C75.5846 59.7576 75.4554 59.4098 75.2056 59.1587ZM58.6172 46.7283C60.9764 47.4493 62.5705 48.142 63.375 48.527V60.5391C61.6304 59.7945 58.6333 58.7088 54.3731 57.8273C54.9865 57.1266 55.5085 56.4245 55.902 55.7326C56.9809 53.8349 57.8858 50.45 58.6172 46.7283ZM57.2813 19.6H55.0921L60.9375 12.8851L66.783 19.6H64.5938C63.9207 19.6 63.375 20.1484 63.375 20.825V45.8411C62.3612 45.4087 60.9238 44.861 59.0626 44.3042C60.2688 37.3066 60.8914 30.0034 60.9333 29.5025C60.9778 28.9703 60.6741 28.4706 60.1828 28.2673L58.5 27.5707V20.825C58.5 20.1484 57.9543 19.6 57.2813 19.6ZM35.3438 12.25H33.1546L39 5.53511L44.8455 12.25H42.6563C41.9832 12.25 41.4375 12.7984 41.4375 13.475V20.5089L39.4641 19.6921C39.1669 19.5692 38.8332 19.5692 38.536 19.6921L36.5625 20.5089V13.475C36.5625 12.7984 36.017 12.25 35.3438 12.25ZM22.0981 55.7327C22.4915 56.4247 23.0135 57.1268 23.627 57.8275C19.3667 58.7088 16.3697 59.7945 14.625 60.5393V48.5273C15.4305 48.1418 17.0243 47.4493 19.3829 46.7285C20.1143 50.45 21.0192 53.8349 22.0981 55.7327ZM11.2171 19.6L17.0625 12.8851L22.908 19.6H20.7188C20.0456 19.6 19.5 20.1484 19.5 20.825V27.5707L17.8173 28.2671C17.3259 28.4705 17.0223 28.9703 17.0668 29.5024C17.1087 30.0031 17.7313 37.3063 18.9374 44.3041C17.0763 44.8608 15.639 45.4086 14.625 45.841V20.825C14.625 20.1484 14.0795 19.6 13.4063 19.6H11.2171ZM8.10199 71.289L9.7211 63.9656C9.825 63.496 9.64553 63.0086 9.26254 62.7198L5.63082 59.9821C6.81971 59.1056 8.97888 57.74 12.1875 56.5312V62.475C12.1875 62.9107 12.419 63.3132 12.7934 63.5326C12.894 63.5915 13.0012 63.6336 13.1112 63.6614L13.1107 63.6634L20.9185 65.6253C16.6226 66.493 13.2782 68.0227 10.9642 69.3794C9.84861 70.0334 8.89478 70.6881 8.10199 71.289ZM26.8125 64.581L17.1925 62.1637C19.1458 61.4489 21.993 60.5882 25.7164 59.919C26.0705 60.2367 26.437 60.5514 26.8125 60.8624V64.581ZM38.9999 65.9844C36.5472 64.6411 26.8269 59.1122 24.2145 54.5172C21.5614 49.8503 19.9444 34.1138 19.5764 30.1887L39 22.1496L58.4239 30.1887C58.056 34.1148 56.4396 49.8489 53.7858 54.5172C51.1754 59.1085 41.4523 64.6406 38.9999 65.9844ZM52.2837 59.9191C56.0072 60.5883 58.8545 61.449 60.8076 62.1637L51.1875 64.581V60.8625C51.5629 60.5515 51.9296 60.2369 52.2837 59.9191ZM68.7375 62.72C68.3546 63.0087 68.1752 63.496 68.279 63.9658L69.8981 71.2891C69.1051 70.6881 68.1515 70.0335 67.0359 69.3794C64.7219 68.0227 61.3775 66.4928 57.0816 65.6253L64.8893 63.6634L64.889 63.6624C64.9986 63.6349 65.1052 63.5931 65.2055 63.5346C65.5811 63.3153 65.8124 62.9118 65.8124 62.4751V56.5314C69.0221 57.7406 71.1813 59.1064 72.3693 59.9822L68.7375 62.72Z" fill="#0174F3"/>
<path d="M56.0594 31.935C56.0965 31.3982 55.7807 30.8997 55.2812 30.7067L39.4375 24.5817C39.1558 24.4728 38.8439 24.4728 38.5624 24.5817L22.7186 30.7067C22.2189 30.8999 21.9033 31.3983 21.9405 31.935C21.9875 32.6155 23.1246 48.6572 25.7544 53.2826C28.4149 57.9626 38.004 63.3214 38.411 63.5472C38.5944 63.649 38.7971 63.6999 39.0001 63.6999C39.203 63.6999 39.4059 63.649 39.5892 63.5472C39.9961 63.3214 49.5851 57.9626 52.2457 53.2826C54.8752 48.6572 56.0123 32.6155 56.0594 31.935ZM38.9998 61.068C36.0347 59.3525 29.6692 55.2309 27.8706 52.0671C26.0353 48.8388 24.8353 37.7198 24.4389 32.6665L38.9999 27.0373L53.5611 32.6665C53.165 37.7193 51.9654 48.8374 50.1294 52.0671C48.3325 55.2275 41.9653 59.3514 38.9998 61.068Z" fill="#0174F3"/>
<path d="M48.989 39.2237L43.3518 38.0906L39.975 33.565C39.7448 33.2564 39.3836 33.075 39 33.075C38.6164 33.075 38.2552 33.2566 38.025 33.565L34.6481 38.0906L29.0109 39.2237C28.6005 39.3062 28.2608 39.5947 28.1115 39.9876C27.9622 40.3807 28.0238 40.8232 28.275 41.1598L31.6043 45.6217L30.4923 51.2095C30.4072 51.6378 30.5552 52.0793 30.8808 52.3681C31.2065 52.6573 31.6608 52.7501 32.0727 52.612L39 50.2913L45.927 52.6122C46.0532 52.6543 46.1833 52.675 46.3123 52.675C46.6051 52.675 46.8929 52.569 47.119 52.3682C47.4447 52.0793 47.5926 51.6378 47.5075 51.2097L46.3955 45.6219L49.725 41.1599C49.9762 40.8234 50.0379 40.3808 49.8884 39.9878C49.7391 39.5947 49.3994 39.3062 48.989 39.2237ZM44.1187 44.59C43.9106 44.8686 43.8306 45.2234 43.8986 45.5652L44.7054 49.6203L39.3854 47.8377C39.2603 47.7959 39.1302 47.775 39 47.775C38.8697 47.775 38.7396 47.7959 38.6145 47.8377L33.2944 49.6203L34.1012 45.5652C34.1691 45.2234 34.0892 44.8686 33.8811 44.59L31.3852 41.2449L35.5826 40.4011C35.8766 40.342 36.1386 40.176 36.3186 39.9348L38.9998 36.3414L41.6811 39.9348C41.861 40.176 42.123 40.342 42.417 40.4011L46.6144 41.2449L44.1187 44.59Z" fill="#0174F3"/>
</svg>
